<?xml version="1.0" encoding="UTF-8"?>
<svg width="416px" height="489px" viewBox="0 0 416 489" version="1.1" xmlns="http://www.w3.org/2000/svg" xmlns:xlink="http://www.w3.org/1999/xlink">
    <!-- Generator: Sketch 41 (35326) - http://www.bohemiancoding.com/sketch -->
    <title>people</title>
    <desc>Created with Sketch.</desc>
    <defs></defs>
    <g id="Page-1" stroke="none" stroke-width="1" fill="none" fill-rule="evenodd">
        <g id="people">
            <g id="Group">
                <path d="M208.294041,98.997551 L208.493633,98.997551 L208.493633,98.997551 C248.811184,98.5983673 242.923224,44.7085714 242.923224,44.7085714 C241.32649,8.6822449 211.287918,8.98163265 208.294041,9.08142857 C205.300163,8.98163265 175.261592,8.6822449 173.565061,44.6087755 C173.565061,44.6087755 167.677102,98.4985714 208.094449,98.8977551 L208.094449,98.8977551 C208.094449,98.997551 208.194245,98.997551 208.294041,98.997551 Z" id="XMLID_2038_" fill="#A7A9AC"></path>
                <path d="M208.294041,165.960612 L234.340776,130.034082 C234.340776,130.034082 252.703224,137.41898 267.672612,148.496327 C271.564653,151.390408 273.36098,153.086939 276.853837,156.579796 C285.136898,164.862857 281.644041,212.864694 276.853837,230.428776 C272.063633,247.992857 257.992408,273.241224 257.992408,273.241224 C255.198122,279.628163 253.401796,286.514082 252.703224,293.4 L234.739959,469.539796 C234.141184,475.128367 229.450776,479.419592 223.862204,479.419592 L208.294041,479.419592 L192.725878,479.419592 C187.137306,479.419592 182.347102,475.128367 181.848122,469.539796 L163.884857,293.4 C163.186286,286.414286 161.389959,279.628163 158.595673,273.241224 C158.595673,273.241224 144.524449,248.092653 139.734245,230.428776 C134.944041,212.864694 131.451184,164.862857 139.734245,156.579796 C143.227102,153.086939 145.023429,151.390408 148.915469,148.496327 C163.884857,137.518776 182.247306,130.034082 182.247306,130.034082 L208.294041,165.960612 Z" id="XMLID_2039_" fill="#A7A9AC"></path>
                <path d="M5.70832653,248.292245 C10.1991429,264.658776 22.1746531,286.713673 23.9709796,290.106735 C26.1664898,295.196327 27.5636327,300.48551 28.0626122,305.974286 L44.9281224,471.236327 C45.9260816,481.116122 54.2091429,488.600816 64.1887347,488.600816 L93.3291429,488.600816 C103.308735,488.600816 111.591796,481.116122 112.589755,471.236327 L129.455265,305.974286 C130.054041,300.385714 131.451184,294.896939 133.74649,289.807347 C135.742408,285.216735 133.646694,279.927551 129.155878,277.931633 C124.565265,275.935714 119.276082,278.031429 117.280163,282.522245 C114.286286,289.408163 112.290367,296.693265 111.591796,304.177959 L94.7262857,469.44 C94.6264898,470.038776 94.1275102,470.537755 93.5287347,470.537755 L64.3883265,470.537755 C63.789551,470.537755 63.1907755,470.038776 63.1907755,469.44 L46.1256735,304.078163 C45.3273061,296.593469 43.4311837,289.308367 40.4373061,282.422449 C40.3375102,282.123061 40.2377143,281.923469 40.0381224,281.624082 C39.9383265,281.42449 27.3640408,258.770816 23.1726122,243.502041 C18.582,226.436939 17.2846531,189.312857 21.076898,182.726327 C24.0707755,179.732449 25.3681224,178.534898 28.4617959,176.239592 C36.3456735,170.451429 45.427102,165.76102 51.3150612,162.966735 L71.4738367,190.71 C73.1703673,193.005306 75.8648571,194.402449 78.7589388,194.402449 C81.6530204,194.402449 84.3475102,193.005306 86.0440408,190.71 L110.494041,157.078776 C113.388122,153.086939 112.489959,147.398571 108.498122,144.404694 C104.506286,141.510612 98.8179184,142.408776 95.8240408,146.400612 L78.6591429,169.952449 L61.6938367,146.500408 C59.2987347,143.107347 54.8079184,141.909796 51.0156735,143.406735 C50.317102,143.706122 32.5534286,150.891429 17.7836327,161.769184 C13.5922041,164.862857 11.5962857,166.75898 8.10342857,170.251837 C-4.67044898,183.025714 2.41506122,236.117143 5.70832653,248.292245 Z" id="Shape" fill="#000000"></path>
                <path d="M77.9605714,131.630816 L78.5593469,131.630816 L78.9585306,131.630816 L79.657102,131.630816 C91.2334286,131.331429 101.013429,127.14 107.999143,119.256122 C122.868735,102.490408 120.77302,74.547551 120.373837,71.0546939 C118.876898,40.2177551 97.4207755,29.34 79.5573061,29.34 L78.7589388,29.34 L77.9605714,29.34 C60.097102,29.34 38.7407755,40.317551 37.1440408,71.0546939 C36.8446531,74.547551 34.6491429,102.490408 49.5187347,119.256122 C56.6042449,127.14 66.3842449,131.431224 77.9605714,131.630816 Z M55.207102,72.6514286 L55.207102,72.0526531 C56.2050612,50.4967347 69.877102,47.3032653 77.9605714,47.3032653 L78.3597551,47.3032653 L79.0583265,47.3032653 L79.4575102,47.3032653 C87.5409796,47.3032653 101.21302,50.4967347 102.21098,72.0526531 L102.21098,72.5516327 C102.909551,78.9385714 102.709959,97.6004082 94.2273061,107.180816 C90.5348571,111.372245 85.4452653,113.467959 78.7589388,113.467959 L78.5593469,113.467959 L78.5593469,113.467959 C71.8730204,113.368163 66.7834286,111.372245 63.0909796,107.180816 C54.7081224,97.7002041 54.6083265,79.0383673 55.207102,72.6514286 Z" id="Shape" fill="#000000"></path>
                <path d="M287.532,277.831837 C282.941388,279.827755 280.845673,285.216735 282.941388,289.707551 C285.236694,294.896939 286.633837,300.285918 287.232612,305.87449 L304.098122,471.136531 C305.096082,481.016327 313.379143,488.50102 323.358735,488.50102 L352.499143,488.50102 C362.478735,488.50102 370.761796,481.016327 371.759755,471.136531 L388.625265,305.87449 C389.224041,300.385714 390.521388,295.096531 392.716898,290.006939 C394.513224,286.713673 406.588531,264.658776 410.979551,248.192449 C414.272816,236.017347 421.458122,182.925918 408.684245,170.152041 C405.191388,166.659184 403.195469,164.763061 399.004041,161.669388 C384.234245,150.791633 366.570367,143.606327 365.772,143.306939 C361.879959,141.710204 357.488939,143.007551 355.093837,146.400612 L337.928939,169.952449 L320.664245,146.500408 C317.770163,142.408776 312.081796,141.610408 307.990163,144.50449 C303.998327,147.398571 303.100163,153.086939 305.994245,157.178571 L330.444245,190.809796 C332.140776,193.105102 334.835265,194.502245 337.729347,194.502245 C340.623429,194.502245 343.317918,193.105102 345.014449,190.809796 L365.173224,163.066531 C371.061184,165.860816 380.142612,170.551224 388.02649,176.339388 C391.020367,178.534898 392.317714,179.832245 395.411388,182.826122 C399.203633,189.412653 397.906286,226.536735 393.315673,243.601837 C389.124245,258.870612 376.549959,281.524286 376.450163,281.723878 C376.350367,281.923469 376.150776,282.222857 376.05098,282.522245 C373.057102,289.408163 371.061184,296.693265 370.362612,304.177959 L353.497102,469.44 C353.397306,470.038776 352.898327,470.537755 352.299551,470.537755 L323.159143,470.537755 C322.560367,470.537755 321.961592,470.038776 321.961592,469.44 L305.096082,304.177959 C304.297714,296.693265 302.401592,289.408163 299.407714,282.522245 C297.411796,277.831837 292.122612,275.835918 287.532,277.831837 Z" id="Shape" fill="#000000"></path>
                <path d="M336.93098,131.630816 L337.629551,131.630816 L338.028735,131.630816 L338.62751,131.630816 C350.203837,131.431224 359.983837,127.14 367.069347,119.256122 C381.938939,102.490408 379.843224,74.547551 379.444041,71.0546939 C377.947102,40.2177551 356.590776,29.34 338.62751,29.34 L337.829143,29.34 L337.030776,29.34 C319.167306,29.34 297.81098,40.317551 296.214245,71.0546939 C295.914857,74.547551 293.719347,102.490408 308.588939,119.256122 C315.574653,127.14 325.354653,131.331429 336.93098,131.630816 Z M314.17751,72.6514286 L314.17751,72.0526531 C315.175469,50.4967347 328.84751,47.3032653 336.93098,47.3032653 L337.330163,47.3032653 L338.028735,47.3032653 L338.427918,47.3032653 C346.511388,47.3032653 360.183429,50.4967347 361.181388,72.0526531 L361.181388,72.5516327 C361.879959,78.9385714 361.680367,97.6004082 353.197714,107.180816 C349.505265,111.372245 344.415673,113.368163 337.729347,113.467959 L337.729347,113.467959 L337.529755,113.467959 C330.843429,113.368163 325.753837,111.372245 322.061388,107.180816 C313.678531,97.7002041 313.578735,79.0383673 314.17751,72.6514286 Z" id="Shape" fill="#000000"></path>
                <path d="M133.347306,150.192857 C119.874857,163.665306 127.459347,219.850408 131.052,232.823878 C135.842204,250.288163 148.616082,273.84 150.512204,277.233061 C152.907306,282.721837 154.404245,288.410204 155.00302,294.298163 L172.966286,470.437959 C173.964245,480.716939 182.546694,488.401224 192.925469,488.401224 L223.962,488.401224 C234.24098,488.401224 242.823429,480.617143 243.921184,470.437959 L261.884449,294.298163 C262.483224,288.410204 263.980163,282.622041 266.375265,277.233061 C268.271388,273.740204 281.045265,250.288163 285.835469,232.823878 C289.328327,219.850408 297.012612,163.665306 283.540163,150.192857 C279.847714,146.500408 277.752,144.50449 273.36098,141.211224 C257.69302,129.634898 238.831592,122.050408 238.033224,121.651224 C234.141184,120.05449 229.750163,121.351837 227.355061,124.744898 L208.294041,150.592041 L189.532408,124.744898 C187.137306,121.351837 182.64649,120.154286 178.854245,121.651224 C178.055878,121.950612 159.294245,129.634898 143.52649,141.211224 C139.135469,144.50449 136.939959,146.500408 133.347306,150.192857 Z M146.320776,162.767143 C149.614041,159.473878 151.011184,158.176531 154.304449,155.781429 C162.886898,149.39449 172.86649,144.304898 179.253429,141.31102 L201.008939,171.249796 C202.705469,173.545102 205.399959,174.942245 208.294041,174.942245 C211.188122,174.942245 213.882612,173.545102 215.579143,171.249796 L237.334653,141.31102 C243.621796,144.304898 253.601388,149.39449 262.283633,155.781429 C265.576898,158.176531 266.974041,159.473878 270.267306,162.767143 C274.458735,169.553265 273.161388,209.571429 268.071796,228.033673 C263.58098,244.400204 250.208327,268.550816 250.008735,268.750408 C249.908939,268.95 249.709347,269.249388 249.609551,269.548776 C246.416082,276.833878 244.320367,284.518163 243.522,292.501837 L225.558735,468.641633 C225.458939,469.639592 224.660571,470.338163 223.662612,470.338163 L192.626082,470.338163 C191.628122,470.338163 190.829755,469.639592 190.729959,468.641633 L172.766694,292.501837 C171.968327,284.617959 169.972408,276.833878 166.679143,269.548776 C166.579347,269.249388 166.479551,269.049796 166.279959,268.750408 C166.180163,268.550816 152.707714,244.300408 148.216898,227.933878 C143.426694,209.571429 142.129347,169.553265 146.320776,162.767143 Z" id="Shape" fill="#000000"></path>
                <path d="M207.395878,107.979184 L208.094449,107.979184 L208.593429,107.979184 L209.192204,107.979184 C221.566898,107.779592 231.54649,103.388571 239.031184,94.9059184 C254.798939,77.2420408 252.403837,47.5028571 252.104449,43.9102041 C250.507714,11.4765306 228.053633,7.10542736e-15 209.192204,7.10542736e-15 L208.294041,7.10542736e-15 L207.395878,7.10542736e-15 C188.634245,7.10542736e-15 166.080367,11.4765306 164.483633,43.9102041 C164.184245,47.5028571 161.789143,77.1422449 177.556898,94.8061224 C185.041592,103.288776 195.12098,107.679796 207.395878,107.979184 Z M182.546694,45.6067347 L182.546694,45.0079592 C183.644449,20.6577551 200.310367,18.0630612 207.395878,18.0630612 L207.894857,18.0630612 L208.593429,18.0630612 L209.092408,18.0630612 C216.177918,18.0630612 232.843837,20.6577551 233.941592,45.0079592 L233.941592,45.5069388 C234.640163,52.3928571 234.540367,72.5516327 225.359143,82.8306122 C221.26751,87.4212245 215.678939,89.7165306 208.393837,89.7165306 L208.094449,89.7165306 C200.809347,89.6167347 195.220776,87.4212245 191.129143,82.8306122 C181.947918,72.6514286 181.848122,52.4926531 182.546694,45.6067347 Z" id="Shape" fill="#000000"></path>
            </g>
        </g>
    </g>
</svg>