<?xml version="1.0" encoding="UTF-8"?>
<svg width="67px" height="50px" viewBox="0 0 67 50" version="1.1" xmlns="http://www.w3.org/2000/svg" xmlns:xlink="http://www.w3.org/1999/xlink">
    <!-- Generator: Sketch 49.2 (51160) - http://www.bohemiancoding.com/sketch -->
    <title>Group 4 Copy 2</title>
    <desc>Created with Sketch.</desc>
    <defs></defs>
    <g id="Customer-Dashboard" stroke="none" stroke-width="1" fill="none" fill-rule="evenodd">
        <g id="Customer---Organization-role" transform="translate(-1190.000000, -313.000000)" fill-rule="nonzero">
            <g id="Group-4-Copy-2" transform="translate(1190.000000, 313.000000)">
                <g id="Group-3" fill="#F7F9FB">
                    <g id="Group-2">
                        <rect id="Rectangle-path" x="0" y="48.6219336" width="67" height="1"></rect>
                        <path d="M58.585119,48.6299097 C67.3462011,35.6179106 65.0850919,18.1243631 53.3035041,7.76758421 C41.5219163,-2.58919474 23.8828456,-2.58919474 12.1012578,7.76758421 C0.319669987,18.1243631 -1.94143924,35.6179106 6.81964286,48.6299097 L58.585119,48.6299097 Z" id="Shape"></path>
                    </g>
                </g>
                <g id="employee" transform="translate(15.000000, 4.000000)" fill="#263C66">
                    <path d="M22.7471297,20.8652303 L19.715626,19.6835379 L17.9756181,17.925154 C17.8624584,17.8107941 17.7143828,17.7520904 17.5651168,17.7494439 L17.5651168,16.3124867 C18.3885793,15.4283226 18.9736606,14.3058953 19.2052173,13.0403978 C19.2056934,13.0398364 19.2062489,13.0391948 19.2068044,13.0387136 C19.3583716,13.0477758 19.5113673,13.0365483 19.6626171,13.0052718 C20.4804454,12.8360576 21.0740971,12.0687395 21.0740971,11.1807259 L21.0740971,10.7201586 C21.0740971,10.1996045 20.862379,9.72251671 20.5189324,9.38464972 C21.0770332,6.3475359 20.6264579,3.87380103 19.2102166,2.22103562 C17.8448417,0.627615468 15.6435456,-0.133447356 12.8440747,0.01916619 C10.2368005,0.161594807 8.56226016,1.3819418 8.04843925,1.81219492 C7.3253603,1.90714733 5.26317279,2.43379639 5.26317279,5.3479693 C5.26317279,6.96159891 5.52258291,8.30360369 5.70478103,9.0475045 C5.09113205,9.33741411 4.67840887,9.98467839 4.67840887,10.7269753 L4.67840887,11.1806457 C4.67840887,12.0686593 5.27198114,12.8359774 6.08996817,13.0051916 C6.2410593,13.0364681 6.39429299,13.0476956 6.54570153,13.0386334 C6.54625702,13.0391948 6.5468125,13.0398364 6.54728863,13.0403978 C6.7788453,14.3058151 7.36392663,15.4282424 8.18738912,16.3124065 L8.18738912,17.7493637 C8.03812315,17.7520102 7.8900475,17.8107139 7.77688787,17.9250738 L6.03695931,19.6834577 L2.62717229,21.0126311 C0.987389216,21.6517955 -0.0669951105,23.2736052 0.0033130489,25.0483492 L0.487614061,37.2685801 C0.500469503,37.5923326 0.764164778,37.8459935 1.08190052,37.8459935 C1.08999469,37.8459935 1.09808886,37.8458331 1.10618302,37.8455123 C1.43463164,37.8321997 1.69015339,37.5523948 1.67705989,37.2204624 L1.19275887,25.0003918 C1.17990343,24.6755968 1.22045362,24.3580997 1.30718818,24.0577645 L3.2404245,26.0115066 C3.79074852,26.5676679 4.09380367,27.307158 4.09380367,28.093643 L4.09380367,37.2446816 C4.09380367,37.5768547 4.36027636,37.8461538 4.68896303,37.8461538 C5.01764971,37.8461538 5.2841224,37.5768547 5.2841224,37.2446816 L5.2841224,28.093643 C5.2841224,26.9858114 4.8572741,25.9442219 4.08205919,25.1608646 L1.9006811,22.9563486 C2.20635495,22.5990742 2.59876335,22.3132546 3.05560768,22.1351386 L6.23701221,20.8949831 L8.66573854,24.5766346 C8.96014404,25.0230071 9.43198638,25.3093079 9.96024983,25.3621573 C10.0190516,25.3680116 10.0776946,25.3708986 10.1360996,25.3708986 C10.4607392,25.3708986 10.7749833,25.2790739 11.049074,25.1105013 L10.5274764,37.2184575 C10.5131926,37.5503097 10.7677621,37.8310769 11.0962107,37.8455123 C11.105019,37.8459133 11.1138274,37.8460736 11.1225564,37.8460736 C11.4393399,37.8460736 11.7027971,37.5937761 11.7166841,37.2707454 L12.2003503,26.0441465 L13.5527905,26.0441465 L14.0364566,37.2707454 C14.0503437,37.5936959 14.3138009,37.8460736 14.6305844,37.8460736 C14.6393134,37.8460736 14.6481217,37.8459133 14.6569301,37.8455123 C14.9852994,37.8310769 15.2399482,37.5503097 15.2256644,37.2184575 L14.7040667,25.1105013 C14.9781574,25.2790739 15.2923222,25.3708986 15.6169618,25.3708986 C15.6752874,25.3708986 15.7340098,25.3680116 15.7927322,25.3621573 C16.3205195,25.3094683 16.7923619,25.0230873 17.0868467,24.5767148 L19.5155731,20.8950633 L22.318615,21.9877378 C22.3890818,22.0151649 22.4614532,22.0281567 22.5327136,22.0281567 C22.7715709,22.0281567 22.9970173,21.8817183 23.0881163,21.6429739 C23.2065134,21.3330153 23.0537558,20.9848832 22.7471297,20.8652303 Z M7.71649903,12.8151264 C7.60889422,12.2235183 7.0664263,11.7943879 6.48229722,11.8373732 C6.43214513,11.840982 6.38040594,11.8374534 6.3285874,11.8267872 C6.06639986,11.7725746 5.8687276,11.4947746 5.8687276,11.1807259 L5.8687276,10.7270555 C5.8687276,10.4197433 6.07338306,10.1427453 6.33461835,10.0963918 C6.55450989,10.0574164 6.7650376,10.1390563 6.898512,10.3149267 C7.00937036,10.4609642 7.15712859,10.5653797 7.3262332,10.6170262 C7.57326401,10.6923305 7.84592636,10.6481423 8.05550181,10.4985762 C8.53924734,10.1534916 8.94927246,9.71578022 9.27407076,9.19771216 C9.44999987,8.91710533 9.36755046,8.54547571 9.08996813,8.36768053 C8.81214774,8.18972495 8.44457732,8.27320929 8.26864821,8.55373593 C8.08343462,8.84909888 7.86187663,9.10861408 7.6077039,9.32811134 C7.40519101,9.14783007 7.16585759,9.01879423 6.90874875,8.94766012 C6.74932539,8.34097516 6.45349151,6.99359724 6.45349151,5.3478891 C6.45349151,4.36829138 6.75392796,3.67940522 7.34654797,3.30063812 C7.80783616,3.00567616 8.29491458,2.99436848 8.29507329,2.99428828 C8.44727538,2.99428828 8.59535102,2.93374008 8.70589196,2.82804137 C8.72112804,2.81336544 10.2645746,1.3646996 12.9082725,1.22034627 C15.3268415,1.08794219 17.194769,1.7065764 18.3102563,3.00840283 C19.4402656,4.32723087 19.8126766,6.35355062 19.3967793,8.88863565 C19.217914,8.88021504 19.0196069,8.89336723 18.8224108,8.92833281 L18.2259818,7.48070952 C18.1117905,7.20355113 17.8127031,7.05398504 17.5254395,7.13017152 C17.467352,7.14556921 11.6827997,8.63714007 9.24375731,5.5685893 C9.03799088,5.30963547 8.6633579,5.26825418 8.4070426,5.47636356 C8.15080666,5.68439275 8.10985969,6.06291925 8.31578483,6.32195328 C10.7898226,9.43477241 15.7166312,8.73690426 17.3193557,8.40986378 L17.7829451,9.53501777 C17.9725232,9.99502371 18.4573797,10.2462787 18.9356498,10.1324 C19.1231647,10.0877306 19.3271853,10.0796308 19.4162211,10.0975146 C19.6826938,10.1510857 19.8836196,10.4187007 19.8836196,10.7200784 L19.8836196,11.1806457 C19.8836196,11.4947746 19.685868,11.7724944 19.4238392,11.8267071 C19.3718619,11.8374534 19.3202814,11.840982 19.27005,11.837293 C18.686159,11.7941474 18.1433736,12.2234381 18.0359275,12.8151264 C17.5785277,15.3315257 15.4085767,17.157916 12.8762133,17.157916 C10.3437705,17.157916 8.17381949,15.3315257 7.71649903,12.8151264 Z M10.5401731,23.9979381 C10.4178877,24.1214404 10.2491005,24.1824698 10.0772185,24.1651474 C9.9052571,24.1479854 9.75170599,24.0547973 9.65584565,23.9094816 L7.20902648,20.2002426 L8.22476513,19.1737301 L12.0055348,22.5169532 L10.5401731,23.9979381 Z M12.2517721,24.8412823 L12.2910526,23.9296109 L12.8761339,23.3382434 L13.4612946,23.9296109 L13.5005751,24.8412823 L12.2517721,24.8412823 Z M12.8761339,21.6884452 L9.37754914,18.5947128 L9.37754914,17.3158225 C10.3910659,17.9795271 11.595589,18.3609406 12.8761339,18.3609406 C14.1566788,18.3609406 15.361202,17.9795271 16.3746394,17.3158225 L16.3746394,18.5947128 L12.8761339,21.6884452 Z M16.0965809,23.9094014 C16.0006412,24.0547973 15.8470901,24.1479854 15.6751287,24.1651474 C15.574031,24.1754927 15.3796123,24.1669117 15.2123328,23.9979381 L13.7469711,22.5169532 L17.5276614,19.1737301 L18.5434001,20.2002426 L16.0965809,23.9094014 Z" id="Shape"></path>
                    <path d="M36.7947936,27.9335481 C36.7947936,26.5111735 35.6883602,25.3540428 34.3283041,25.3540428 L30.5276367,25.3540428 L30.5276367,24.0010044 C30.5276367,22.9400288 29.702268,22.0769231 28.687855,22.0769231 L24.9274514,22.0769231 C23.9129602,22.0769231 23.0876698,22.9401105 23.0876698,24.0010044 L23.0876698,25.3540428 L19.2870023,25.3540428 C17.9269462,25.3540428 16.8205128,26.5111735 16.8205128,27.9335481 L16.8205128,29.7541974 C16.8205128,30.4254019 17.0366082,31.0699512 17.4472207,31.6660141 L17.4472207,38.4871327 C17.4472207,39.8727133 18.5251176,41 19.8499918,41 L33.7653928,41 C35.090267,41 36.1681639,39.8727133 36.1681639,38.4871327 L36.1681639,31.6660141 C36.5787764,31.0698694 36.7948718,30.4253201 36.7948718,29.7541156 L36.7947936,27.9335481 Z M24.2603234,24.0009227 C24.2604016,23.6162209 24.5596827,23.3033083 24.9274514,23.3033083 L28.6877768,23.3033083 C29.0556237,23.3033083 29.3548267,23.6163026 29.3548267,24.0009227 L29.3548267,25.353961 L24.2603234,25.353961 L24.2603234,24.0009227 Z M35.6219836,29.7542792 C35.6219836,30.8069149 34.669569,31.8508018 33.03439,32.6305895 L33.03439,32.5216792 C33.03439,32.1830108 32.7718544,31.9084457 32.4480241,31.9084457 L29.9411926,31.9084457 C29.6173623,31.9084457 29.3548267,32.1830108 29.3548267,32.5216792 L29.3548267,34.487951 C29.3548267,35.5489267 30.1801953,36.4120324 31.1946083,36.4120324 C32.2090214,36.4120324 33.03439,35.548845 33.03439,34.487951 L33.03439,33.9635138 C33.7957275,33.6449594 34.4530046,33.2742393 34.9952758,32.8623917 L34.9952758,38.4872145 C34.9953539,39.1965212 34.4436227,39.773533 33.7653146,39.773533 L19.8499918,39.773533 C19.1717619,39.773533 18.6199525,39.1964395 18.6199525,38.4871327 L18.6199525,32.86231 C19.1622237,33.2741576 19.8194226,33.6448777 20.5808383,33.9635138 L20.5808383,34.487951 C20.5808383,35.5489267 21.4062069,36.4120324 22.4206199,36.4120324 C23.2919596,36.4120324 24.0232752,35.7750055 24.2123977,34.9230198 C25.054341,35.0406788 25.9241953,35.1011845 26.8076532,35.1011845 C27.0218722,35.1011845 27.238984,35.0975869 27.4528903,35.0904734 C27.7765642,35.0797622 28.0306561,34.7966119 28.0203361,34.458107 C28.0100942,34.1196021 27.741695,33.8529682 27.4156756,33.8646605 C27.2140439,33.8713652 27.0095195,33.8747176 26.807575,33.8747176 C25.938268,33.8747176 25.083972,33.8128219 24.2603234,33.6922193 L24.2603234,32.5216792 C24.2603234,32.1830108 23.9977878,31.9084457 23.6739575,31.9084457 L21.167126,31.9084457 C20.8432956,31.9084457 20.5807601,32.1830108 20.5807601,32.5216792 L20.5807601,32.6305895 C18.945581,31.8508018 17.9931664,30.8068331 17.9931664,29.7542792 L17.9931664,27.9336299 C17.9931664,27.1875291 18.5735123,26.5805915 19.2869242,26.5805915 L34.3282259,26.5805915 C35.0416377,26.5805915 35.6219836,27.1875291 35.6219836,27.9336299 L35.6219836,29.7542792 Z M31.8618146,33.1348309 L31.8618146,34.4878693 C31.8618146,34.8725711 31.5625334,35.1854837 31.1947647,35.1854837 C30.826996,35.1854837 30.5277149,34.8724893 30.5277149,34.4878693 L30.5277149,33.1348309 L31.8618146,33.1348309 Z M21.7534919,34.4878693 L21.7534919,33.1348309 L23.0875916,33.1348309 L23.0875916,34.4878693 C23.0875916,34.8725711 22.7883104,35.1854837 22.4205417,35.1854837 C22.052773,35.1854837 21.7534919,34.8725711 21.7534919,34.4878693 Z" id="Shape"></path>
                </g>
            </g>
        </g>
    </g>
</svg>