<?xml version="1.0" encoding="UTF-8"?>
<svg width="80px" height="80px" viewBox="0 0 80 80" version="1.1" xmlns="http://www.w3.org/2000/svg" xmlns:xlink="http://www.w3.org/1999/xlink">
    <!-- Generator: Sketch 41 (35326) - http://www.bohemiancoding.com/sketch -->
    <title>dollar-symbol-1</title>
    <desc>Created with Sketch.</desc>
    <defs></defs>
    <g id="Page-1" stroke="none" stroke-width="1" fill="none" fill-rule="evenodd">
        <g id="dollar-symbol-1">
            <g id="Layer_1">
                <g id="Group">
                    <circle id="XMLID_1909_" fill="#A7A9AC" cx="39.9672802" cy="72.6707566" r="5.77505112"></circle>
                    <ellipse id="XMLID_1907_" fill="#A7A9AC" cx="39.9672802" cy="7.26380368" rx="5.77505112" ry="5.77505112"></ellipse>
                    <circle id="XMLID_1905_" fill="#A7A9AC" cx="72.6707566" cy="39.9672802" r="5.77505112"></circle>
                    <ellipse id="XMLID_1903_" fill="#A7A9AC" cx="7.26380368" cy="39.9672802" rx="5.77505112" ry="5.77505112"></ellipse>
                    <path d="M39.9672802,56.7361963 C39.1492843,56.7361963 38.4785276,57.406953 38.4785276,58.2249489 L38.4785276,65.5541922 C35.190184,66.2413088 32.7034765,69.1697342 32.7034765,72.6707566 C32.7034765,76.6789366 35.9591002,79.9345603 39.9672802,79.9345603 C43.9754601,79.9345603 47.2310838,76.6789366 47.2310838,72.6707566 C47.2310838,69.1697342 44.7443763,66.2413088 41.4560327,65.5541922 L41.4560327,58.2249489 C41.4560327,57.406953 40.7852761,56.7361963 39.9672802,56.7361963 Z M44.2699387,72.6707566 C44.2699387,75.0429448 42.3394683,76.9734151 39.9672802,76.9734151 C37.595092,76.9734151 35.6646217,75.0429448 35.6646217,72.6707566 C35.6646217,70.2985685 37.595092,68.3680982 39.9672802,68.3680982 C42.3394683,68.3680982 44.2699387,70.2985685 44.2699387,72.6707566 Z" id="Shape" fill="#000000"></path>
                    <path d="M57.0143149,59.1083845 C56.2453988,60.2862986 55.8200409,61.6441718 55.8200409,63.0838446 C55.8200409,65.0306748 56.5725971,66.8466258 57.9468303,68.2208589 C59.3210634,69.595092 61.1370143,70.3476483 63.0838446,70.3476483 C65.0306748,70.3476483 66.8466258,69.595092 68.2208589,68.2208589 C69.595092,66.8466258 70.3476483,65.0306748 70.3476483,63.0838446 C70.3476483,61.1370143 69.595092,59.3210634 68.2208589,57.9468303 C66.8466258,56.5725971 65.0306748,55.8200409 63.0838446,55.8200409 C61.6441718,55.8200409 60.2699387,56.2290389 59.1083845,57.0143149 L53.9222904,51.8282209 C53.3496933,51.2556237 52.400818,51.2556237 51.8282209,51.8282209 C51.2556237,52.400818 51.2556237,53.3496933 51.8282209,53.9222904 L57.0143149,59.1083845 Z M66.1267894,60.0572597 C67.795501,61.7259714 67.795501,64.4580777 66.1267894,66.1431493 C65.3087935,66.9611452 64.2290389,67.402863 63.0838446,67.402863 C61.9386503,67.402863 60.8588957,66.9611452 60.0408998,66.1431493 C58.3721881,64.4744376 58.3721881,61.7423313 60.0408998,60.0736196 L60.0408998,60.0736196 L60.0408998,60.0736196 C60.8588957,59.2556237 61.9386503,58.8139059 63.0838446,58.8139059 C64.2453988,58.797546 65.3251534,59.2392638 66.1267894,60.0572597 Z" id="Shape" fill="#000000"></path>
                    <path d="M51.8282209,28.1063395 C52.1226994,28.400818 52.4989775,28.5480573 52.8752556,28.5480573 C53.2515337,28.5480573 53.6278119,28.400818 53.9222904,28.1063395 L59.1083845,22.9202454 C60.2862986,23.6891616 61.6441718,24.1145194 63.0838446,24.1145194 C65.0306748,24.1145194 66.8466258,23.3619632 68.2208589,21.9877301 C69.595092,20.6134969 70.3476483,18.797546 70.3476483,16.8507157 C70.3476483,14.9038855 69.595092,13.0879346 68.2208589,11.7137014 C66.8466258,10.3394683 65.0306748,9.58691207 63.0838446,9.58691207 C61.1370143,9.58691207 59.3210634,10.3394683 57.9468303,11.7137014 C56.5725971,13.0879346 55.8200409,14.9038855 55.8200409,16.8507157 C55.8200409,18.2903885 56.2290389,19.6646217 57.0143149,20.8261759 L51.8282209,26.0122699 C51.2556237,26.5848671 51.2556237,27.5337423 51.8282209,28.1063395 Z M60.0572597,13.807771 C60.8752556,12.9897751 61.9550102,12.5480573 63.1002045,12.5480573 C64.2453988,12.5480573 65.3251534,12.9897751 66.1431493,13.807771 C67.8118609,15.4764826 67.8118609,18.208589 66.1431493,19.8936605 C65.3251534,20.7116564 64.2453988,21.1533742 63.1002045,21.1533742 C61.9550102,21.1533742 60.8752556,20.7116564 60.0572597,19.8936605 L60.0572597,19.8936605 L60.0572597,19.8936605 C58.3721881,18.208589 58.3721881,15.4764826 60.0572597,13.807771 Z" id="Shape" fill="#000000"></path>
                    <path d="M28.1063395,51.8282209 C27.5337423,51.2556237 26.5848671,51.2556237 26.0122699,51.8282209 L20.8261759,57.0143149 C19.6482618,56.2453988 18.2903885,55.8200409 16.8507157,55.8200409 C14.9038855,55.8200409 13.0879346,56.5725971 11.7137014,57.9468303 C10.3394683,59.3210634 9.58691207,61.1370143 9.58691207,63.0838446 C9.58691207,65.0306748 10.3394683,66.8466258 11.7137014,68.2208589 C13.0879346,69.595092 14.9038855,70.3476483 16.8507157,70.3476483 C18.797546,70.3476483 20.6134969,69.595092 21.9877301,68.2208589 C23.3619632,66.8466258 24.1145194,65.0306748 24.1145194,63.0838446 C24.1145194,61.6441718 23.7055215,60.2699387 22.9202454,59.1083845 L28.1063395,53.9222904 C28.6789366,53.3496933 28.6789366,52.400818 28.1063395,51.8282209 Z M19.8773006,66.1267894 C19.0593047,66.9447853 17.9795501,67.3865031 16.8343558,67.3865031 C15.6891616,67.3865031 14.609407,66.9447853 13.791411,66.1267894 C12.1226994,64.4580777 12.1226994,61.7259714 13.791411,60.0408998 C14.609407,59.2229039 15.6891616,58.7811861 16.8343558,58.7811861 C17.9795501,58.7811861 19.0593047,59.2229039 19.8773006,60.0408998 L19.8773006,60.0408998 L19.8773006,60.0408998 C21.5623722,61.7259714 21.5623722,64.4580777 19.8773006,66.1267894 Z" id="Shape" fill="#000000"></path>
                    <path d="M41.8486708,38.4458078 L38.0858896,38.4458078 C36.6298569,38.4458078 35.4519427,37.2678937 35.4519427,35.8118609 C35.4519427,34.3558282 36.6298569,33.1779141 38.0858896,33.1779141 L44.7116564,33.1779141 C45.5296524,33.1779141 46.200409,32.5071575 46.200409,31.6891616 C46.200409,30.8711656 45.5296524,30.200409 44.7116564,30.200409 L41.4396728,30.200409 L41.4396728,27.7464213 C41.4396728,26.9284254 40.7689162,26.2576687 39.9509202,26.2576687 C39.1329243,26.2576687 38.4621677,26.9284254 38.4621677,27.7464213 L38.4621677,30.200409 L38.0695297,30.200409 C34.9775051,30.200409 32.4580777,32.7198364 32.4580777,35.8118609 C32.4580777,38.9038855 34.9775051,41.4233129 38.0695297,41.4233129 L41.8323108,41.4233129 C43.2883436,41.4233129 44.4662577,42.601227 44.4662577,44.0572597 C44.4662577,45.5132924 43.2883436,46.6912065 41.8323108,46.6912065 L35.0756646,46.6912065 C34.2576687,46.6912065 33.5869121,47.3619632 33.5869121,48.1799591 C33.5869121,48.997955 34.2576687,49.6687117 35.0756646,49.6687117 L38.4621677,49.6687117 L38.4621677,52.1717791 C38.4621677,52.9897751 39.1329243,53.6605317 39.9509202,53.6605317 C40.7689162,53.6605317 41.4396728,52.9897751 41.4396728,52.1717791 L41.4396728,49.6687117 L41.8323108,49.6687117 C44.9243354,49.6687117 47.4437628,47.1492843 47.4437628,44.0572597 C47.4437628,40.9652352 44.9406953,38.4458078 41.8486708,38.4458078 Z" id="Shape" fill="#000000"></path>
                    <path d="M32.7034765,7.26380368 C32.7034765,10.7648262 35.190184,13.6932515 38.4785276,14.3803681 L38.4785276,21.7096115 C38.4785276,22.5276074 39.1492843,23.198364 39.9672802,23.198364 C40.7852761,23.198364 41.4560327,22.5276074 41.4560327,21.7096115 L41.4560327,14.3803681 C44.7443763,13.6932515 47.2310838,10.7648262 47.2310838,7.26380368 C47.2310838,3.25562372 43.9754601,1.1624421e-15 39.9672802,1.1624421e-15 C35.9591002,1.1624421e-15 32.7034765,3.25562372 32.7034765,7.26380368 Z M44.2699387,7.26380368 C44.2699387,9.63599182 42.3394683,11.5664622 39.9672802,11.5664622 C37.595092,11.5664622 35.6646217,9.63599182 35.6646217,7.26380368 C35.6646217,4.89161554 37.595092,2.96114519 39.9672802,2.96114519 C42.3394683,2.96114519 44.2699387,4.89161554 44.2699387,7.26380368 Z" id="Shape" fill="#000000"></path>
                    <path d="M65.5541922,38.4785276 L58.2249489,38.4785276 C57.406953,38.4785276 56.7361963,39.1492843 56.7361963,39.9672802 C56.7361963,40.7852761 57.406953,41.4560327 58.2249489,41.4560327 L65.5541922,41.4560327 C66.2413088,44.7443763 69.1697342,47.2310838 72.6707566,47.2310838 C76.6789366,47.2310838 79.9345603,43.9754601 79.9345603,39.9672802 C79.9345603,35.9591002 76.6789366,32.7034765 72.6707566,32.7034765 C69.1697342,32.7034765 66.2413088,35.190184 65.5541922,38.4785276 Z M76.9734151,39.9672802 C76.9734151,42.3394683 75.0429448,44.2699387 72.6707566,44.2699387 C70.2985685,44.2699387 68.3680982,42.3394683 68.3680982,39.9672802 L68.3680982,39.9672802 L68.3680982,39.9672802 C68.3680982,37.595092 70.2985685,35.6646217 72.6707566,35.6646217 C75.0429448,35.6646217 76.9734151,37.595092 76.9734151,39.9672802 Z" id="Shape" fill="#000000"></path>
                    <path d="M7.26380368,47.2310838 C10.7648262,47.2310838 13.6932515,44.7443763 14.3803681,41.4560327 L21.7096115,41.4560327 C22.5276074,41.4560327 23.198364,40.7852761 23.198364,39.9672802 C23.198364,39.1492843 22.5276074,38.4785276 21.7096115,38.4785276 L14.3803681,38.4785276 C13.6932515,35.190184 10.7648262,32.7034765 7.26380368,32.7034765 C3.25562372,32.7034765 0,35.9591002 0,39.9672802 C0,43.9754601 3.25562372,47.2310838 7.26380368,47.2310838 Z M7.26380368,35.6646217 C9.63599182,35.6646217 11.5664622,37.595092 11.5664622,39.9672802 L11.5664622,39.9672802 L11.5664622,39.9672802 C11.5664622,42.3394683 9.63599182,44.2699387 7.26380368,44.2699387 C4.89161554,44.2699387 2.96114519,42.3394683 2.96114519,39.9672802 C2.96114519,37.595092 4.89161554,35.6646217 7.26380368,35.6646217 Z" id="Shape" fill="#000000"></path>
                    <path d="M21.9713701,11.6973415 C20.597137,10.3231084 18.7811861,9.57055215 16.8343558,9.57055215 C14.8875256,9.57055215 13.0715746,10.3231084 11.6973415,11.6973415 C10.3231084,13.0715746 9.57055215,14.8875256 9.57055215,16.8343558 C9.57055215,18.7811861 10.3231084,20.597137 11.6973415,21.9713701 C13.0715746,23.3456033 14.8875256,24.0981595 16.8343558,24.0981595 C18.2740286,24.0981595 19.6482618,23.6891616 20.809816,22.9038855 L25.99591,28.0899796 C26.2903885,28.3844581 26.6666667,28.5316973 27.0429448,28.5316973 C27.4192229,28.5316973 27.795501,28.3844581 28.0899796,28.0899796 C28.6625767,27.5173824 28.6625767,26.5685072 28.0899796,25.99591 L22.9202454,20.8261759 C23.6891616,19.6482618 24.1145194,18.2903885 24.1145194,16.8507157 C24.0981595,14.9038855 23.3456033,13.0715746 21.9713701,11.6973415 Z M13.807771,19.8773006 C12.1390593,18.208589 12.1390593,15.4764826 13.807771,13.791411 C14.6257669,12.9734151 15.7055215,12.5316973 16.8507157,12.5316973 C17.99591,12.5316973 19.0756646,12.9734151 19.8936605,13.791411 C21.5623722,15.4601227 21.5623722,18.192229 19.8936605,19.8609407 L19.8936605,19.8609407 L19.8936605,19.8609407 C19.0756646,20.6789366 17.99591,21.1206544 16.8507157,21.1206544 C15.6891616,21.1370143 14.609407,20.6952965 13.807771,19.8773006 Z" id="Shape" fill="#000000"></path>
                </g>
            </g>
        </g>
    </g>
</svg>