<?xml version="1.0" encoding="UTF-8"?>
<svg width="200px" height="200px" viewBox="0 0 200 200" version="1.1" xmlns="http://www.w3.org/2000/svg" xmlns:xlink="http://www.w3.org/1999/xlink">
    <!-- Generator: Sketch 48.2 (47327) - http://www.bohemiancoding.com/sketch -->
    <title>check-offers-icon2</title>
    <desc>Created with Sketch.</desc>
    <defs></defs>
    <g id="Page-1" stroke="none" stroke-width="1" fill="none" fill-rule="evenodd">
        <g id="check-offers-icon2" fill-rule="nonzero">
            <circle id="Oval" fill="#00AAFF" cx="100" cy="100" r="100"></circle>
            <g id="dollar-symbol-1" transform="translate(37.500000, 37.500000)">
                <g id="Layer_1">
                    <g id="Group">
                        <circle id="XMLID_1909_" cx="62.4488753" cy="113.548057" r="9.02351738"></circle>
                        <circle id="XMLID_1907_" cx="62.4488753" cy="11.3496933" r="9.02351738"></circle>
                        <circle id="XMLID_1905_" cx="113.548057" cy="62.4488753" r="9.02351738"></circle>
                        <circle id="XMLID_1903_" cx="11.3496933" cy="62.4488753" r="9.02351738"></circle>
                        <path d="M62.4488753,88.6503067 C61.1707566,88.6503067 60.1226994,89.698364 60.1226994,90.9764826 L60.1226994,102.428425 C54.9846626,103.502045 51.099182,108.07771 51.099182,113.548057 C51.099182,119.810838 56.1860941,124.897751 62.4488753,124.897751 C68.7116564,124.897751 73.7985685,119.810838 73.7985685,113.548057 C73.7985685,108.07771 69.9130879,103.502045 64.7750511,102.428425 L64.7750511,90.9764826 C64.7750511,89.698364 63.7269939,88.6503067 62.4488753,88.6503067 Z M69.1717791,113.548057 C69.1717791,117.254601 66.1554192,120.270961 62.4488753,120.270961 C58.7423313,120.270961 55.7259714,117.254601 55.7259714,113.548057 C55.7259714,109.841513 58.7423313,106.825153 62.4488753,106.825153 C66.1554192,106.825153 69.1717791,109.841513 69.1717791,113.548057 Z" id="Shape" fill="#FFFFFF"></path>
                        <path d="M89.0848671,92.3568507 C87.8834356,94.1973415 87.2188139,96.3190184 87.2188139,98.5685072 C87.2188139,101.610429 88.394683,104.447853 90.5419223,106.595092 C92.6891616,108.742331 95.5265849,109.9182 98.5685072,109.9182 C101.610429,109.9182 104.447853,108.742331 106.595092,106.595092 C108.742331,104.447853 109.9182,101.610429 109.9182,98.5685072 C109.9182,95.5265849 108.742331,92.6891616 106.595092,90.5419223 C104.447853,88.394683 101.610429,87.2188139 98.5685072,87.2188139 C96.3190184,87.2188139 94.1717791,87.8578732 92.3568507,89.0848671 L84.2535787,80.9815951 C83.3588957,80.0869121 81.8762781,80.0869121 80.9815951,80.9815951 C80.0869121,81.8762781 80.0869121,83.3588957 80.9815951,84.2535787 L89.0848671,92.3568507 Z M103.323108,93.8394683 C105.93047,96.4468303 105.93047,100.715746 103.323108,103.348671 C102.04499,104.626789 100.357873,105.316973 98.5685072,105.316973 C96.7791411,105.316973 95.0920245,104.626789 93.8139059,103.348671 C91.206544,100.741309 91.206544,96.4723926 93.8139059,93.8650307 C95.0920245,92.5869121 96.7791411,91.896728 98.5685072,91.896728 C100.383436,91.8711656 102.070552,92.5613497 103.323108,93.8394683 Z" id="Shape" fill="#FFFFFF"></path>
                        <path d="M80.9815951,43.9161554 C81.4417178,44.3762781 82.0296524,44.6063395 82.6175869,44.6063395 C83.2055215,44.6063395 83.793456,44.3762781 84.2535787,43.9161554 L92.3568507,35.8128834 C94.1973415,37.0143149 96.3190184,37.6789366 98.5685072,37.6789366 C101.610429,37.6789366 104.447853,36.5030675 106.595092,34.3558282 C108.742331,32.208589 109.9182,29.3711656 109.9182,26.3292434 C109.9182,23.2873211 108.742331,20.4498978 106.595092,18.3026585 C104.447853,16.1554192 101.610429,14.9795501 98.5685072,14.9795501 C95.5265849,14.9795501 92.6891616,16.1554192 90.5419223,18.3026585 C88.394683,20.4498978 87.2188139,23.2873211 87.2188139,26.3292434 C87.2188139,28.5787321 87.8578732,30.7259714 89.0848671,32.5408998 L80.9815951,40.6441718 C80.0869121,41.5388548 80.0869121,43.0214724 80.9815951,43.9161554 Z M93.8394683,21.5746421 C95.1175869,20.2965235 96.8047035,19.6063395 98.5940695,19.6063395 C100.383436,19.6063395 102.070552,20.2965235 103.348671,21.5746421 C105.956033,24.1820041 105.956033,28.4509202 103.348671,31.0838446 C102.070552,32.3619632 100.383436,33.0521472 98.5940695,33.0521472 C96.8047035,33.0521472 95.1175869,32.3619632 93.8394683,31.0838446 C91.206544,28.4509202 91.206544,24.1820041 93.8394683,21.5746421 Z" id="Shape" fill="#FFFFFF"></path>
                        <path d="M43.9161554,80.9815951 C43.0214724,80.0869121 41.5388548,80.0869121 40.6441718,80.9815951 L32.5408998,89.0848671 C30.700409,87.8834356 28.5787321,87.2188139 26.3292434,87.2188139 C23.2873211,87.2188139 20.4498978,88.394683 18.3026585,90.5419223 C16.1554192,92.6891616 14.9795501,95.5265849 14.9795501,98.5685072 C14.9795501,101.610429 16.1554192,104.447853 18.3026585,106.595092 C20.4498978,108.742331 23.2873211,109.9182 26.3292434,109.9182 C29.3711656,109.9182 32.208589,108.742331 34.3558282,106.595092 C36.5030675,104.447853 37.6789366,101.610429 37.6789366,98.5685072 C37.6789366,96.3190184 37.0398773,94.1717791 35.8128834,92.3568507 L43.9161554,84.2535787 C44.8108384,83.3588957 44.8108384,81.8762781 43.9161554,80.9815951 Z M31.0582822,103.323108 C29.7801636,104.601227 28.093047,105.291411 26.303681,105.291411 C24.5143149,105.291411 22.8271984,104.601227 21.5490798,103.323108 C18.9417178,100.715746 18.9417178,96.4468303 21.5490798,93.8139059 C22.8271984,92.5357873 24.5143149,91.8456033 26.303681,91.8456033 C28.093047,91.8456033 29.7801636,92.5357873 31.0582822,93.8139059 C33.6912065,96.4468303 33.6912065,100.715746 31.0582822,103.323108 Z" id="Shape" fill="#FFFFFF"></path>
                        <path d="M65.3885481,60.0715746 L59.5092025,60.0715746 C57.2341513,60.0715746 55.3936605,58.2310838 55.3936605,55.9560327 C55.3936605,53.6809816 57.2341513,51.8404908 59.5092025,51.8404908 L69.8619632,51.8404908 C71.1400818,51.8404908 72.1881391,50.7924335 72.1881391,49.5143149 C72.1881391,48.2361963 71.1400818,47.1881391 69.8619632,47.1881391 L64.7494888,47.1881391 L64.7494888,43.3537832 C64.7494888,42.0756646 63.7014315,41.0276074 62.4233129,41.0276074 C61.1451943,41.0276074 60.097137,42.0756646 60.097137,43.3537832 L60.097137,47.1881391 L59.4836401,47.1881391 C54.6523517,47.1881391 50.7157464,51.1247444 50.7157464,55.9560327 C50.7157464,60.7873211 54.6523517,64.7239264 59.4836401,64.7239264 L65.3629857,64.7239264 C67.6380368,64.7239264 69.4785276,66.5644172 69.4785276,68.8394683 C69.4785276,71.1145194 67.6380368,72.9550102 65.3629857,72.9550102 L54.805726,72.9550102 C53.5276074,72.9550102 52.4795501,74.0030675 52.4795501,75.2811861 C52.4795501,76.5593047 53.5276074,77.607362 54.805726,77.607362 L60.097137,77.607362 L60.097137,81.5184049 C60.097137,82.7965235 61.1451943,83.8445808 62.4233129,83.8445808 C63.7014315,83.8445808 64.7494888,82.7965235 64.7494888,81.5184049 L64.7494888,77.607362 L65.3629857,77.607362 C70.194274,77.607362 74.1308793,73.6707566 74.1308793,68.8394683 C74.1308793,64.00818 70.2198364,60.0715746 65.3885481,60.0715746 Z" id="Shape" fill="#FFFFFF"></path>
                        <path d="M51.099182,11.3496933 C51.099182,16.8200409 54.9846626,21.3957055 60.1226994,22.4693252 L60.1226994,33.9212679 C60.1226994,35.1993865 61.1707566,36.2474438 62.4488753,36.2474438 C63.7269939,36.2474438 64.7750511,35.1993865 64.7750511,33.9212679 L64.7750511,22.4693252 C69.9130879,21.3957055 73.7985685,16.8200409 73.7985685,11.3496933 C73.7985685,5.08691207 68.7116564,0 62.4488753,0 C56.1860941,0 51.099182,5.08691207 51.099182,11.3496933 Z M69.1717791,11.3496933 C69.1717791,15.0562372 66.1554192,18.0725971 62.4488753,18.0725971 C58.7423313,18.0725971 55.7259714,15.0562372 55.7259714,11.3496933 C55.7259714,7.64314928 58.7423313,4.62678937 62.4488753,4.62678937 C66.1554192,4.62678937 69.1717791,7.64314928 69.1717791,11.3496933 Z" id="Shape" fill="#FFFFFF"></path>
                        <path d="M102.428425,60.1226994 L90.9764826,60.1226994 C89.698364,60.1226994 88.6503067,61.1707566 88.6503067,62.4488753 C88.6503067,63.7269939 89.698364,64.7750511 90.9764826,64.7750511 L102.428425,64.7750511 C103.502045,69.9130879 108.07771,73.7985685 113.548057,73.7985685 C119.810838,73.7985685 124.897751,68.7116564 124.897751,62.4488753 C124.897751,56.1860941 119.810838,51.099182 113.548057,51.099182 C108.07771,51.099182 103.502045,54.9846626 102.428425,60.1226994 Z M120.270961,62.4488753 C120.270961,66.1554192 117.254601,69.1717791 113.548057,69.1717791 C109.841513,69.1717791 106.825153,66.1554192 106.825153,62.4488753 C106.825153,58.7423313 109.841513,55.7259714 113.548057,55.7259714 C117.254601,55.7259714 120.270961,58.7423313 120.270961,62.4488753 Z" id="Shape" fill="#FFFFFF"></path>
                        <path d="M11.3496933,73.7985685 C16.8200409,73.7985685 21.3957055,69.9130879 22.4693252,64.7750511 L33.9212679,64.7750511 C35.1993865,64.7750511 36.2474438,63.7269939 36.2474438,62.4488753 C36.2474438,61.1707566 35.1993865,60.1226994 33.9212679,60.1226994 L22.4693252,60.1226994 C21.3957055,54.9846626 16.8200409,51.099182 11.3496933,51.099182 C5.08691207,51.099182 0,56.1860941 0,62.4488753 C0,68.7116564 5.08691207,73.7985685 11.3496933,73.7985685 Z M11.3496933,55.7259714 C15.0562372,55.7259714 18.0725971,58.7423313 18.0725971,62.4488753 C18.0725971,66.1554192 15.0562372,69.1717791 11.3496933,69.1717791 C7.64314928,69.1717791 4.62678937,66.1554192 4.62678937,62.4488753 C4.62678937,58.7423313 7.64314928,55.7259714 11.3496933,55.7259714 Z" id="Shape" fill="#FFFFFF"></path>
                        <path d="M34.3302658,18.2770961 C32.1830266,16.1298569 29.3456033,14.9539877 26.303681,14.9539877 C23.2617587,14.9539877 20.4243354,16.1298569 18.2770961,18.2770961 C16.1298569,20.4243354 14.9539877,23.2617587 14.9539877,26.303681 C14.9539877,29.3456033 16.1298569,32.1830266 18.2770961,34.3302658 C20.4243354,36.4775051 23.2617587,37.6533742 26.303681,37.6533742 C28.5531697,37.6533742 30.700409,37.0143149 32.5153374,35.7873211 L40.6186094,43.890593 C41.0787321,44.3507157 41.6666667,44.5807771 42.2546012,44.5807771 C42.8425358,44.5807771 43.4304703,44.3507157 43.890593,43.890593 C44.7852761,42.99591 44.7852761,41.5132924 43.890593,40.6186094 L35.8128834,32.5408998 C37.0143149,30.700409 37.6789366,28.5787321 37.6789366,26.3292434 C37.6533742,23.2873211 36.4775051,20.4243354 34.3302658,18.2770961 Z M21.5746421,31.0582822 C18.9672802,28.4509202 18.9672802,24.1820041 21.5746421,21.5490798 C22.8527607,20.2709611 24.5398773,19.5807771 26.3292434,19.5807771 C28.1186094,19.5807771 29.805726,20.2709611 31.0838446,21.5490798 C33.6912065,24.1564417 33.6912065,28.4253579 31.0838446,31.0327198 C29.805726,32.3108384 28.1186094,33.0010225 26.3292434,33.0010225 C24.5143149,33.0265849 22.8271984,32.3364008 21.5746421,31.0582822 Z" id="Shape" fill="#FFFFFF"></path>
                    </g>
                </g>
            </g>
        </g>
    </g>
</svg>