<?xml version="1.0" encoding="UTF-8"?>
<svg width="77px" height="77px" viewBox="0 0 77 77" version="1.1" xmlns="http://www.w3.org/2000/svg" xmlns:xlink="http://www.w3.org/1999/xlink">
    <!-- Generator: Sketch 41 (35326) - http://www.bohemiancoding.com/sketch -->
    <title>dollar-symbol-1</title>
    <desc>Created with Sketch.</desc>
    <defs></defs>
    <g id="Page-1" stroke="none" stroke-width="1" fill="none" fill-rule="evenodd">
        <g id="dollar-symbol-1">
            <g id="Layer_1">
                <g id="Group">
                    <ellipse id="XMLID_1909_" fill="#FFFFFF" cx="38.4685072" cy="69.9456033" rx="5.55848671" ry="5.55848671"></ellipse>
                    <ellipse id="XMLID_1907_" fill="#FFFFFF" cx="38.4685072" cy="6.99141104" rx="5.55848671" ry="5.55848671"></ellipse>
                    <ellipse id="XMLID_1905_" fill="#FFFFFF" cx="69.9456033" cy="38.4685072" rx="5.55848671" ry="5.55848671"></ellipse>
                    <ellipse id="XMLID_1903_" fill="#FFFFFF" cx="6.99141104" cy="38.4685072" rx="5.55848671" ry="5.55848671"></ellipse>
                    <path d="M38.4685072,54.608589 C37.6811861,54.608589 37.0355828,55.2541922 37.0355828,56.0415133 L37.0355828,63.09591 C33.8705521,63.7572597 31.4770961,66.5758691 31.4770961,69.9456033 C31.4770961,73.8034765 34.6106339,76.9370143 38.4685072,76.9370143 C42.3263804,76.9370143 45.4599182,73.8034765 45.4599182,69.9456033 C45.4599182,66.5758691 43.0664622,63.7572597 39.9014315,63.09591 L39.9014315,56.0415133 C39.9014315,55.2541922 39.2558282,54.608589 38.4685072,54.608589 Z M42.609816,69.9456033 C42.609816,72.2288344 40.7517382,74.0869121 38.4685072,74.0869121 C36.1852761,74.0869121 34.3271984,72.2288344 34.3271984,69.9456033 C34.3271984,67.6623722 36.1852761,65.8042945 38.4685072,65.8042945 C40.7517382,65.8042945 42.609816,67.6623722 42.609816,69.9456033 Z" id="Shape" fill="#00AAFF"></path>
                    <path d="M54.8762781,56.89182 C54.1361963,58.0255624 53.7267894,59.3325153 53.7267894,60.7182004 C53.7267894,62.5920245 54.4511247,64.3398773 55.7738241,65.6625767 C57.0965235,66.9852761 58.8443763,67.7096115 60.7182004,67.7096115 C62.5920245,67.7096115 64.3398773,66.9852761 65.6625767,65.6625767 C66.9852761,64.3398773 67.7096115,62.5920245 67.7096115,60.7182004 C67.7096115,58.8443763 66.9852761,57.0965235 65.6625767,55.7738241 C64.3398773,54.4511247 62.5920245,53.7267894 60.7182004,53.7267894 C59.3325153,53.7267894 58.009816,54.1204499 56.89182,54.8762781 L51.9002045,49.8846626 C51.3490798,49.3335378 50.4357873,49.3335378 49.8846626,49.8846626 C49.3335378,50.4357873 49.3335378,51.3490798 49.8846626,51.9002045 L54.8762781,56.89182 Z M63.6470348,57.8051125 C65.2531697,59.4112474 65.2531697,62.0408998 63.6470348,63.6627812 C62.8597137,64.4501022 61.8204499,64.8752556 60.7182004,64.8752556 C59.6159509,64.8752556 58.5766871,64.4501022 57.7893661,63.6627812 C56.1832311,62.0566462 56.1832311,59.4269939 57.7893661,57.8208589 L57.7893661,57.8208589 L57.7893661,57.8208589 C58.5766871,57.0335378 59.6159509,56.6083845 60.7182004,56.6083845 C61.8361963,56.592638 62.8754601,57.0177914 63.6470348,57.8051125 Z" id="Shape" fill="#00AAFF"></path>
                    <path d="M49.8846626,27.0523517 C50.1680982,27.3357873 50.5302658,27.4775051 50.8924335,27.4775051 C51.2546012,27.4775051 51.6167689,27.3357873 51.9002045,27.0523517 L56.89182,22.0607362 C58.0255624,22.800818 59.3325153,23.2102249 60.7182004,23.2102249 C62.5920245,23.2102249 64.3398773,22.4858896 65.6625767,21.1631902 C66.9852761,19.8404908 67.7096115,18.092638 67.7096115,16.2188139 C67.7096115,14.3449898 66.9852761,12.597137 65.6625767,11.2744376 C64.3398773,9.95173824 62.5920245,9.22740286 60.7182004,9.22740286 C58.8443763,9.22740286 57.0965235,9.95173824 55.7738241,11.2744376 C54.4511247,12.597137 53.7267894,14.3449898 53.7267894,16.2188139 C53.7267894,17.604499 54.1204499,18.9271984 54.8762781,20.0451943 L49.8846626,25.0368098 C49.3335378,25.5879346 49.3335378,26.501227 49.8846626,27.0523517 Z M57.8051125,13.2899796 C58.5924335,12.5026585 59.6316973,12.0775051 60.7339468,12.0775051 C61.8361963,12.0775051 62.8754601,12.5026585 63.6627812,13.2899796 C65.2689162,14.8961145 65.2689162,17.5257669 63.6627812,19.1476483 C62.8754601,19.9349693 61.8361963,20.3601227 60.7339468,20.3601227 C59.6316973,20.3601227 58.5924335,19.9349693 57.8051125,19.1476483 L57.8051125,19.1476483 L57.8051125,19.1476483 C56.1832311,17.5257669 56.1832311,14.8961145 57.8051125,13.2899796 Z" id="Shape" fill="#00AAFF"></path>
                    <path d="M27.0523517,49.8846626 C26.501227,49.3335378 25.5879346,49.3335378 25.0368098,49.8846626 L20.0451943,54.8762781 C18.9114519,54.1361963 17.604499,53.7267894 16.2188139,53.7267894 C14.3449898,53.7267894 12.597137,54.4511247 11.2744376,55.7738241 C9.95173824,57.0965235 9.22740286,58.8443763 9.22740286,60.7182004 C9.22740286,62.5920245 9.95173824,64.3398773 11.2744376,65.6625767 C12.597137,66.9852761 14.3449898,67.7096115 16.2188139,67.7096115 C18.092638,67.7096115 19.8404908,66.9852761 21.1631902,65.6625767 C22.4858896,64.3398773 23.2102249,62.5920245 23.2102249,60.7182004 C23.2102249,59.3325153 22.8165644,58.009816 22.0607362,56.89182 L27.0523517,51.9002045 C27.6034765,51.3490798 27.6034765,50.4357873 27.0523517,49.8846626 Z M19.1319018,63.6470348 C18.3445808,64.4343558 17.305317,64.8595092 16.2030675,64.8595092 C15.100818,64.8595092 14.0615542,64.4343558 13.2742331,63.6470348 C11.6680982,62.0408998 11.6680982,59.4112474 13.2742331,57.7893661 C14.0615542,57.002045 15.100818,56.5768916 16.2030675,56.5768916 C17.305317,56.5768916 18.3445808,57.002045 19.1319018,57.7893661 L19.1319018,57.7893661 L19.1319018,57.7893661 C20.7537832,59.4112474 20.7537832,62.0408998 19.1319018,63.6470348 Z" id="Shape" fill="#00AAFF"></path>
                    <path d="M40.2793456,37.00409 L36.6576687,37.00409 C35.2562372,37.00409 34.1224949,35.8703476 34.1224949,34.4689162 C34.1224949,33.0674847 35.2562372,31.9337423 36.6576687,31.9337423 L43.0349693,31.9337423 C43.8222904,31.9337423 44.4678937,31.2881391 44.4678937,30.500818 C44.4678937,29.7134969 43.8222904,29.0678937 43.0349693,29.0678937 L39.8856851,29.0678937 L39.8856851,26.7059305 C39.8856851,25.9186094 39.2400818,25.2730061 38.4527607,25.2730061 C37.6654397,25.2730061 37.0198364,25.9186094 37.0198364,26.7059305 L37.0198364,29.0678937 L36.6419223,29.0678937 C33.6658487,29.0678937 31.2408998,31.4928425 31.2408998,34.4689162 C31.2408998,37.4449898 33.6658487,39.8699387 36.6419223,39.8699387 L40.2635992,39.8699387 C41.6650307,39.8699387 42.798773,41.003681 42.798773,42.4051125 C42.798773,43.806544 41.6650307,44.9402863 40.2635992,44.9402863 L33.7603272,44.9402863 C32.9730061,44.9402863 32.3274029,45.5858896 32.3274029,46.3732106 C32.3274029,47.1605317 32.9730061,47.806135 33.7603272,47.806135 L37.0198364,47.806135 L37.0198364,50.2153374 C37.0198364,51.0026585 37.6654397,51.6482618 38.4527607,51.6482618 C39.2400818,51.6482618 39.8856851,51.0026585 39.8856851,50.2153374 L39.8856851,47.806135 L40.2635992,47.806135 C43.2396728,47.806135 45.6646217,45.3811861 45.6646217,42.4051125 C45.6646217,39.4290389 43.2554192,37.00409 40.2793456,37.00409 Z" id="Shape" fill="#00AAFF"></path>
                    <path d="M31.4770961,6.99141104 C31.4770961,10.3611452 33.8705521,13.1797546 37.0355828,13.8411043 L37.0355828,20.895501 C37.0355828,21.6828221 37.6811861,22.3284254 38.4685072,22.3284254 C39.2558282,22.3284254 39.9014315,21.6828221 39.9014315,20.895501 L39.9014315,13.8411043 C43.0664622,13.1797546 45.4599182,10.3611452 45.4599182,6.99141104 C45.4599182,3.13353783 42.3263804,1.11885052e-15 38.4685072,1.11885052e-15 C34.6106339,1.11885052e-15 31.4770961,3.13353783 31.4770961,6.99141104 Z M42.609816,6.99141104 C42.609816,9.27464213 40.7517382,11.1327198 38.4685072,11.1327198 C36.1852761,11.1327198 34.3271984,9.27464213 34.3271984,6.99141104 C34.3271984,4.70817996 36.1852761,2.85010225 38.4685072,2.85010225 C40.7517382,2.85010225 42.609816,4.70817996 42.609816,6.99141104 Z" id="Shape" fill="#00AAFF"></path>
                    <path d="M63.09591,37.0355828 L56.0415133,37.0355828 C55.2541922,37.0355828 54.608589,37.6811861 54.608589,38.4685072 C54.608589,39.2558282 55.2541922,39.9014315 56.0415133,39.9014315 L63.09591,39.9014315 C63.7572597,43.0664622 66.5758691,45.4599182 69.9456033,45.4599182 C73.8034765,45.4599182 76.9370143,42.3263804 76.9370143,38.4685072 C76.9370143,34.6106339 73.8034765,31.4770961 69.9456033,31.4770961 C66.5758691,31.4770961 63.7572597,33.8705521 63.09591,37.0355828 Z M74.0869121,38.4685072 C74.0869121,40.7517382 72.2288344,42.609816 69.9456033,42.609816 C67.6623722,42.609816 65.8042945,40.7517382 65.8042945,38.4685072 L65.8042945,38.4685072 L65.8042945,38.4685072 C65.8042945,36.1852761 67.6623722,34.3271984 69.9456033,34.3271984 C72.2288344,34.3271984 74.0869121,36.1852761 74.0869121,38.4685072 Z" id="Shape" fill="#00AAFF"></path>
                    <path d="M6.99141104,45.4599182 C10.3611452,45.4599182 13.1797546,43.0664622 13.8411043,39.9014315 L20.895501,39.9014315 C21.6828221,39.9014315 22.3284254,39.2558282 22.3284254,38.4685072 C22.3284254,37.6811861 21.6828221,37.0355828 20.895501,37.0355828 L13.8411043,37.0355828 C13.1797546,33.8705521 10.3611452,31.4770961 6.99141104,31.4770961 C3.13353783,31.4770961 0,34.6106339 0,38.4685072 C0,42.3263804 3.13353783,45.4599182 6.99141104,45.4599182 Z M6.99141104,34.3271984 C9.27464213,34.3271984 11.1327198,36.1852761 11.1327198,38.4685072 L11.1327198,38.4685072 L11.1327198,38.4685072 C11.1327198,40.7517382 9.27464213,42.609816 6.99141104,42.609816 C4.70817996,42.609816 2.85010225,40.7517382 2.85010225,38.4685072 C2.85010225,36.1852761 4.70817996,34.3271984 6.99141104,34.3271984 Z" id="Shape" fill="#00AAFF"></path>
                    <path d="M21.1474438,11.2586912 C19.8247444,9.93599182 18.0768916,9.21165644 16.2030675,9.21165644 C14.3292434,9.21165644 12.5813906,9.93599182 11.2586912,11.2586912 C9.93599182,12.5813906 9.21165644,14.3292434 9.21165644,16.2030675 C9.21165644,18.0768916 9.93599182,19.8247444 11.2586912,21.1474438 C12.5813906,22.4701431 14.3292434,23.1944785 16.2030675,23.1944785 C17.5887526,23.1944785 18.9114519,22.800818 20.0294479,22.0449898 L25.0210634,27.0366053 C25.304499,27.3200409 25.6666667,27.4617587 26.0288344,27.4617587 C26.391002,27.4617587 26.7531697,27.3200409 27.0366053,27.0366053 C27.5877301,26.4854806 27.5877301,25.5721881 27.0366053,25.0210634 L22.0607362,20.0451943 C22.800818,18.9114519 23.2102249,17.604499 23.2102249,16.2188139 C23.1944785,14.3449898 22.4701431,12.5813906 21.1474438,11.2586912 Z M13.2899796,19.1319018 C11.6838446,17.5257669 11.6838446,14.8961145 13.2899796,13.2742331 C14.0773006,12.4869121 15.1165644,12.0617587 16.2188139,12.0617587 C17.3210634,12.0617587 18.3603272,12.4869121 19.1476483,13.2742331 C20.7537832,14.8803681 20.7537832,17.5100204 19.1476483,19.1161554 L19.1476483,19.1161554 L19.1476483,19.1161554 C18.3603272,19.9034765 17.3210634,20.3286299 16.2188139,20.3286299 C15.100818,20.3443763 14.0615542,19.9192229 13.2899796,19.1319018 Z" id="Shape" fill="#00AAFF"></path>
                </g>
            </g>
        </g>
    </g>
</svg>