<?xml version="1.0" encoding="UTF-8"?>
<svg width="200px" height="200px" viewBox="0 0 200 200" version="1.1" xmlns="http://www.w3.org/2000/svg" xmlns:xlink="http://www.w3.org/1999/xlink">
    <!-- Generator: Sketch 48.2 (47327) - http://www.bohemiancoding.com/sketch -->
    <title>check-request-icon2</title>
    <desc>Created with Sketch.</desc>
    <defs></defs>
    <g id="Page-1" stroke="none" stroke-width="1" fill="none" fill-rule="evenodd">
        <g id="check-request-icon2" fill-rule="nonzero">
            <circle id="Oval" fill="#1BB933" cx="100" cy="100" r="100"></circle>
            <g id="invoice" transform="translate(47.724949, 38.000000)">
                <g id="Layer_1">
                    <g id="Group">
                        <g id="XMLID_2160_" transform="translate(27.096115, 30.674847)">
                            <path d="M55.904908,87.2188139 L60.6595092,82.4642127 L65.4141104,87.2188139 L70.1687117,91.9734151 L74.9233129,87.2188139 L74.9233129,8.25664622 C74.9233129,3.70654397 71.2423313,0 66.6666667,0 L0.178936605,0 C4.72903885,0 8.43558282,3.6809816 8.43558282,8.25664622 L8.43558282,87.1932515 L13.190184,91.9478528 L17.9447853,87.1932515 L22.6993865,82.4386503 L27.4539877,87.1932515 L32.208589,91.9478528 L36.9631902,87.1932515 L41.7177914,82.4386503 L46.4723926,87.1932515 L51.2269939,91.9478528 L55.904908,87.2188139 Z" id="XMLID_2161_"></path>
                        </g>
                        <path d="M47.3415133,50.8691207 L90.593047,50.8691207 C91.8711656,50.8691207 92.9192229,49.8210634 92.9192229,48.5429448 C92.9192229,47.2648262 91.8711656,46.2167689 90.593047,46.2167689 L47.3415133,46.2167689 C46.0633947,46.2167689 45.0153374,47.2648262 45.0153374,48.5429448 C45.0153374,49.8210634 46.0633947,50.8691207 47.3415133,50.8691207 Z" id="Shape" fill="#FFFFFF"></path>
                        <path d="M47.3415133,63.2157464 L78.7576687,63.2157464 C80.0357873,63.2157464 81.0838446,62.1676892 81.0838446,60.8895706 C81.0838446,59.6114519 80.0357873,58.5633947 78.7576687,58.5633947 L47.3415133,58.5633947 C46.0633947,58.5633947 45.0153374,59.6114519 45.0153374,60.8895706 C45.0153374,62.1932515 46.0633947,63.2157464 47.3415133,63.2157464 Z" id="Shape" fill="#FFFFFF"></path>
                        <path d="M47.3415133,74.5398773 L90.593047,74.5398773 C91.8711656,74.5398773 92.9192229,73.49182 92.9192229,72.2137014 C92.9192229,70.9355828 91.8711656,69.8875256 90.593047,69.8875256 L47.3415133,69.8875256 C46.0633947,69.8875256 45.0153374,70.9355828 45.0153374,72.2137014 C45.0153374,73.5173824 46.0633947,74.5398773 47.3415133,74.5398773 Z" id="Shape" fill="#FFFFFF"></path>
                        <path d="M51.4570552,82.7965235 L47.3415133,82.7965235 C46.0633947,82.7965235 45.0153374,83.8445808 45.0153374,85.1226994 C45.0153374,86.400818 46.0633947,87.4488753 47.3415133,87.4488753 L51.4570552,87.4488753 C52.7351738,87.4488753 53.7832311,86.400818 53.7832311,85.1226994 C53.7832311,83.8445808 52.7351738,82.7965235 51.4570552,82.7965235 Z" id="Shape" fill="#FFFFFF"></path>
                        <path d="M51.4570552,94.1206544 L47.3415133,94.1206544 C46.0633947,94.1206544 45.0153374,95.1687117 45.0153374,96.4468303 C45.0153374,97.7249489 46.0633947,98.7730061 47.3415133,98.7730061 L51.4570552,98.7730061 C52.7351738,98.7730061 53.7832311,97.7249489 53.7832311,96.4468303 C53.7576687,95.1431493 52.7351738,94.1206544 51.4570552,94.1206544 Z" id="Shape" fill="#FFFFFF"></path>
                        <path d="M90.593047,82.7965235 L60.7106339,82.7965235 C59.4325153,82.7965235 58.3844581,83.8445808 58.3844581,85.1226994 C58.3844581,86.400818 59.4325153,87.4488753 60.7106339,87.4488753 L90.593047,87.4488753 C91.8711656,87.4488753 92.9192229,86.400818 92.9192229,85.1226994 C92.9192229,83.8445808 91.8711656,82.7965235 90.593047,82.7965235 Z" id="Shape" fill="#FFFFFF"></path>
                        <path d="M81.0582822,96.4212679 C81.0582822,95.1431493 80.0102249,94.095092 78.7321063,94.095092 L60.7106339,94.095092 C59.4325153,94.095092 58.3844581,95.1431493 58.3844581,96.4212679 C58.3844581,97.6993865 59.4325153,98.7474438 60.7106339,98.7474438 L78.7321063,98.7474438 C80.0102249,98.7474438 81.0582822,97.6993865 81.0582822,96.4212679 Z" id="Shape" fill="#FFFFFF"></path>
                        <path d="M76.6104294,124.284254 C77.5051125,125.178937 78.9877301,125.178937 79.8824131,124.284254 L87.7556237,116.411043 L95.6288344,124.284254 C96.0889571,124.744376 96.6768916,124.974438 97.2648262,124.974438 C97.8527607,124.974438 98.4406953,124.744376 98.900818,124.284254 L103.655419,119.529652 C104.08998,119.095092 104.345603,118.507157 104.345603,117.893661 L104.345603,38.9314928 C104.345603,33.103272 99.6165644,28.3742331 93.7883436,28.3742331 L76.0224949,28.3742331 L76.0224949,2.32617587 C76.0224949,1.04805726 74.9744376,0 73.696319,0 L2.50511247,0 C1.22699387,0 0.178936605,1.04805726 0.178936605,2.32617587 L0.178936605,81.2627812 C0.178936605,87.091002 4.90797546,91.8200409 10.7361963,91.8200409 L24.1308793,91.8200409 C25.408998,91.8200409 26.4570552,90.7719836 26.4570552,89.493865 C26.4570552,88.2157464 25.408998,87.1676892 24.1308793,87.1676892 L19.4785276,87.1676892 C20.6288344,85.4805726 21.3190184,83.4355828 21.3190184,81.2372188 L21.3190184,38.9314928 C21.3190184,35.6595092 23.9775051,33.0010225 27.2494888,33.0010225 C30.5214724,33.0010225 33.1799591,35.6595092 33.1799591,38.9314928 L33.1799591,117.868098 C33.1799591,118.021472 33.2055215,118.174847 33.2310838,118.328221 C33.2566462,118.43047 33.2822086,118.507157 33.307771,118.609407 C33.3333333,118.660532 33.3333333,118.711656 33.3588957,118.762781 C33.4100204,118.865031 33.4611452,118.96728 33.5122699,119.043967 C33.5378323,119.06953 33.5378323,119.120654 33.5633947,119.146217 C33.6400818,119.274029 33.7423313,119.40184 33.8445808,119.50409 L38.599182,124.258691 C39.493865,125.153374 40.9764826,125.153374 41.8711656,124.258691 L49.7443763,116.385481 L57.6175869,124.258691 C58.5122699,125.153374 59.9948875,125.153374 60.8895706,124.258691 L68.7627812,116.385481 L76.6104294,124.284254 Z M16.692229,38.9314928 L16.692229,81.2627812 C16.692229,84.5347648 14.0337423,87.1932515 10.7617587,87.1932515 C7.48977505,87.1932515 4.83128834,84.5347648 4.83128834,81.2627812 L4.83128834,4.62678937 L71.3957055,4.62678937 L71.3957055,28.3742331 L27.2494888,28.3742331 C21.4212679,28.3742331 16.692229,33.103272 16.692229,38.9314928 Z M59.2535787,119.350716 L51.3803681,111.477505 C50.9202454,111.017382 50.3323108,110.787321 49.7443763,110.787321 C49.1564417,110.787321 48.5685072,111.017382 48.1083845,111.477505 L40.2351738,119.350716 L37.8067485,116.92229 L37.8067485,38.9314928 C37.8067485,38.599182 37.7811861,38.2668712 37.7556237,37.9601227 C37.7556237,37.8578732 37.7300613,37.7811861 37.7300613,37.6789366 C37.704499,37.4488753 37.6789366,37.2188139 37.6278119,36.9887526 C37.6022495,36.8865031 37.6022495,36.809816 37.5766871,36.7075665 C37.5255624,36.4263804 37.4488753,36.1196319 37.3466258,35.8384458 C37.3466258,35.8128834 37.3466258,35.8128834 37.3210634,35.7873211 C37.2188139,35.4805726 37.1165644,35.1993865 36.9887526,34.9182004 C36.9631902,34.8415133 36.9120654,34.7648262 36.8865031,34.6625767 C36.7842536,34.4580777 36.7075665,34.2535787 36.5797546,34.0490798 C36.5286299,33.9723926 36.5030675,33.8957055 36.4519427,33.793456 C36.3241309,33.5633947 36.1707566,33.307771 36.0173824,33.0777096 C35.99182,33.0521472 35.99182,33.0265849 35.9662577,33.0010225 C35.9662577,33.0010225 35.9662577,33.0010225 35.9662577,32.9754601 L93.7116564,32.9754601 C96.9836401,32.9754601 99.6421268,35.6339468 99.6421268,38.9059305 L99.6421268,116.92229 L97.2137014,119.350716 L89.3404908,111.477505 C88.4458078,110.582822 86.9631902,110.582822 86.0685072,111.477505 L78.1952965,119.350716 L70.398773,111.503067 C69.50409,110.608384 68.0214724,110.608384 67.1267894,111.503067 L59.2535787,119.350716 Z" id="Shape" fill="#FFFFFF"></path>
                    </g>
                </g>
            </g>
        </g>
    </g>
</svg>