<?xml version="1.0" encoding="UTF-8"?>
<svg width="61px" height="45px" viewBox="0 0 61 45" version="1.1" xmlns="http://www.w3.org/2000/svg" xmlns:xlink="http://www.w3.org/1999/xlink">
    <!-- Generator: Sketch 47.1 (45422) - http://www.bohemiancoding.com/sketch -->
    <title>team</title>
    <desc>Created with Sketch.</desc>
    <defs></defs>
    <g id="Page-1" stroke="none" stroke-width="1" fill="none" fill-rule="evenodd">
        <g id="Artboard-10" transform="translate(-731.000000, -4136.000000)" fill-rule="nonzero" fill="#FFFFFF">
            <g id="Group-3-Copy" transform="translate(711.000000, 4108.000000)">
                <g id="team" transform="translate(20.000000, 28.000000)">
                    <path d="M53.7630615,20.1450806 C51.6895203,19.108429 47.8017792,19.0964081 47.6372955,19.0964081 C47.1443207,19.0964081 46.7446564,19.4960724 46.7446564,19.9890472 C46.7446564,20.4820221 47.1443207,20.8816864 47.6372955,20.8816864 C48.6405029,20.8818054 51.553244,21.0362915 52.9646851,21.7419525 C53.092868,21.8061035 53.2290253,21.8363342 53.3631592,21.8363342 C53.6905792,21.8363342 54.0058594,21.655426 54.1622498,21.3427643 C54.3827911,20.9018005 54.2040253,20.3656219 53.7630615,20.1450806 Z" id="Shape"></path>
                    <path d="M58.2134033,32.8540009 L54.5268036,31.8006866 C54.3676758,31.7552216 54.2565125,31.6078766 54.2565125,31.4423218 L54.2565125,30.2117889 C54.5564392,30.0039825 54.8425598,29.7714203 55.1099945,29.5118408 C56.4061066,28.2540527 57.1198608,26.5669647 57.1198608,24.7612152 L57.1198608,23.0631775 L57.4763214,22.3503754 C57.8675354,21.5678284 58.0742706,20.6917328 58.0742706,19.8169464 L58.0742706,15.2168793 C58.0742706,14.7239044 57.6746063,14.3242401 57.1816315,14.3242401 L48.5917053,14.3242401 C45.4681824,14.3242401 42.9268982,16.8655243 42.9268982,19.9890472 L42.9268982,20.0422485 C42.9268982,20.7696899 43.09888,21.4982025 43.4241577,22.1487579 L43.881308,23.0630585 L43.881308,24.5210358 C43.881308,26.831662 45.0199585,28.9048462 46.7446564,30.1523987 L46.7448944,31.4420837 C46.7448944,31.6409637 46.7448944,31.7233246 46.0078125,31.9339874 L44.2089661,32.4479095 L39.0053558,30.5557526 C39.0240417,30.3102173 38.9412048,30.0605164 38.7620819,29.872348 L37.0992737,28.1253937 L37.0992737,25.1927765 C37.2750641,25.0479309 37.4483551,24.8991577 37.6162903,24.7418152 C39.7139923,22.7756287 40.9170319,19.9996399 40.9170319,17.1256989 L40.9170319,14.7836517 C41.5504486,13.4052979 41.8714417,11.9467255 41.8714417,10.4445923 L41.8714417,0.900494385 C41.8714417,0.407519531 41.4717773,0.00785522461 40.9788025,0.00785522461 L27.6167084,0.00785522461 C22.9142853,0.00785522461 19.0886719,3.83358765 19.0886719,8.53589172 L19.0886719,10.4448303 C19.0886719,11.9469635 19.4096649,13.4055359 20.0430817,14.7838898 L20.0430817,16.7989929 C20.0430817,20.1357971 21.526767,23.1419678 23.8608398,25.1238647 L23.8608398,28.1255127 L22.1980316,29.872467 C22.0189087,30.0606354 21.9360718,30.3103363 21.9547577,30.5558716 L16.4626465,32.5528839 C16.0646484,32.6976105 15.6948578,32.893634 15.3591064,33.131076 L14.496698,32.6998718 C17.0639282,31.5824066 17.877182,30.0107666 17.9162201,29.9326904 C18.0419037,29.6814423 18.0419037,29.3855621 17.9162201,29.134314 C17.2726868,27.8472473 17.1947296,25.4881805 17.1321259,23.592691 C17.1112976,22.9616547 17.0915405,22.3654907 17.0538116,21.834668 C16.7494812,17.5530945 13.4945618,14.3242401 9.48244629,14.3242401 C5.47033081,14.3242401 2.21529236,17.5529755 1.91108093,21.834668 C1.87335205,22.3656097 1.85359497,22.9617737 1.83276672,23.5929291 C1.77016296,25.4882996 1.69208679,27.8471283 1.04867249,29.1341949 C0.922988892,29.3854431 0.922988892,29.6813232 1.04867249,29.9325714 C1.08771057,30.0106476 1.8992981,31.5790741 4.47164612,32.6978485 L2.07615967,33.8955322 C0.79552002,34.5363281 0,35.8235138 0,37.255188 L0,43.8498871 C0,44.3428619 0.399664307,44.7425262 0.89263916,44.7425262 C1.38561401,44.7425262 1.78527832,44.3428619 1.78527832,43.8498871 L1.78527832,37.255188 C1.78527832,36.5039429 2.20267639,35.8285126 2.87453613,35.4925232 L5.85749817,34.0011017 L6.89510193,34.9871704 C7.62063904,35.6766449 8.55136414,36.0212036 9.48244629,36.0212036 C10.4132904,36.0212036 11.3444916,35.6764069 12.0697906,34.9871704 L13.1072754,34.0012207 L14.079895,34.4875305 C13.6219116,35.2203278 13.3619751,36.0796417 13.3619751,36.9797791 L13.3619751,43.8501251 C13.3619751,44.3431 13.7616394,44.7427643 14.2546143,44.7427643 C14.7475891,44.7427643 15.1472534,44.3431 15.1472534,43.8501251 L15.1472534,36.9797791 C15.1472534,35.754364 15.920993,34.6496338 17.0727356,34.2308075 L22.8632263,32.1252502 L25.2737091,35.741153 C25.5818481,36.203421 26.0756561,36.4998962 26.6284973,36.5546448 C26.6901489,36.5607147 26.7514435,36.5636902 26.812619,36.5636902 C27.3003571,36.5636902 27.7675049,36.3717133 28.1167053,36.0226318 L29.5872986,34.5520386 L29.5872986,43.8502441 C29.5872986,44.343219 29.9869629,44.7428833 30.4799377,44.7428833 C30.9729126,44.7428833 31.3725769,44.343219 31.3725769,43.8502441 L31.3725769,34.5520386 L32.8431702,36.0226318 C33.1922516,36.3718323 33.6593994,36.5638092 34.1472565,36.5638092 C34.208313,36.5638092 34.2697266,36.5608337 34.3312592,36.5547638 C34.8842194,36.5000153 35.3780273,36.20354 35.6861664,35.741272 L38.0967682,32.1254883 L43.8871399,34.2310455 C45.0387634,34.6498718 45.8126221,35.7546021 45.8126221,36.9800171 L45.8126221,43.8503632 C45.8126221,44.343338 46.2122864,44.7430023 46.7052612,44.7430023 C47.1982361,44.7430023 47.5979004,44.343338 47.5979004,43.8503632 L47.5979004,36.9800171 C47.5979004,35.7388916 47.1048065,34.5748901 46.2776276,33.7140289 L46.4981689,33.6510681 C46.7206146,33.5875122 47.0241119,33.5005096 47.3287994,33.3511414 L49.6078857,35.6302277 L49.6078857,43.8503632 C49.6078857,44.343338 50.00755,44.7430023 50.5005249,44.7430023 C50.9934998,44.7430023 51.3931641,44.343338 51.3931641,43.8503632 L51.3931641,35.6302277 L53.6564209,33.3669708 C53.7767487,33.4281464 53.9031464,33.4798004 54.0362091,33.5177673 L57.7229279,34.5710815 C58.564389,34.811499 59.1522217,35.5907135 59.1522217,36.465976 L59.1522217,43.8503632 C59.1522217,44.343338 59.551886,44.7430023 60.0448608,44.7430023 C60.5378357,44.7430023 60.9375,44.343338 60.9375,43.8503632 L60.9375,36.465976 C60.9375,34.7975739 59.8172974,33.3123413 58.2134033,32.8540009 Z M5.72657776,31.2773621 C4.05686646,30.6765564 3.21933289,29.8755615 2.86180115,29.4381683 C3.10555115,28.800943 3.26360779,28.0711212 3.37060547,27.3007141 C3.86286621,28.4810211 4.68730774,29.4886322 5.72657776,30.2075043 L5.72657776,31.2773621 Z M10.84021,33.6932007 C10.0788483,34.4165955 8.88616333,34.4164764 8.12503967,33.6930817 L7.29488525,32.9042267 C7.43497009,32.6417908 7.5119751,32.3442444 7.5119751,32.0325348 L7.5119751,31.0811005 C8.13468018,31.2756958 8.79666138,31.3806702 9.48268433,31.3806702 C10.1678741,31.3806702 10.8294983,31.2752197 11.4532745,31.0816956 L11.4531555,32.0324158 C11.4531555,32.3442444 11.5300415,32.6419098 11.6702454,32.9044647 L10.84021,33.6932007 Z M9.48292236,29.5953918 C6.81738281,29.5953918 4.64898376,27.4268738 4.64898376,24.7614532 C4.64898376,24.2684784 4.24931946,23.8688141 3.7563446,23.8688141 C3.70635681,23.8688141 3.6575592,23.8739319 3.60983276,23.8819061 C3.61245117,23.8051392 3.61495056,23.7282532 3.61756897,23.6522003 C3.63744507,23.0384216 3.65660706,22.4586823 3.69195557,21.9614227 C3.80597534,20.3575287 4.44689026,18.8795563 5.49663391,17.7995819 C6.55578003,16.709848 7.97138672,16.1097565 9.48268433,16.1097565 C10.9939819,16.1097565 12.4094696,16.709848 13.4687347,17.7995819 C14.5184784,18.8795563 15.1593933,20.3575287 15.2734131,21.9614227 C15.3086426,22.4585632 15.3279236,23.0381836 15.3481567,23.6518433 C15.349942,23.7045685 15.3517273,23.7580078 15.3535126,23.8110901 C14.3823212,22.3147888 12.8824493,21.2120819 10.9444702,20.5893768 C9.1540741,20.0141602 7.61421204,20.0497467 7.54922791,20.051413 C7.31547546,20.057959 7.09362488,20.1557922 6.93140259,20.3240845 L5.32084351,21.9943909 C4.97866516,22.3493042 4.98890076,22.9144043 5.34381409,23.2565826 C5.69872742,23.598761 6.26382751,23.5884064 6.60600586,23.2336121 L7.94615479,21.8438324 C9.10027771,21.9002472 12.8132996,22.3320465 14.2573517,25.5118652 C13.893988,27.8551025 11.8799561,29.5953918 9.48292236,29.5953918 Z M13.2383148,31.2803375 L13.2384338,30.2157166 C14.2768707,29.5007721 15.1025024,28.4950653 15.5951202,27.3058319 C15.7021179,28.0744537 15.8600555,28.8026093 16.1033295,29.4384064 C15.747821,29.8716339 14.9063599,30.6797699 13.2383148,31.2803375 Z M21.82836,16.7988739 L21.82836,14.5841766 C21.82836,14.4498047 21.7980103,14.317099 21.7395721,14.1960571 C21.1651886,13.0065857 20.8739502,11.7445129 20.8739502,10.4448303 L20.8739502,8.53601074 C20.8739502,4.81799011 23.8988068,1.79325256 27.6167084,1.79325256 L40.0861633,1.79325256 L40.0861633,10.4449493 C40.0861633,11.744632 39.7949249,13.0067047 39.2205414,14.1961761 C39.1621033,14.317218 39.1317535,14.4499237 39.1317535,14.5842957 L39.1317535,17.1259369 C39.1317535,19.5433228 38.159967,21.7855133 36.3953979,23.4395142 C36.1750946,23.6458923 35.94646,23.8394165 35.7100891,24.0197296 C35.7048523,24.0233002 35.6998535,24.0272278 35.6947357,24.0309174 C34.041687,25.285968 32.0169434,25.8959381 29.9024597,25.7589478 C25.3748749,25.4658051 21.82836,21.5300995 21.82836,16.7988739 Z M26.8543945,34.760083 C26.8482056,34.766272 26.8338043,34.7809113 26.8046448,34.7778168 C26.7756042,34.7749603 26.7641785,34.7579407 26.7592987,34.7505615 L23.9831909,30.5863403 L24.8765442,29.647641 L29.0880157,32.5263428 L26.8543945,34.760083 Z M30.4800568,31.315329 L25.6461182,28.0111359 L25.6461182,26.3448761 C26.8968842,27.0210205 28.2973755,27.4438934 29.7868927,27.5402985 C30.0221924,27.5555328 30.2560638,27.563031 30.4892212,27.563031 C32.1960663,27.563031 33.8387604,27.1550354 35.3139954,26.3805817 L35.3139954,28.0111359 L30.4800568,31.315329 Z M34.2008148,34.7507996 C34.1959351,34.7581787 34.1845093,34.7751984 34.1554688,34.7780548 C34.1263092,34.7817444 34.112027,34.766391 34.105719,34.760321 L31.8720978,32.5266998 L36.0835693,29.647879 L36.9770416,30.5865784 L34.2008148,34.7507996 Z M50.5005249,33.9976501 L48.4748291,31.9720734 C48.5101776,31.8115173 48.5301727,31.6357269 48.5300537,31.4418457 L48.5299347,31.065152 C49.0920593,31.2496307 49.6845337,31.3591278 50.2975983,31.3774567 C50.366391,31.379599 50.4345886,31.3805511 50.5031433,31.3805511 C51.1805969,31.3805511 51.841864,31.2781952 52.4712341,31.0828857 L52.4712341,31.4423218 C52.4712341,31.6203735 52.4936096,31.7948547 52.5357422,31.9625519 L50.5005249,33.9976501 Z M53.8667267,28.2307251 C52.9206482,29.1488342 51.6708344,29.6337158 50.3512756,29.5930115 C47.7680969,29.5155304 45.6665863,27.2402527 45.6665863,24.5212738 L45.6665863,22.8525146 C45.6665863,22.713858 45.6343323,22.5772247 45.5723236,22.4533264 L45.0209106,21.3505005 C44.8189362,20.9464325 44.7121765,20.494162 44.7121765,20.0423676 L44.7121765,19.9891663 C44.7121765,17.8499268 46.4525848,16.1096375 48.5917053,16.1096375 L56.2889923,16.1096375 L56.2889923,19.8170654 C56.2889923,20.4162048 56.1473602,21.0161774 55.8794495,21.5521179 L55.4288452,22.4533264 C55.3668365,22.5773438 55.3345825,22.713858 55.3345825,22.8525146 L55.3345825,24.7613342 C55.3345825,26.0800598 54.8132813,27.3121399 53.8667267,28.2307251 Z" id="Shape"></path>
                    <path d="M56.2271027,37.2306702 C55.7341278,37.2306702 55.3344635,37.6303345 55.3344635,38.1233093 L55.3344635,43.8498871 C55.3344635,44.3428619 55.7341278,44.7425262 56.2271027,44.7425262 C56.7200775,44.7425262 57.1197418,44.3428619 57.1197418,43.8498871 L57.1197418,38.1233093 C57.1197418,37.6304535 56.7200775,37.2306702 56.2271027,37.2306702 Z" id="Shape"></path>
                    <path d="M4.71039734,38.4106201 C4.21742249,38.4106201 3.81775818,38.8102844 3.81775818,39.3032593 L3.81775818,43.8498871 C3.81775818,44.3428619 4.21742249,44.7425262 4.71039734,44.7425262 C5.20337219,44.7425262 5.6030365,44.3428619 5.6030365,43.8498871 L5.6030365,39.3032593 C5.6030365,38.8104034 5.20337219,38.4106201 4.71039734,38.4106201 Z" id="Shape"></path>
                    <path d="M37.7921997,10.7682037 C34.4161194,7.39212341 27.3524872,8.03756104 24.4720001,8.47174072 C23.5647217,8.60849304 22.906311,9.37628174 22.906311,10.2973663 L22.906311,12.3537689 C22.906311,12.8467438 23.3059753,13.2464081 23.7989502,13.2464081 C24.291925,13.2464081 24.6915894,12.8467438 24.6915894,12.3537689 L24.6915894,10.2972473 C24.6915894,10.2668976 24.7115845,10.2409515 24.7382446,10.2369049 C25.888797,10.0634949 28.1719299,9.79594116 30.5374237,9.95364075 C33.3210297,10.1389526 35.337204,10.8377106 36.5298889,12.0305145 C36.8784943,12.3791199 37.4437134,12.3791199 37.7921997,12.0305145 C38.1408051,11.6819092 38.1408051,11.1166901 37.7921997,10.7682037 Z" id="Shape"></path>
                    <path d="M19.981311,39.1396088 C19.4883362,39.1396088 19.0886719,39.5392731 19.0886719,40.0322479 L19.0886719,43.8500061 C19.0886719,44.342981 19.4883362,44.7426453 19.981311,44.7426453 C20.4742859,44.7426453 20.8739502,44.342981 20.8739502,43.8500061 L20.8739502,40.0322479 C20.8739502,39.5393921 20.4742859,39.1396088 19.981311,39.1396088 Z" id="Shape"></path>
                    <path d="M40.9788025,39.1396088 C40.4858276,39.1396088 40.0861633,39.5392731 40.0861633,40.0322479 L40.0861633,43.8500061 C40.0861633,44.342981 40.4858276,44.7426453 40.9788025,44.7426453 C41.4717773,44.7426453 41.8714417,44.342981 41.8714417,43.8500061 L41.8714417,40.0322479 C41.8714417,39.5393921 41.4717773,39.1396088 40.9788025,39.1396088 Z" id="Shape"></path>
                </g>
            </g>
        </g>
    </g>
</svg>