<?xml version="1.0" encoding="UTF-8"?>
<svg width="67px" height="50px" viewBox="0 0 67 50" version="1.1" xmlns="http://www.w3.org/2000/svg" xmlns:xlink="http://www.w3.org/1999/xlink">
    <!-- Generator: Sketch 49.2 (51160) - http://www.bohemiancoding.com/sketch -->
    <title>Group 4</title>
    <desc>Created with Sketch.</desc>
    <defs></defs>
    <g id="Customer-Dashboard" stroke="none" stroke-width="1" fill="none" fill-rule="evenodd">
        <g id="Customer---Organization-role" transform="translate(-1190.000000, -171.000000)" fill-rule="nonzero">
            <g id="Group-4" transform="translate(1190.000000, 171.000000)">
                <g id="Group-3" fill="#F7F9FB">
                    <g id="Group-2">
                        <rect id="Rectangle-path" x="0" y="48.6219336" width="67" height="1"></rect>
                        <path d="M58.585119,48.6299097 C67.3462011,35.6179106 65.0850919,18.1243631 53.3035041,7.76758421 C41.5219163,-2.58919474 23.8828456,-2.58919474 12.1012578,7.76758421 C0.319669987,18.1243631 -1.94143924,35.6179106 6.81964286,48.6299097 L58.585119,48.6299097 Z" id="Shape"></path>
                    </g>
                </g>
                <g id="group" transform="translate(7.000000, 11.000000)" fill="#263C66">
                    <path d="M36.4758213,19.1540248 L31.7941993,17.1438853 C31.46345,17.0019199 31.2498971,16.6842618 31.2498971,16.3347445 L31.2498971,15.0927543 C32.8225405,13.8822082 33.8333721,12.0180814 33.8333721,9.92907221 L33.8333721,8.18075933 C34.3514636,7.90419651 34.6944589,7.36975054 34.6944589,6.77117105 L34.6944589,6.60149743 C34.6944589,2.96145335 31.6289858,0 27.8610867,0 L26.1389133,0 C22.3710142,0 19.3055411,2.96145335 19.3055411,6.60149743 L19.3055411,8.14101316 C19.3055411,8.66715706 19.5399338,9.14379985 19.9484558,9.44879727 C20.0177424,9.50047767 20.0906812,9.54593153 20.1666279,9.5852626 L20.1666279,9.92896844 C20.1666279,12.0179777 21.1773521,13.8821045 22.7498881,15.0925468 L22.7498881,16.3346407 C22.7498881,16.684158 22.5362277,17.0018161 22.2055859,17.1437815 L17.5239638,19.1539211 C15.9907439,19.8121717 15,21.2849595 15,22.9058356 L15,33.2215768 C15,33.6514167 15.3607197,33.9998962 15.8056575,33.9998962 C16.2505953,33.9998962 16.611315,33.6514167 16.611315,33.2215768 L16.611315,22.9059393 C16.611315,22.8157581 16.6179751,22.7266146 16.627643,22.6381975 L18.7848715,24.7222254 C19.1205622,25.046629 19.3055411,25.4778179 19.3055411,25.9366112 L19.3055411,33.2216806 C19.3055411,33.6515205 19.6662609,34 20.1111986,34 C20.5561364,34 20.9168561,33.6515205 20.9168561,33.2216806 L20.9168561,25.9366112 C20.9168561,25.0620916 20.5644078,24.2399788 19.9242861,23.6215781 L17.3525199,21.1369751 C17.584227,20.9047246 17.8622326,20.7122202 18.17848,20.5763775 L22.7811476,18.6001728 L26.1944499,21.8976525 L26.1944499,33.2215768 C26.1944499,33.6514167 26.5551696,33.9998962 27.0001074,33.9998962 C27.4450452,33.9998962 27.8057649,33.6514167 27.8057649,33.2215768 L27.8057649,21.8977563 L31.2190672,18.6002765 L35.8216274,20.5763775 C36.1378749,20.7122202 36.4158804,20.9047246 36.6475875,21.1370788 L34.0758213,23.6215781 C33.4356996,24.2399788 33.0832513,25.0620916 33.0832513,25.9366112 L33.0832513,33.2216806 C33.0832513,33.6515205 33.443971,34 33.8889088,34 C34.3338466,34 34.6945663,33.6515205 34.6945663,33.2216806 L34.6945663,25.9366112 C34.6945663,25.4779217 34.8794378,25.046629 35.2152359,24.7222254 L37.372357,22.6383012 C37.3820249,22.7267183 37.388685,22.8156543 37.388685,22.9058356 L37.388685,33.2215768 C37.388685,33.6514167 37.7494047,33.9998962 38.1943425,33.9998962 C38.6392803,33.9998962 39,33.6514167 39,33.2215768 L39,22.9059393 C38.9996777,21.2850633 38.0090413,19.8122755 36.4758213,19.1540248 Z M26.9997852,20.4746772 L24.0047802,17.581197 C24.2325128,17.2110283 24.3610957,16.7827451 24.3610957,16.3347445 L24.3610957,16.0180204 C25.1735207,16.3478202 26.0650076,16.5305696 26.9998926,16.5305696 C27.9347775,16.5305696 28.826157,16.347924 29.6384746,16.0181242 L29.6384746,16.3347445 C29.6384746,16.7828489 29.7670576,17.2110283 29.9948975,17.5813008 L26.9997852,20.4746772 Z M26.9998926,14.9738271 C24.1204727,14.9739309 21.7778355,12.7107857 21.7778355,9.92907221 L21.7778355,9.57903604 C22.2805658,9.38653172 22.7712649,9.08018521 23.2410169,8.66144938 C23.567899,8.36994283 23.5884164,7.8775261 23.2865634,7.56163221 C22.9848178,7.2458421 22.4752126,7.2260209 22.1481157,7.51752745 C21.7451795,7.87690345 21.3425656,8.10905018 20.951768,8.2076373 C20.9423149,8.21002414 20.9353326,8.2110619 20.9303912,8.21147701 C20.9245905,8.20058053 20.9167487,8.17774983 20.9167487,8.14111693 L20.9167487,6.6016012 C20.9167487,3.81988774 23.2593859,1.55674254 26.1388058,1.55674254 L27.8609793,1.55674254 C30.7405067,1.55674254 33.0830364,3.81988774 33.0830364,6.6016012 L33.0830364,6.77127483 C33.0830364,6.79649237 33.067353,6.81838909 33.0467281,6.82233258 C28.2223436,7.74282496 25.8025781,6.00800295 24.9861785,5.21930598 C24.6715424,4.91534632 24.1614001,4.91534632 23.8468714,5.21930598 C23.5322353,5.52326564 23.5322353,6.01609748 23.8468714,6.31995336 C26.3487065,8.73689448 29.9994092,8.78048036 32.2219497,8.52249343 L32.2219497,9.92896844 C32.2219497,12.7106819 29.8793125,14.9738271 26.9998926,14.9738271 Z" id="Shape"></path>
                    <path d="M14,14.8185707 L14,13.1456442 C14,11.1043297 12.9474276,9.30735524 11.3614262,8.27323944 C11.4593543,7.95659885 11.5104923,7.62493479 11.5104923,7.2913928 C11.5104923,5.47647366 10.0455036,4 8.24470209,4 C6.44390056,4 4.97891188,5.47657799 4.97891188,7.2913928 C4.97891188,7.62910798 5.02963576,7.95753782 5.12777096,8.2734481 C3.54187309,9.30745957 2.48940418,11.104434 2.48940418,13.1456442 L2.48940418,14.8182577 C2.48940418,16.7949922 3.47624259,18.5429317 4.97880836,19.5906103 L4.97880836,21.3113198 C4.97880836,21.6507042 4.79175108,21.9557642 4.49061682,22.1075639 L1.80525281,23.4607199 C0.691708197,24.0220136 0,25.1500261 0,26.4047992 L0,33.2174231 C0,33.6495566 0.347613907,33.9998957 0.776386034,33.9998957 C1.20515816,33.9998957 1.55277207,33.6495566 1.55277207,33.2174231 L1.55277207,26.7432447 L2.81755668,28.0179447 C3.14105086,28.3440793 3.31930909,28.7775691 3.31930909,29.2388106 L3.31930909,33.2174231 C3.31930909,33.6495566 3.666923,33.9998957 4.09569512,33.9998957 C4.52446725,33.9998957 4.87208116,33.6495566 4.87208116,33.2174231 L4.87208116,29.2388106 C4.87208116,28.3596244 4.53233463,27.5331247 3.91557356,26.9114241 L2.15524763,25.1372979 C2.14675914,25.1287428 2.13764955,25.1213354 2.12895402,25.113302 C2.23940788,25.0150235 2.36331909,24.9294731 2.49975599,24.8606155 L5.18512001,23.5074596 C5.32269561,23.4380803 5.45074755,23.3561815 5.57010396,23.2652061 L7.46831606,25.1784038 L7.46831606,33.2175274 C7.46831606,33.6496609 7.81592996,34 8.24470209,34 C8.67347422,34 9.02108812,33.6496609 9.02108812,33.2175274 L9.02108812,25.1782994 L10.9194037,23.2651017 C11.0388637,23.3561815 11.1668121,23.4380803 11.3043877,23.5073552 L12.0448529,23.8805425 C12.156342,23.9367762 12.2747667,23.9633803 12.3915352,23.9633803 C12.6763136,23.9633803 12.9505331,23.8047992 13.086556,23.5307251 C13.2783751,23.1441836 13.1228908,22.6741784 12.7393561,22.4809598 L11.9988909,22.1077726 C11.6976531,21.9559729 11.5105958,21.6509129 11.5105958,21.3116328 L11.5105958,19.5909233 C13.0131616,18.5432447 14,16.7952008 14,14.8185707 Z M8.24470209,5.56494523 C9.1893051,5.56494523 9.95772023,6.33948878 9.95772023,7.2913928 C9.95772023,7.39624413 9.9484036,7.49900887 9.93059848,7.59968701 C9.397066,7.43463745 8.83113234,7.34522692 8.24470209,7.34522692 C7.65909998,7.34522692 7.09389095,7.43432447 6.56118661,7.5989567 C6.54327798,7.49827856 6.53168394,7.39603547 6.53168394,7.2913928 C6.53168394,6.33938445 7.30009908,5.56494523 8.24470209,5.56494523 Z M8.24470209,8.91027647 C10.5619556,8.91027647 12.4472279,10.8103286 12.4472279,13.1457486 L12.4472279,13.4293166 C9.21487408,14.4267084 7.28850505,11.9485655 7.20620813,11.8399583 C7.07111696,11.658529 6.86459828,11.5450183 6.64017095,11.5289515 C6.41574363,11.5130934 6.19525,11.5958268 6.03614262,11.7561815 C5.29505627,12.5030777 4.56918709,12.8633281 4.04497124,13.0372457 C4.1024238,10.7517997 5.9635764,8.91027647 8.24470209,8.91027647 Z M8.24470209,23.7475222 L6.45062924,21.9393845 C6.50300942,21.7376109 6.53168394,21.5272822 6.53168394,21.3114241 L6.53168394,20.3562859 C7.07298029,20.5267606 7.64843762,20.618675 8.24470209,20.618675 C8.84096656,20.618675 9.41642389,20.5267606 9.95772023,20.3562859 L9.95772023,21.3114241 C9.95772023,21.5272822 9.98639476,21.7377152 10.0387749,21.9393845 L8.24470209,23.7475222 Z M8.24470209,19.0537298 C5.92744857,19.0537298 4.04217625,17.1536776 4.04217625,14.8182577 L4.04217625,14.6561294 C4.66131823,14.5127804 5.57931708,14.1796557 6.53696337,13.4034429 C6.87577823,13.7256129 7.36003608,14.1208138 7.97669363,14.4597809 C8.70608243,14.8607199 9.71341743,15.2316119 10.943834,15.2316119 C11.4114254,15.2316119 11.9117286,15.1768388 12.4406028,15.0510172 C12.3202112,17.2786646 10.4844205,19.0537298 8.24470209,19.0537298 Z" id="Shape"></path>
                    <path d="M52.1555995,21.9293009 L47.7161556,19.7650313 C47.4084734,19.6149854 47.2173488,19.31345 47.2173488,18.9780898 L47.2173488,17.8819816 C48.2565296,16.9824284 48.913038,15.6715123 48.913038,14.2133347 L48.913038,13.3329626 C48.9313361,13.3329626 48.9493168,13.3334782 48.9676148,13.3334782 C49.4057102,13.3334782 49.7608826,12.9871868 49.7608826,12.560046 L49.7608826,10.9067572 C49.7608826,8.20118814 47.5032425,6 44.7282859,6 L43.0325967,6 C40.2576402,6 38,8.20118814 38,10.9067572 L38,12.560046 C38,12.9871868 38.3551724,13.3334782 38.7932678,13.3334782 C38.7998255,13.3334782 38.8188639,13.3332719 38.8478446,13.3321376 L38.8478446,14.2133347 C38.8478446,15.6716154 39.5044588,16.9825315 40.5436396,17.8820847 L40.5436396,18.9781929 C40.5436396,19.3136562 40.352515,19.6151917 40.0447271,19.7651344 C39.6528528,19.9561206 39.4939877,20.4206956 39.6899777,20.8027711 C39.8289582,21.0737818 40.1091404,21.2305307 40.4001111,21.2305307 C40.5193128,21.2305307 40.6403125,21.204234 40.7542258,21.1487531 C40.8947929,21.0801755 41.0256292,20.9992229 41.1475809,20.9092985 L43.0871735,22.8003919 L43.0871735,33.2265678 C43.0871735,33.6537086 43.442346,34 43.8804413,34 C44.3185367,34 44.6737091,33.6537086 44.6737091,33.2265678 L44.6737091,22.8001856 L46.613196,20.9090922 C46.7352535,20.9991198 46.865984,21.0800723 47.0065511,21.1485469 L51.3023606,23.2427951 L49.9993918,24.5131833 C49.3692199,25.127701 49.0220859,25.9446517 49.0220859,26.8136802 L49.0220859,33.2263615 C49.0220859,33.6535024 49.3772583,33.9997938 49.8153537,33.9997938 C50.2534491,33.9997938 50.6086215,33.6535024 50.6086215,33.2263615 L50.6086215,26.8136802 C50.6086215,26.3578708 50.79065,25.9292862 51.121284,25.6069196 L52.355503,24.4035622 C52.3929452,24.5435019 52.4134644,24.6894228 52.4134644,24.8391592 L52.4134644,33.2263615 C52.4134644,33.6535024 52.7686368,33.9997938 53.2067322,33.9997938 C53.6448276,33.9997938 54,33.6535024 54,33.2263615 L54,24.8391592 C54.0001058,23.5989864 53.293357,22.4840065 52.1555995,21.9293009 Z M39.5864298,11.6274929 L39.5864298,10.9066541 L39.5865356,10.9066541 C39.5865356,9.05402608 41.1324559,7.54676134 43.0325967,7.54676134 L44.7282859,7.54676134 C46.6284268,7.54676134 48.174347,9.05402608 48.174347,10.9066541 L48.174347,11.7657826 C44.725959,11.584387 42.6449532,10.276049 42.6247513,10.2631585 C42.4905304,10.1759153 42.3373768,10.1332219 42.1849636,10.1332219 C41.9801947,10.1332219 41.7771182,10.2103588 41.6237531,10.3597859 C40.8647545,11.0998059 40.1210923,11.4559972 39.5864298,11.6274929 Z M43.8804413,21.3860421 L42.0473581,19.5987949 C42.1008772,19.3993525 42.1301752,19.1914539 42.1301752,18.9780898 L42.1301752,18.8134003 C42.6755204,19.0112958 43.2651828,19.1199888 43.8804413,19.1199888 C44.4956998,19.1199888 45.0853622,19.0112958 45.6307074,18.8134003 L45.6307074,18.9780898 C45.6307074,19.1914539 45.6598997,19.3993525 45.7135246,19.5987949 L43.8804413,21.3860421 Z M43.8804413,17.5732275 C41.9803005,17.5732275 40.4343802,16.0660658 40.4343802,14.2133347 L40.4343802,12.9664588 C40.989985,12.7500009 41.6372915,12.4058751 42.2960211,11.8586976 C43.1290581,12.281301 44.8719203,13.0117304 47.3265024,13.2530412 L47.3265024,14.2133347 C47.3265024,16.0659627 45.7805821,17.5732275 43.8804413,17.5732275 Z" id="Shape"></path>
                </g>
            </g>
        </g>
    </g>
</svg>