<?xml version="1.0" encoding="UTF-8"?>
<svg width="65px" height="77px" viewBox="0 0 65 77" version="1.1" xmlns="http://www.w3.org/2000/svg" xmlns:xlink="http://www.w3.org/1999/xlink">
    <!-- Generator: Sketch 41 (35326) - http://www.bohemiancoding.com/sketch -->
    <title>invoice</title>
    <desc>Created with Sketch.</desc>
    <defs></defs>
    <g id="Page-1" stroke="none" stroke-width="1" fill="none" fill-rule="evenodd">
        <g id="invoice">
            <g id="Layer_1">
                <g id="Group">
                    <g id="XMLID_2160_" transform="translate(16.691207, 18.895706)" fill="#FFFFFF">
                        <path d="M34.4374233,53.7267894 L37.3662577,50.797955 L40.295092,53.7267894 L43.2239264,56.6556237 L46.1527607,53.7267894 L46.1527607,5.08609407 C46.1527607,2.28323108 43.8852761,2.23770105e-15 41.0666667,2.23770105e-15 L0.110224949,2.23770105e-15 C2.91308793,2.23770105e-15 5.19631902,2.26748466 5.19631902,5.08609407 L5.19631902,53.7110429 L8.12515337,56.6398773 L11.0539877,53.7110429 L13.9828221,50.7822086 L16.9116564,53.7110429 L19.8404908,56.6398773 L22.7693252,53.7110429 L25.6981595,50.7822086 L28.6269939,53.7110429 L31.5558282,56.6398773 L34.4374233,53.7267894 Z" id="XMLID_2161_"></path>
                    </g>
                    <path d="M29.1623722,31.3353783 L55.805317,31.3353783 C56.592638,31.3353783 57.2382413,30.6897751 57.2382413,29.902454 C57.2382413,29.1151329 56.592638,28.4695297 55.805317,28.4695297 L29.1623722,28.4695297 C28.3750511,28.4695297 27.7294479,29.1151329 27.7294479,29.902454 C27.7294479,30.6897751 28.3750511,31.3353783 29.1623722,31.3353783 Z" id="Shape" fill="#00AAFF"></path>
                    <path d="M29.1623722,38.9408998 L48.5147239,38.9408998 C49.302045,38.9408998 49.9476483,38.2952965 49.9476483,37.5079755 C49.9476483,36.7206544 49.302045,36.0750511 48.5147239,36.0750511 L29.1623722,36.0750511 C28.3750511,36.0750511 27.7294479,36.7206544 27.7294479,37.5079755 C27.7294479,38.3110429 28.3750511,38.9408998 29.1623722,38.9408998 Z" id="Shape" fill="#00AAFF"></path>
                    <path d="M29.1623722,45.9165644 L55.805317,45.9165644 C56.592638,45.9165644 57.2382413,45.2709611 57.2382413,44.4836401 C57.2382413,43.696319 56.592638,43.0507157 55.805317,43.0507157 L29.1623722,43.0507157 C28.3750511,43.0507157 27.7294479,43.696319 27.7294479,44.4836401 C27.7294479,45.2867076 28.3750511,45.9165644 29.1623722,45.9165644 Z" id="Shape" fill="#00AAFF"></path>
                    <path d="M31.697546,51.0026585 L29.1623722,51.0026585 C28.3750511,51.0026585 27.7294479,51.6482618 27.7294479,52.4355828 C27.7294479,53.2229039 28.3750511,53.8685072 29.1623722,53.8685072 L31.697546,53.8685072 C32.4848671,53.8685072 33.1304703,53.2229039 33.1304703,52.4355828 C33.1304703,51.6482618 32.4848671,51.0026585 31.697546,51.0026585 Z" id="Shape" fill="#00AAFF"></path>
                    <path d="M31.697546,57.9783231 L29.1623722,57.9783231 C28.3750511,57.9783231 27.7294479,58.6239264 27.7294479,59.4112474 C27.7294479,60.1985685 28.3750511,60.8441718 29.1623722,60.8441718 L31.697546,60.8441718 C32.4848671,60.8441718 33.1304703,60.1985685 33.1304703,59.4112474 C33.1147239,58.60818 32.4848671,57.9783231 31.697546,57.9783231 Z" id="Shape" fill="#00AAFF"></path>
                    <path d="M55.805317,51.0026585 L37.3977505,51.0026585 C36.6104294,51.0026585 35.9648262,51.6482618 35.9648262,52.4355828 C35.9648262,53.2229039 36.6104294,53.8685072 37.3977505,53.8685072 L55.805317,53.8685072 C56.592638,53.8685072 57.2382413,53.2229039 57.2382413,52.4355828 C57.2382413,51.6482618 56.592638,51.0026585 55.805317,51.0026585 Z" id="Shape" fill="#00AAFF"></path>
                    <path d="M49.9319018,59.395501 C49.9319018,58.60818 49.2862986,57.9625767 48.4989775,57.9625767 L37.3977505,57.9625767 C36.6104294,57.9625767 35.9648262,58.60818 35.9648262,59.395501 C35.9648262,60.1828221 36.6104294,60.8284254 37.3977505,60.8284254 L48.4989775,60.8284254 C49.2862986,60.8284254 49.9319018,60.1828221 49.9319018,59.395501 Z" id="Shape" fill="#00AAFF"></path>
                    <path d="M47.1920245,76.5591002 C47.7431493,77.1102249 48.6564417,77.1102249 49.2075665,76.5591002 L54.0574642,71.7092025 L58.907362,76.5591002 C59.1907975,76.8425358 59.5529652,76.9842536 59.9151329,76.9842536 C60.2773006,76.9842536 60.6394683,76.8425358 60.9229039,76.5591002 L63.8517382,73.6302658 C64.1194274,73.3625767 64.2768916,73.000409 64.2768916,72.6224949 L64.2768916,23.9817996 C64.2768916,20.3916155 61.3638037,17.4785276 57.7736196,17.4785276 L46.8298569,17.4785276 L46.8298569,1.43292434 C46.8298569,0.645603272 46.1842536,0 45.3969325,0 L1.54314928,0 C0.755828221,0 0.110224949,0.645603272 0.110224949,1.43292434 L0.110224949,50.0578732 C0.110224949,53.6480573 3.02331288,56.5611452 6.61349693,56.5611452 L14.8646217,56.5611452 C15.6519427,56.5611452 16.297546,55.9155419 16.297546,55.1282209 C16.297546,54.3408998 15.6519427,53.6952965 14.8646217,53.6952965 L11.998773,53.6952965 C12.707362,52.6560327 13.1325153,51.396319 13.1325153,50.0421268 L13.1325153,23.9817996 C13.1325153,21.9662577 14.7701431,20.3286299 16.7856851,20.3286299 C18.801227,20.3286299 20.4388548,21.9662577 20.4388548,23.9817996 L20.4388548,72.6067485 C20.4388548,72.701227 20.4546012,72.7957055 20.4703476,72.890184 C20.4860941,72.9531697 20.5018405,73.000409 20.5175869,73.0633947 C20.5333333,73.0948875 20.5333333,73.1263804 20.5490798,73.1578732 C20.5805726,73.2208589 20.6120654,73.2838446 20.6435583,73.3310838 C20.6593047,73.3468303 20.6593047,73.3783231 20.6750511,73.3940695 C20.7222904,73.4728016 20.7852761,73.5515337 20.8482618,73.6145194 L23.7770961,76.5433538 C24.3282209,77.0944785 25.2415133,77.0944785 25.792638,76.5433538 L30.6425358,71.693456 L35.4924335,76.5433538 C36.0435583,77.0944785 36.9568507,77.0944785 37.5079755,76.5433538 L42.3578732,71.693456 L47.1920245,76.5591002 Z M10.2824131,23.9817996 L10.2824131,50.0578732 C10.2824131,52.0734151 8.64478528,53.7110429 6.62924335,53.7110429 C4.61370143,53.7110429 2.97607362,52.0734151 2.97607362,50.0578732 L2.97607362,2.85010225 L43.9797546,2.85010225 L43.9797546,17.4785276 L16.7856851,17.4785276 C13.195501,17.4785276 10.2824131,20.3916155 10.2824131,23.9817996 Z M36.5002045,73.5200409 L31.6503067,68.6701431 C31.3668712,68.3867076 31.0047035,68.2449898 30.6425358,68.2449898 C30.2803681,68.2449898 29.9182004,68.3867076 29.6347648,68.6701431 L24.7848671,73.5200409 L23.2889571,72.0241309 L23.2889571,23.9817996 C23.2889571,23.7770961 23.2732106,23.5723926 23.2574642,23.3834356 C23.2574642,23.3204499 23.2417178,23.2732106 23.2417178,23.2102249 C23.2259714,23.0685072 23.2102249,22.9267894 23.1787321,22.7850716 C23.1629857,22.7220859 23.1629857,22.6748466 23.1472393,22.6118609 C23.1157464,22.4386503 23.0685072,22.2496933 23.0055215,22.0764826 C23.0055215,22.0607362 23.0055215,22.0607362 22.9897751,22.0449898 C22.9267894,21.8560327 22.8638037,21.6828221 22.7850716,21.5096115 C22.7693252,21.4623722 22.7378323,21.4151329 22.7220859,21.3521472 C22.6591002,21.2261759 22.6118609,21.1002045 22.5331288,20.9742331 C22.501636,20.9269939 22.4858896,20.8797546 22.4543967,20.8167689 C22.3756646,20.6750511 22.2811861,20.5175869 22.1867076,20.3758691 C22.1709611,20.3601227 22.1709611,20.3443763 22.1552147,20.3286299 C22.1552147,20.3286299 22.1552147,20.3286299 22.1552147,20.3128834 L57.7263804,20.3128834 C59.7419223,20.3128834 61.3795501,21.9505112 61.3795501,23.9660532 L61.3795501,72.0241309 L59.8836401,73.5200409 L55.0337423,68.6701431 C54.4826176,68.1190184 53.5693252,68.1190184 53.0182004,68.6701431 L48.1683027,73.5200409 L43.3656442,68.6858896 C42.8145194,68.1347648 41.901227,68.1347648 41.3501022,68.6858896 L36.5002045,73.5200409 Z" id="Shape" fill="#00AAFF"></path>
                </g>
            </g>
        </g>
    </g>
</svg>