<?xml version="1.0" encoding="UTF-8"?>
<svg width="200px" height="200px" viewBox="0 0 200 200" version="1.1" xmlns="http://www.w3.org/2000/svg" xmlns:xlink="http://www.w3.org/1999/xlink">
    <!-- Generator: Sketch 48.2 (47327) - http://www.bohemiancoding.com/sketch -->
    <title>create-bid-icon2</title>
    <desc>Created with Sketch.</desc>
    <defs></defs>
    <g id="Page-1" stroke="none" stroke-width="1" fill="none" fill-rule="evenodd">
        <g id="create-bid-icon2" fill-rule="nonzero">
            <circle id="Oval" fill="#1BB933" cx="100" cy="100" r="100"></circle>
            <g id="list-1" transform="translate(42.612474, 37.500000)" fill="#FFFFFF">
                <g id="Layer_1">
                    <g id="Group">
                        <path d="M21.2994162,75 L9.72245318,75 C6.57510394,75 4,72.2009569 4,68.8038278 L4,56.2200957 C4,52.7990431 6.57510394,50 9.70044375,50 L21.2774068,50 C24.424756,50 26.99986,52.7990431 26.99986,56.1961722 L26.99986,68.7799043 C27.0218694,72.2009569 24.4467655,75 21.2994162,75 Z" id="XMLID_163_"></path>
                        <g id="XMLID_155_" transform="translate(0.000000, 46.523517)">
                            <path d="M15.7719836,31.5695297 C7.13190184,31.5695297 0.102249489,24.5398773 0.0766871166,15.8997955 C0.0766871166,11.7331288 1.71267894,7.79652352 4.67791411,4.83128834 C7.64314928,1.86605317 11.5797546,0.23006135 15.7464213,0.23006135 C24.3865031,0.23006135 31.4161554,7.2597137 31.4417178,15.8997955 C31.4417178,20.0664622 29.805726,24.0030675 26.8404908,26.9683027 C23.8752556,29.9335378 19.9386503,31.5695297 15.7719836,31.5695297 Z M15.7719836,4.85685072 C12.8323108,4.85685072 10.0715746,6.00715746 7.97546012,8.10327198 C5.8793456,10.1993865 4.72903885,12.9601227 4.72903885,15.8997955 C4.72903885,21.9836401 9.68813906,26.9427403 15.7719836,26.9427403 L15.7719836,29.2689162 L15.7719836,26.9427403 C18.7116564,26.9427403 21.4723926,25.7924335 23.5685072,23.696319 C25.6646217,21.6002045 26.8149284,18.8394683 26.8149284,15.8997955 C26.8149284,9.81595092 21.8558282,4.85685072 15.7719836,4.85685072 Z" id="Shape"></path>
                        </g>
                        <path d="M15.7208589,31.3394683 C19.9130879,31.3394683 23.8496933,29.7034765 26.8149284,26.7382413 C29.7801636,23.7730061 31.4161554,19.8364008 31.4161554,15.6697342 C31.4161554,7.02965235 24.3865031,0 15.7208589,0 C11.5541922,0 7.61758691,1.63599182 4.65235174,4.60122699 C1.68711656,7.56646217 0.0511247444,11.5030675 0.0511247444,15.6697342 C0.0511247444,24.309816 7.0807771,31.3394683 15.7208589,31.3394683 Z M7.92433538,7.87321063 C10.0204499,5.77709611 12.7811861,4.62678937 15.7208589,4.62678937 C21.8047035,4.62678937 26.7638037,9.58588957 26.7638037,15.6697342 C26.7638037,18.609407 25.6134969,21.3701431 23.5173824,23.4662577 C21.4212679,25.5623722 18.6605317,26.7126789 15.7208589,26.7126789 L15.7208589,29.0388548 L15.7208589,26.7126789 C9.63701431,26.7126789 4.67791411,21.7535787 4.67791411,15.6697342 C4.67791411,12.7300613 5.82822086,9.96932515 7.92433538,7.87321063 Z" id="Shape"></path>
                        <path d="M15.797546,93.5071575 C11.6308793,93.5071575 7.69427403,95.1431493 4.72903885,98.1083845 C1.76380368,101.07362 0.127811861,105.010225 0.127811861,109.176892 C0.127811861,117.816973 7.15746421,124.846626 15.797546,124.846626 C24.4376278,124.846626 31.4672802,117.791411 31.4672802,109.151329 C31.4672802,100.53681 24.4376278,93.5071575 15.797546,93.5071575 Z M15.8231084,120.219836 L15.8231084,122.546012 L15.8231084,120.219836 C9.7392638,120.219836 4.7801636,115.260736 4.7801636,109.176892 C4.7801636,106.237219 5.93047035,103.476483 8.02658487,101.380368 C10.1226994,99.2842536 12.8834356,98.1339468 15.8231084,98.1339468 C21.906953,98.1339468 26.8660532,103.093047 26.8660532,109.176892 C26.8404908,115.260736 21.906953,120.219836 15.8231084,120.219836 Z" id="Shape"></path>
                        <path d="M114.570552,14.7494888 C114.570552,13.4713701 113.522495,12.4233129 112.244376,12.4233129 L48.6451943,12.4744376 C47.3670757,12.4744376 46.3190184,13.5224949 46.3190184,14.8006135 C46.3190184,16.0787321 47.3670757,17.1267894 48.6451943,17.1267894 L112.244376,17.0756646 C113.522495,17.0501022 114.570552,16.0276074 114.570552,14.7494888 Z" id="Shape"></path>
                        <path d="M45.5010225,62.3977505 C45.5010225,63.0112474 45.7566462,63.599182 46.1656442,64.0337423 C46.6002045,64.4683027 47.1881391,64.7239264 47.801636,64.7239264 C48.4151329,64.7239264 49.0030675,64.4683027 49.4376278,64.0337423 C49.8721881,63.599182 50.1278119,63.0112474 50.1278119,62.3977505 C50.1278119,61.7842536 49.8721881,61.196319 49.4376278,60.7617587 C49.0030675,60.3271984 48.4151329,60.0715746 47.801636,60.0715746 C47.1881391,60.0715746 46.6002045,60.3271984 46.1656442,60.7617587 C45.7566462,61.196319 45.5010225,61.7842536 45.5010225,62.3977505 Z" id="Shape"></path>
                        <path d="M58.0777096,62.3977505 C58.0777096,61.1196319 57.0552147,60.0715746 55.7515337,60.0715746 C54.4734151,60.0715746 53.4253579,61.1196319 53.4509202,62.3977505 C53.4509202,63.6758691 54.4734151,64.7239264 55.7770961,64.7239264 C57.0552147,64.698364 58.103272,63.6758691 58.0777096,62.3977505 Z" id="Shape"></path>
                        <path d="M66.0276074,62.3721881 C66.0276074,61.0940695 65.0051125,60.0715746 63.7014315,60.0715746 C62.4233129,60.0715746 61.3752556,61.1196319 61.3752556,62.3977505 C61.3752556,63.6758691 62.4233129,64.7239264 63.7014315,64.7239264 C65.0051125,64.698364 66.0531697,63.6758691 66.0276074,62.3721881 Z" id="Shape"></path>
                        <path d="M105.802658,62.3466258 C105.802658,61.0685072 104.754601,60.0204499 103.476483,60.0204499 C102.198364,60.0204499 101.175869,61.0685072 101.175869,62.3466258 C101.175869,63.6247444 102.223926,64.6728016 103.502045,64.6728016 C104.754601,64.6728016 105.802658,63.6247444 105.802658,62.3466258 Z" id="Shape"></path>
                        <path d="M89.902863,62.3721881 C89.902863,61.0940695 88.8548057,60.0460123 87.5766871,60.0460123 C86.2985685,60.0460123 85.2760736,61.0940695 85.2760736,62.3721881 C85.2760736,63.6503067 86.2985685,64.6728016 87.6022495,64.6728016 C88.8548057,64.6728016 89.902863,63.6503067 89.902863,62.3721881 Z" id="Shape"></path>
                        <path d="M81.9529652,62.3721881 C81.9529652,61.0940695 80.904908,60.0460123 79.6267894,60.0460123 C78.3486708,60.0460123 77.3261759,61.0940695 77.3261759,62.3721881 C77.3261759,63.6503067 78.3486708,64.6728016 79.6523517,64.6728016 C80.904908,64.698364 81.9529652,63.6503067 81.9529652,62.3721881 Z" id="Shape"></path>
                        <path d="M97.8527607,62.3721881 C97.8527607,61.0940695 96.8047035,60.0460123 95.5265849,60.0460123 C94.2484663,60.0460123 93.2259714,61.0940695 93.2259714,62.3721881 C93.2259714,63.6503067 94.2740286,64.698364 95.5521472,64.698364 C96.8047035,64.6728016 97.8527607,63.6503067 97.8527607,62.3721881 Z" id="Shape"></path>
                        <path d="M74.0030675,62.3721881 C74.0030675,61.0940695 72.9550102,60.0460123 71.6768916,60.0715746 C70.398773,60.0715746 69.3507157,61.0940695 69.3762781,62.3977505 C69.3762781,63.6758691 70.398773,64.7239264 71.702454,64.698364 C72.9550102,64.698364 74.0030675,63.6503067 74.0030675,62.3721881 Z" id="Shape"></path>
                        <path d="M113.062372,63.9826176 C113.496933,63.5480573 113.752556,62.9601227 113.752556,62.3466258 C113.752556,61.7331288 113.496933,61.1451943 113.062372,60.7106339 C112.627812,60.2760736 112.039877,60.0204499 111.42638,60.0204499 C110.812883,60.0204499 110.224949,60.2760736 109.790389,60.7106339 C109.355828,61.1451943 109.100204,61.7331288 109.100204,62.3466258 C109.100204,62.9601227 109.355828,63.5480573 109.790389,63.9826176 C110.224949,64.4171779 110.812883,64.6728016 111.42638,64.6728016 C112.039877,64.6728016 112.627812,64.4171779 113.062372,63.9826176 Z" id="Shape"></path>
                        <path d="M45.5521472,109.151329 C45.5521472,110.429448 46.6002045,111.477505 47.8783231,111.477505 L111.477505,111.42638 C112.755624,111.42638 113.803681,110.378323 113.803681,109.100204 C113.803681,107.822086 112.755624,106.774029 111.477505,106.774029 L47.8527607,106.850716 C46.5746421,106.850716 45.5521472,107.873211 45.5521472,109.151329 Z" id="Shape"></path>
                    </g>
                </g>
            </g>
        </g>
    </g>
</svg>