<?xml version="1.0" encoding="UTF-8"?>
<svg width="71px" height="77px" viewBox="0 0 71 77" version="1.1" xmlns="http://www.w3.org/2000/svg" xmlns:xlink="http://www.w3.org/1999/xlink">
    <!-- Generator: Sketch 41 (35326) - http://www.bohemiancoding.com/sketch -->
    <title>list-1</title>
    <desc>Created with Sketch.</desc>
    <defs></defs>
    <g id="Page-1" stroke="none" stroke-width="1" fill="none" fill-rule="evenodd">
        <g id="list-1" fill="#1BB933">
            <g id="Layer_1">
                <g id="Group">
                    <path d="M13.8568507,46.6723926 L5.57423313,46.6723926 C3.32249489,46.6723926 1.4801636,44.8300613 1.4801636,42.5940695 L1.4801636,34.3114519 C1.4801636,32.0597137 3.32249489,30.2173824 5.55848671,30.2173824 L13.8411043,30.2173824 C16.0928425,30.2173824 17.9351738,32.0597137 17.9351738,34.2957055 L17.9351738,42.5783231 C17.9509202,44.8300613 16.108589,46.6723926 13.8568507,46.6723926 Z" id="XMLID_163_"></path>
                    <g id="XMLID_155_" transform="translate(0.000000, 28.658487)">
                        <path d="M9.71554192,19.4468303 L9.71554192,19.4468303 C4.39325153,19.4468303 0.0629856851,15.1165644 0.0472392638,9.79427403 C0.0472392638,7.22760736 1.05501022,4.80265849 2.88159509,2.97607362 C4.70817996,1.14948875 7.13312883,0.141717791 9.6997955,0.141717791 C15.0220859,0.141717791 19.3523517,4.47198364 19.3680982,9.79427403 C19.3680982,12.3609407 18.3603272,14.7858896 16.5337423,16.6124744 C14.7071575,18.4390593 12.2822086,19.4468303 9.71554192,19.4468303 Z M9.71554192,2.99182004 C7.90470348,2.99182004 6.20408998,3.700409 4.91288344,4.99161554 C3.62167689,6.28282209 2.91308793,7.98343558 2.91308793,9.79427403 C2.91308793,13.5419223 5.96789366,16.596728 9.71554192,16.596728 L9.71554192,18.0296524 L9.71554192,16.596728 C11.5263804,16.596728 13.2269939,15.8881391 14.5182004,14.5969325 C15.809407,13.305726 16.5179959,11.6051125 16.5179959,9.79427403 C16.5179959,6.04662577 13.4631902,2.99182004 9.71554192,2.99182004 Z" id="Shape"></path>
                    </g>
                    <path d="M9.68404908,19.3051125 L9.68404908,19.3051125 C12.2664622,19.3051125 14.691411,18.2973415 16.5179959,16.4707566 C18.3445808,14.6441718 19.3523517,12.2192229 19.3523517,9.65255624 C19.3523517,4.33026585 15.0220859,0 9.68404908,0 C7.11738241,0 4.69243354,1.00777096 2.86584867,2.83435583 C1.0392638,4.6609407 0.0314928425,7.08588957 0.0314928425,9.65255624 C0.0314928425,14.9748466 4.36175869,19.3051125 9.68404908,19.3051125 Z M4.88139059,4.84989775 C6.17259714,3.55869121 7.87321063,2.85010225 9.68404908,2.85010225 C13.4316973,2.85010225 16.4865031,5.90490798 16.4865031,9.65255624 C16.4865031,11.4633947 15.7779141,13.1640082 14.4867076,14.4552147 C13.195501,15.7464213 11.4948875,16.4550102 9.68404908,16.4550102 L9.68404908,17.8879346 L9.68404908,16.4550102 C5.93640082,16.4550102 2.88159509,13.4002045 2.88159509,9.65255624 C2.88159509,7.84171779 3.59018405,6.14110429 4.88139059,4.84989775 Z" id="Shape"></path>
                    <path d="M9.73128834,57.600409 C7.16462168,57.600409 4.7396728,58.60818 2.91308793,60.4347648 C1.08650307,62.2613497 0.0787321063,64.6862986 0.0787321063,67.2529652 C0.0787321063,72.5752556 4.40899796,76.9055215 9.73128834,76.9055215 L9.73128834,76.9055215 C15.0535787,76.9055215 19.3838446,72.5595092 19.3838446,67.2372188 C19.3838446,61.9306748 15.0535787,57.600409 9.73128834,57.600409 Z M9.74703476,74.0554192 L9.74703476,75.4883436 L9.74703476,74.0554192 C5.9993865,74.0554192 2.94458078,71.0006135 2.94458078,67.2529652 C2.94458078,65.4421268 3.65316973,63.7415133 4.94437628,62.4503067 C6.23558282,61.1591002 7.93619632,60.4505112 9.74703476,60.4505112 C13.494683,60.4505112 16.5494888,63.505317 16.5494888,67.2529652 C16.5337423,71.0006135 13.494683,74.0554192 9.74703476,74.0554192 Z" id="Shape"></path>
                    <path d="M70.5754601,9.08568507 C70.5754601,8.29836401 69.9298569,7.65276074 69.1425358,7.65276074 L69.1425358,7.65276074 L29.9654397,7.68425358 C29.1781186,7.68425358 28.5325153,8.32985685 28.5325153,9.11717791 C28.5325153,9.90449898 29.1781186,10.5501022 29.9654397,10.5501022 L29.9654397,10.5501022 L69.1425358,10.5186094 C69.9298569,10.502863 70.5754601,9.87300613 70.5754601,9.08568507 Z" id="Shape"></path>
                    <path d="M28.0286299,38.4370143 C28.0286299,38.8149284 28.1860941,39.1770961 28.4380368,39.4447853 C28.705726,39.7124744 29.0678937,39.8699387 29.4458078,39.8699387 C29.8237219,39.8699387 30.1858896,39.7124744 30.4535787,39.4447853 C30.7212679,39.1770961 30.8787321,38.8149284 30.8787321,38.4370143 C30.8787321,38.0591002 30.7212679,37.6969325 30.4535787,37.4292434 C30.1858896,37.1615542 29.8237219,37.00409 29.4458078,37.00409 C29.0678937,37.00409 28.705726,37.1615542 28.4380368,37.4292434 C28.1860941,37.6969325 28.0286299,38.0591002 28.0286299,38.4370143 Z" id="Shape"></path>
                    <path d="M35.7758691,38.4370143 C35.7758691,37.6496933 35.1460123,37.00409 34.3429448,37.00409 C33.5556237,37.00409 32.9100204,37.6496933 32.9257669,38.4370143 C32.9257669,39.2243354 33.5556237,39.8699387 34.3586912,39.8699387 C35.1460123,39.8541922 35.7916155,39.2243354 35.7758691,38.4370143 Z" id="Shape"></path>
                    <path d="M40.6730061,38.4212679 C40.6730061,37.6339468 40.0431493,37.00409 39.2400818,37.00409 C38.4527607,37.00409 37.8071575,37.6496933 37.8071575,38.4370143 C37.8071575,39.2243354 38.4527607,39.8699387 39.2400818,39.8699387 C40.0431493,39.8541922 40.6887526,39.2243354 40.6730061,38.4212679 Z" id="Shape"></path>
                    <path d="M65.1744376,38.4055215 C65.1744376,37.6182004 64.5288344,36.9725971 63.7415133,36.9725971 C62.9541922,36.9725971 62.3243354,37.6182004 62.3243354,38.4055215 C62.3243354,39.1928425 62.9699387,39.8384458 63.7572597,39.8384458 C64.5288344,39.8384458 65.1744376,39.1928425 65.1744376,38.4055215 Z" id="Shape"></path>
                    <path d="M55.3801636,38.4212679 C55.3801636,37.6339468 54.7345603,36.9883436 53.9472393,36.9883436 C53.1599182,36.9883436 52.5300613,37.6339468 52.5300613,38.4212679 C52.5300613,39.208589 53.1599182,39.8384458 53.9629857,39.8384458 C54.7345603,39.8384458 55.3801636,39.208589 55.3801636,38.4212679 Z" id="Shape"></path>
                    <path d="M50.4830266,38.4212679 C50.4830266,37.6339468 49.8374233,36.9883436 49.0501022,36.9883436 C48.2627812,36.9883436 47.6329243,37.6339468 47.6329243,38.4212679 C47.6329243,39.208589 48.2627812,39.8384458 49.0658487,39.8384458 C49.8374233,39.8541922 50.4830266,39.208589 50.4830266,38.4212679 Z" id="Shape"></path>
                    <path d="M60.2773006,38.4212679 C60.2773006,37.6339468 59.6316973,36.9883436 58.8443763,36.9883436 C58.0570552,36.9883436 57.4271984,37.6339468 57.4271984,38.4212679 C57.4271984,39.208589 58.0728016,39.8541922 58.8601227,39.8541922 C59.6316973,39.8384458 60.2773006,39.208589 60.2773006,38.4212679 Z" id="Shape"></path>
                    <path d="M45.5858896,38.4212679 C45.5858896,37.6339468 44.9402863,36.9883436 44.1529652,37.00409 C43.3656442,37.00409 42.7200409,37.6339468 42.7357873,38.4370143 C42.7357873,39.2243354 43.3656442,39.8699387 44.1687117,39.8541922 C44.9402863,39.8541922 45.5858896,39.208589 45.5858896,38.4212679 Z" id="Shape"></path>
                    <path d="M69.6464213,39.4132924 C69.9141104,39.1456033 70.0715746,38.7834356 70.0715746,38.4055215 C70.0715746,38.0276074 69.9141104,37.6654397 69.6464213,37.3977505 C69.3787321,37.1300613 69.0165644,36.9725971 68.6386503,36.9725971 C68.2607362,36.9725971 67.8985685,37.1300613 67.6308793,37.3977505 C67.3631902,37.6654397 67.205726,38.0276074 67.205726,38.4055215 C67.205726,38.7834356 67.3631902,39.1456033 67.6308793,39.4132924 C67.8985685,39.6809816 68.2607362,39.8384458 68.6386503,39.8384458 C69.0165644,39.8384458 69.3787321,39.6809816 69.6464213,39.4132924 Z" id="Shape"></path>
                    <path d="M28.0601227,67.2372188 C28.0601227,68.0245399 28.705726,68.6701431 29.493047,68.6701431 L29.493047,68.6701431 L68.6701431,68.6386503 C69.4574642,68.6386503 70.1030675,67.993047 70.1030675,67.205726 C70.1030675,66.4184049 69.4574642,65.7728016 68.6701431,65.7728016 L68.6701431,65.7728016 L29.4773006,65.8200409 C28.6899796,65.8200409 28.0601227,66.4498978 28.0601227,67.2372188 Z" id="Shape"></path>
                </g>
            </g>
        </g>
    </g>
</svg>