<?xml version="1.0" encoding="UTF-8"?>
<svg width="45px" height="59px" viewBox="0 0 45 59" version="1.1" xmlns="http://www.w3.org/2000/svg" xmlns:xlink="http://www.w3.org/1999/xlink">
    <!-- Generator: Sketch 41 (35326) - http://www.bohemiancoding.com/sketch -->
    <title>Group</title>
    <desc>Created with Sketch.</desc>
    <defs></defs>
    <g id="Consumers" stroke="none" stroke-width="1" fill="none" fill-rule="evenodd">
        <g id="Desktop-HD" transform="translate(-825.000000, -723.000000)">
            <g id="Group-9" transform="translate(825.000000, 723.000000)">
                <g id="Group-7-Copy">
                    <g id="Group" transform="translate(0.000000, 0.652174)">
                        <path d="M19.1150423,33.7234865 C19.17568,33.4558718 19.051979,33.2367674 18.8381299,33.2355547 L11.7055126,33.2222143 C11.4912592,33.2222143 11.3772602,33.0059397 11.4480043,32.7447931 L20.4248178,0.0537654779 C18.0231584,0.247402049 15.7266044,0.817396965 13.6006447,1.71483577 C10.9479449,2.83825128 8.55841303,4.46213042 6.55211178,6.47085718 C4.54338501,8.47715844 2.91991013,10.8666903 1.79811162,13.5193901 C0.676717369,16.1741111 0.0549782331,19.0903829 0.0549782331,22.1525897 C0.0549782331,25.2147964 0.676717369,28.1318768 1.79811162,30.7857893 C2.14415109,31.602782 3.5865212,34.1709931 3.90790132,34.6423506 L14.8825268,52.1234075 L19.1150423,33.7234865" id="Fill-29" fill="#1BB933"></path>
                        <path d="M42.6707897,13.5193901 C41.5477784,10.8666903 39.9243035,8.47715844 37.917598,6.47085718 C35.9088712,4.46213042 33.5209564,2.83825128 30.8670439,1.71483577 L30.7865978,1.68492114 L25.3199018,19.1223188 C25.2346047,19.3786144 25.3405187,19.5892295 25.5543678,19.5892295 L32.8074521,19.5892295 C33.020897,19.5892295 33.1029601,19.7836746 32.9905781,20.0201619 L16.5403631,54.7372991 C16.8027225,55.1520613 17.099039,55.5462067 17.4450785,55.8910334 C18.0583283,56.503879 18.7880027,57.0011087 19.5977188,57.3427014 C20.4082435,57.6875281 21.2996185,57.8734839 22.2338443,57.8734839 C23.1684742,57.8734839 24.059445,57.6875281 24.8699697,57.3427014 C25.6796859,57.0011087 26.410573,56.503879 27.0238228,55.8910334 C27.4341383,55.479101 27.7862415,55.0121902 28.0805368,54.5068756 L28.0870048,54.5068756 L40.5581702,34.6476059 C40.8823801,34.1709931 42.3247502,31.602782 42.6707897,30.7857893 C43.7921839,28.1318768 44.412306,25.2147964 44.412306,22.1525897 C44.412306,19.0903829 43.7921839,16.1741111 42.6707897,13.5193901" id="Fill-30" fill="#00AAFF"></path>
                    </g>
                </g>
            </g>
        </g>
    </g>
</svg>