<?xml version="1.0" encoding="UTF-8"?>
<svg width="491px" height="489px" viewBox="0 0 491 489" version="1.1" xmlns="http://www.w3.org/2000/svg" xmlns:xlink="http://www.w3.org/1999/xlink">
    <!-- Generator: Sketch 41 (35326) - http://www.bohemiancoding.com/sketch -->
    <title>settings-1</title>
    <desc>Created with Sketch.</desc>
    <defs></defs>
    <g id="Page-1" stroke="none" stroke-width="1" fill="none" fill-rule="evenodd">
        <g id="settings-1">
            <g id="Layer_1">
                <g id="Group">
                    <path d="M221.675,166.51906 L239.475,166.51906 C242.275,180.777376 247.875,193.931175 255.575,205.578813 L242.975,218.230559 C238.475,222.749039 238.475,230.079018 242.975,234.597499 L256.675,248.353762 C261.175,252.872242 268.475,252.872242 272.975,248.353762 L285.575,235.702016 C297.175,243.534049 310.375,249.056637 324.475,251.868136 L324.475,269.741236 C324.475,276.16752 329.675,281.288464 335.975,281.288464 L355.375,281.288464 C361.775,281.288464 366.875,276.067109 366.875,269.741236 L366.875,251.868136 C381.075,249.056637 394.175,243.433639 405.775,235.702016 L418.375,248.353762 C422.875,252.872242 430.175,252.872242 434.675,248.353762 L448.375,234.597499 C452.875,230.079018 452.875,222.749039 448.375,218.230559 L435.775,205.578813 C443.575,193.931175 449.075,180.676965 451.875,166.51906 L469.675,166.51906 C476.075,166.51906 481.175,161.297704 481.175,154.971832 L481.175,135.592571 C481.175,129.166287 475.975,124.045343 469.675,124.045343 L451.875,124.045343 C449.075,109.787027 443.475,96.6332279 435.775,84.9855893 L448.375,72.3338439 C452.875,67.8153634 452.875,60.485384 448.375,55.9669035 L434.575,42.2106407 C430.075,37.6921602 422.775,37.6921602 418.275,42.2106407 L405.675,54.862386 C394.075,47.0303532 380.875,41.5077659 366.775,38.6962669 L366.775,20.8231663 C366.775,14.396883 361.575,9.2759384 355.275,9.2759384 L335.875,9.2759384 C329.475,9.2759384 324.375,14.4972936 324.375,20.8231663 L324.375,38.6962669 C310.175,41.5077659 297.075,47.1307639 285.475,54.862386 L272.975,42.2106407 C268.475,37.6921602 261.175,37.6921602 256.675,42.2106407 L242.975,55.9669035 C238.475,60.485384 238.475,67.8153634 242.975,72.3338439 L255.575,84.9855893 C247.775,96.6332279 242.275,109.887437 239.475,124.045343 L221.675,124.045343 C215.275,124.045343 210.175,129.266698 210.175,135.592571 L210.175,155.072242 C210.175,161.398115 215.275,166.51906 221.675,166.51906 Z M345.575,96.0307639 C372.675,96.0307639 394.675,118.121113 394.675,145.332407 C394.675,172.5437 372.675,194.634049 345.575,194.634049 C318.475,194.634049 296.475,172.5437 296.475,145.332407 C296.475,118.121113 318.475,96.0307639 345.575,96.0307639 Z" id="XMLID_698_" fill="#A7A9AC"></path>
                    <path d="M346.275,380.092571 C344.875,383.606945 340.875,385.213515 337.475,383.807766 L314.875,374.369162 C310.875,372.662181 306.275,374.06793 303.875,377.682715 C293.675,393.045548 280.675,406.098936 265.375,416.340825 C261.775,418.750682 260.375,423.369573 262.075,427.386 L271.375,450.078813 C272.775,453.492776 271.175,457.509203 267.675,458.914953 L243.075,469.257253 C239.675,470.663002 235.675,469.056431 234.275,465.542057 L224.875,442.849244 C223.175,438.832817 218.975,436.523372 214.775,437.427068 C196.775,441.041852 178.475,441.041852 160.375,437.427068 C156.175,436.623782 151.875,438.832817 150.275,442.849244 L140.875,465.542057 C139.475,468.956021 135.475,470.663002 132.075,469.257253 L107.475,459.015363 C105.775,458.312489 104.475,457.00715 103.775,455.300168 C103.075,453.593187 103.075,451.785795 103.775,450.078813 L113.175,427.386 C114.875,423.369573 113.475,418.750682 109.875,416.340825 C94.575,406.098936 81.575,393.045548 71.375,377.682715 C68.975,374.06793 64.375,372.662181 60.375,374.369162 L37.775,383.807766 C34.275,385.213515 30.375,383.606945 28.975,380.092571 L18.775,355.391544 C17.375,351.977581 18.975,347.961154 22.475,346.555405 L45.075,337.116801 C49.075,335.409819 51.375,331.192571 50.475,326.975322 C46.875,308.9014 46.875,290.526246 50.475,272.351914 C51.275,268.134665 49.075,263.817006 45.075,262.210435 L22.475,252.771832 C20.775,252.068957 19.475,250.763618 18.775,249.056637 C18.075,247.349655 18.075,245.542263 18.775,243.835281 L28.975,219.134255 C29.675,217.427273 30.975,216.121934 32.675,215.41906 C34.375,214.716185 36.175,214.716185 37.875,215.41906 L60.475,224.857663 C64.475,226.564645 69.075,225.158895 71.475,221.544111 C81.675,206.181277 94.675,193.127889 109.975,182.886 C113.575,180.476144 114.975,175.857253 113.275,171.840825 L103.875,149.148012 C103.175,147.441031 103.175,145.633639 103.875,143.926657 C104.575,142.219676 105.875,140.914337 107.575,140.211462 L132.175,129.969573 C135.575,128.563823 139.575,130.170394 140.975,133.684768 L150.375,156.377581 C152.275,160.996472 157.575,163.205507 162.175,161.297704 C166.775,159.389901 168.975,154.068136 167.075,149.449244 L157.675,126.756431 C152.375,114.004275 137.875,107.979634 125.175,113.20099 L100.575,123.442879 C94.475,125.953146 89.675,130.772858 87.075,136.99832 C84.575,143.123372 84.575,149.951298 87.075,156.17676 L93.675,172.142057 C81.075,181.480251 69.975,192.625836 60.575,205.377992 L44.675,198.750887 C38.575,196.24062 31.775,196.24062 25.575,198.750887 C19.475,201.261154 14.675,206.080867 12.075,212.306329 L1.875,237.007355 C-0.625,243.132407 -0.625,249.960333 1.875,256.185795 C4.375,262.310846 9.175,267.130559 15.375,269.741236 L31.275,276.368341 C28.875,292.032407 28.875,307.696472 31.275,323.360538 L15.375,329.987643 C2.675,335.309409 -3.325,349.868957 1.875,362.621113 L12.075,387.020908 C17.275,399.773064 31.875,405.797704 44.575,400.576349 L60.475,393.949244 C69.775,406.60099 80.875,417.746575 93.575,427.185179 L86.975,443.150476 C84.475,449.275528 84.475,456.103454 86.975,462.328916 C89.475,468.453967 94.275,473.27368 100.475,475.884357 L125.075,486.126246 C137.775,491.347602 152.375,485.322961 157.575,472.570805 L164.175,456.605507 C179.775,459.015363 195.375,459.015363 210.975,456.605507 L217.575,472.570805 C221.575,482.21023 230.875,488.034049 240.575,488.034049 C243.775,488.034049 246.975,487.431585 250.075,486.126246 L274.675,475.884357 C287.375,470.562591 293.375,456.003043 288.175,443.250887 L281.575,427.285589 C294.175,417.947396 305.275,406.801811 314.675,394.049655 L330.575,400.67676 C343.275,405.998526 357.875,399.873474 363.075,387.121318 L373.275,362.420292 C375.775,356.29524 375.775,349.467314 373.275,343.241852 C370.775,337.116801 365.975,332.297088 359.775,329.686411 L337.175,320.247807 C332.575,318.340004 327.275,320.549039 325.375,325.16793 C323.475,329.786821 325.675,335.108587 330.275,337.01639 L352.875,346.454994 C354.575,347.157869 355.875,348.463207 356.575,350.170189 C357.275,351.87717 357.275,353.684563 356.575,355.391544 L346.275,380.092571 Z" id="Shape" fill="#000000"></path>
                    <path d="M187.075,237.509409 C192.075,237.509409 196.075,233.392571 196.075,228.372037 C196.075,223.351503 191.975,219.335076 186.975,219.335076 C186.975,219.335076 186.975,219.335076 186.875,219.335076 C165.475,219.535897 145.475,227.970394 130.475,243.232817 C115.475,258.49524 107.275,278.778197 107.475,300.165671 C107.675,321.653556 116.075,341.735692 131.275,356.797294 C146.375,371.758485 166.275,379.891749 187.375,379.891749 L187.975,379.891749 C209.375,379.690928 229.375,371.256431 244.375,355.994008 C259.375,340.731585 267.575,320.448628 267.375,299.061154 C267.375,294.04062 263.275,290.024193 258.275,290.024193 C258.275,290.024193 258.275,290.024193 258.175,290.024193 C253.175,290.024193 249.175,294.141031 249.175,299.161565 C249.275,315.729326 242.975,331.393392 231.375,343.241852 C219.775,355.090312 204.275,361.617006 187.775,361.717417 L187.275,361.717417 C170.975,361.717417 155.475,355.391544 143.875,343.844316 C132.075,332.196678 125.575,316.633023 125.475,300.065261 C125.375,283.497499 131.675,267.833433 143.275,255.984973 C155.075,244.236924 170.575,237.609819 187.075,237.509409 Z" id="Shape" fill="#000000"></path>
                    <path d="M469.575,175.656431 C480.875,175.656431 490.175,166.418649 490.175,154.971832 L490.175,135.592571 C490.175,124.246164 480.975,114.907971 469.575,114.907971 L459.075,114.907971 C456.375,104.866903 452.475,95.2274784 447.275,86.2909281 L454.775,78.7601273 C462.775,70.7272731 462.775,57.5734743 454.775,49.5406201 L441.075,35.7843573 C437.175,31.8683409 431.975,29.7597166 426.575,29.7597166 C421.075,29.7597166 415.875,31.8683409 412.075,35.7843573 L404.575,43.3151581 C395.575,38.0938029 386.075,34.0773758 376.075,31.4666982 L376.075,20.8231663 C376.075,9.47675975 366.875,0.138566735 355.475,0.138566735 L336.075,0.138566735 C324.775,0.138566735 315.475,9.37634908 315.475,20.8231663 L315.475,31.4666982 C305.475,34.1777864 295.875,38.0938029 286.975,43.3151581 L279.475,35.7843573 C275.575,31.8683409 270.375,29.7597166 264.975,29.7597166 C259.475,29.7597166 254.275,31.8683409 250.475,35.7843573 L236.775,49.5406201 C228.775,57.5734743 228.775,70.7272731 236.775,78.7601273 L244.275,86.2909281 C239.075,95.3278891 235.075,104.866903 232.475,114.907971 L221.875,114.907971 C210.575,114.907971 201.275,124.145754 201.275,135.592571 L201.275,155.072242 C201.275,166.418649 210.475,175.756842 221.875,175.756842 L232.475,175.756842 C235.175,185.79791 239.075,195.437335 244.275,204.373885 L236.775,211.904686 C228.775,219.93754 228.775,233.091339 236.775,241.124193 L250.475,254.880456 C254.375,258.796472 259.575,260.905097 264.975,260.905097 C270.475,260.905097 275.675,258.796472 279.475,254.880456 L286.975,247.349655 C295.975,252.57101 305.475,256.587437 315.475,259.198115 L315.475,269.841647 C315.475,281.188053 324.675,290.526246 336.075,290.526246 L355.475,290.526246 C366.775,290.526246 376.075,281.288464 376.075,269.841647 L376.075,259.097704 C386.075,256.386616 395.675,252.4706 404.575,247.249244 L412.075,254.780045 C415.975,258.696062 421.175,260.804686 426.575,260.804686 C432.075,260.804686 437.275,258.696062 441.075,254.780045 L454.775,241.023782 C462.775,232.990928 462.775,219.837129 454.775,211.804275 L447.275,204.273474 C452.475,195.236513 456.475,185.697499 459.075,175.656431 L469.575,175.656431 L469.575,175.656431 Z M442.975,164.812078 C440.475,177.664645 435.475,189.713926 428.175,200.65869 C425.775,204.273474 426.275,209.093187 429.275,212.105507 L441.875,224.757253 C442.875,225.761359 442.875,227.26752 441.875,228.271626 L428.175,242.027889 C427.575,242.630353 426.875,242.730764 426.475,242.730764 C425.975,242.730764 425.375,242.630353 424.775,242.027889 L412.175,229.376144 C409.075,226.263413 404.275,225.86177 400.775,228.271626 C389.875,235.601606 377.875,240.521729 365.075,243.132407 C360.875,243.935692 357.775,247.751298 357.775,252.068957 L357.775,269.942057 C357.775,271.247396 356.675,272.351914 355.375,272.351914 L335.975,272.351914 C334.675,272.351914 333.575,271.247396 333.575,269.942057 L333.575,252.068957 C333.575,247.751298 330.475,244.036103 326.275,243.132407 C313.475,240.62214 301.475,235.601606 290.575,228.271626 C289.075,227.26752 287.275,226.765466 285.575,226.765466 C283.275,226.765466 280.875,227.669162 279.175,229.476554 L266.575,242.1283 C265.975,242.730764 265.275,242.831175 264.875,242.831175 C264.375,242.831175 263.775,242.730764 263.175,242.1283 L249.475,228.372037 C248.475,227.36793 248.475,225.86177 249.475,224.857663 L262.075,212.205918 C265.175,209.093187 265.575,204.273474 263.175,200.759101 C255.875,189.814337 250.975,177.765055 248.375,164.912489 C247.575,160.69524 243.775,157.582509 239.475,157.582509 L221.675,157.582509 C220.375,157.582509 219.275,156.477992 219.275,155.172653 L219.275,135.592571 C219.275,134.287232 220.375,133.182715 221.675,133.182715 L239.475,133.182715 C243.775,133.182715 247.475,130.069984 248.375,125.852735 C250.875,113.000168 255.875,100.950887 263.175,90.0061232 C265.575,86.3913388 265.075,81.5716263 262.075,78.559306 L249.475,65.9075606 C248.875,65.3050965 248.775,64.6022218 248.775,64.2005791 C248.775,63.6985257 248.875,63.0960616 249.475,62.4935975 L263.075,48.636924 C263.675,48.03446 264.375,47.9340493 264.775,47.9340493 C265.275,47.9340493 265.875,48.03446 266.475,48.636924 L279.075,61.2886694 C282.175,64.4014004 286.975,64.8030431 290.475,62.3931869 C301.375,55.0632074 313.375,50.1430842 326.175,47.5324066 C330.375,46.7291211 333.475,42.9135154 333.475,38.5958563 L333.475,20.8231663 C333.475,19.5178275 334.575,18.4133101 335.875,18.4133101 L355.275,18.4133101 C356.575,18.4133101 357.675,19.5178275 357.675,20.8231663 L357.675,38.6962669 C357.675,43.0139261 360.775,46.7291211 364.975,47.6328172 C377.775,50.1430842 389.775,55.1636181 400.675,62.4935975 C404.275,64.9034538 409.075,64.4014004 412.075,61.3890801 L424.675,48.7373347 C425.275,48.1348706 425.975,48.03446 426.375,48.03446 C426.875,48.03446 427.475,48.1348706 428.075,48.7373347 L441.775,62.4935975 C442.775,63.4977043 442.775,65.0038645 441.775,66.0079713 L429.175,78.6597166 C426.075,81.7724476 425.675,86.5921602 428.075,90.1065339 C435.375,101.051298 440.275,113.100579 442.875,125.953146 C443.675,130.170394 447.475,133.283125 451.775,133.283125 L469.575,133.283125 C470.875,133.283125 471.975,134.387643 471.975,135.692982 L471.975,155.172653 C471.975,156.477992 470.875,157.582509 469.575,157.582509 L451.775,157.582509 C447.475,157.482099 443.775,160.494419 442.975,164.812078 Z" id="Shape" fill="#000000"></path>
                    <path d="M345.675,86.8933922 C313.575,86.8933922 287.575,113.100579 287.575,145.231996 C287.575,177.463823 313.675,203.5706 345.675,203.5706 C377.775,203.5706 403.775,177.363413 403.775,145.231996 C403.775,113.100579 377.675,86.8933922 345.675,86.8933922 Z M345.675,185.396267 C323.575,185.396267 305.675,167.422756 305.675,145.231996 C305.675,123.041236 323.575,105.067725 345.675,105.067725 C367.775,105.067725 385.675,123.041236 385.675,145.231996 C385.675,167.422756 367.675,185.396267 345.675,185.396267 Z" id="Shape" fill="#000000"></path>
                </g>
            </g>
        </g>
    </g>
</svg>