<?xml version="1.0" encoding="UTF-8"?>
<svg width="430px" height="372px" viewBox="0 0 430 372" version="1.1" xmlns="http://www.w3.org/2000/svg" xmlns:xlink="http://www.w3.org/1999/xlink">
    <!-- Generator: Sketch 41 (35326) - http://www.bohemiancoding.com/sketch -->
    <title>streamline_everything</title>
    <desc>Created with Sketch.</desc>
    <defs></defs>
    <g id="Page-1" stroke="none" stroke-width="1" fill="none" fill-rule="evenodd">
        <g id="streamline_everything" transform="translate(1.000000, 3.000000)">
            <g id="Group">
                <g transform="translate(87.000000, 0.000000)">
                    <path d="M257.3,196 L0.7,196 L0.7,180 C0.7,177.2 2.9,175 5.7,175 L252.3,175 C255.1,175 257.3,177.2 257.3,180 L257.3,196 L257.3,196 Z" id="Shape" fill="#5386B8"></path>
                    <circle id="Oval" fill="#F38290" cx="19.6" cy="184.9" r="4.9"></circle>
                    <circle id="Oval" fill="#F9C86D" cx="33.8" cy="184.9" r="4.9"></circle>
                    <circle id="Oval" fill="#61C3AA" cx="48" cy="184.9" r="4.9"></circle>
                    <path d="M257.3,206.9 L0.7,206.9 L0.7,354.5 C0.7,360.7 5.7,365.7 11.9,365.7 L246.1,365.7 C252.3,365.7 257.3,360.7 257.3,354.5 L257.3,206.9 L257.3,206.9 Z" id="Shape" fill="#FFFFFF"></path>
                    <rect id="Rectangle-path" fill="#E2E2E2" x="0.7" y="196" width="256.6" height="11"></rect>
                    <rect id="Rectangle-path" fill="#61C3AA" x="40.3" y="305.9" width="25.2" height="40.1"></rect>
                    <rect id="Rectangle-path" fill="#91D2C1" x="65.5" y="329.2" width="25.2" height="16.8"></rect>
                    <rect id="Rectangle-path" fill="#61C3AA" x="90.7" y="316.7" width="25.2" height="29.3"></rect>
                    <rect id="Rectangle-path" fill="#61C3AA" x="191.1" y="319.7" width="25.2" height="26.3"></rect>
                    <rect id="Rectangle-path" fill="#91D2C1" x="115.9" y="305.9" width="25.2" height="40.1"></rect>
                    <rect id="Rectangle-path" fill="#61C3AA" x="141.1" y="329.2" width="25.2" height="16.8"></rect>
                    <rect id="Rectangle-path" fill="#91D2C1" x="166.3" y="305.9" width="24.8" height="40.1"></rect>
                    <circle id="Oval" fill="#9185BF" cx="187.4" cy="249.6" r="33.7"></circle>
                    <path d="M210.9,273.8 L187.4,249.7 L187.4,216 C187.4,216 144.1,218.9 156.7,262.5 C156.7,262.4 175.3,298.5 210.9,273.8 Z" id="Shape" fill="#B6ACD4"></path>
                    <path d="M188,249.7 L216,234.1 C216,234.1 231,258.4 210.4,272.6 L188,249.7" id="Shape" fill="#CEC9E4"></path>
                    <path d="M83.2,100.8 C66.6,100.8 53.2,87.4 53.2,70.8 C53.2,54.4 66.4,41 82.8,40.8 C82.5,39.5 82.3,38.2 82.3,36.9 C82.3,27.9 89.6,20.7 98.5,20.7 C101.8,20.7 104.8,21.7 107.4,23.3 C112.7,9.8 125.9,0.2 141.3,0.2 C161.4,0.2 177.7,16.5 177.7,36.6 C177.7,38.1 177.6,39.5 177.4,40.9 C192.8,42.1 205,55.1 205,70.8 C205,87.4 191.6,100.8 175,100.8 L83.2,100.8 L83.2,100.8 Z" id="Shape" fill="#FFFFFF"></path>
                    <path d="M54,77.6 C57.1,90.9 69,100.8 83.2,100.8 L174.9,100.8 C186.1,100.8 195.9,94.7 201,85.6 C198.1,73.1 187.3,63.6 174.2,62.5 C174.4,61.1 174.5,59.7 174.5,58.2 C174.5,38.1 158.2,21.8 138.1,21.8 C122.7,21.8 109.6,31.4 104.2,44.9 C101.7,43.2 98.6,42.3 95.3,42.3 C86.3,42.3 79.1,49.6 79.1,58.5 C79.1,59.8 79.3,61.2 79.6,62.4 C68.6,62.5 59.1,68.6 54,77.6 Z" id="Shape" fill="#EEF9FE"></path>
                </g>
                <g>
                    <path d="M170.2,100.8 C153.6,100.8 140.2,87.4 140.2,70.8 C140.2,54.4 153.4,41 169.8,40.8 C169.5,39.5 169.3,38.2 169.3,36.9 C169.3,27.9 176.6,20.7 185.5,20.7 C188.8,20.7 191.8,21.7 194.4,23.3 C199.7,9.8 212.9,0.2 228.3,0.2 C248.4,0.2 264.7,16.5 264.7,36.6 C264.7,38.1 264.6,39.5 264.4,40.9 C279.8,42.1 292,55.1 292,70.8 C292,87.4 278.6,100.8 262,100.8 L170.2,100.8 L170.2,100.8 Z" id="Shape" stroke="#404F61" stroke-width="5"></path>
                    <g transform="translate(0.000000, 144.000000)" stroke="#E3E6E7" stroke-width="2.5">
                        <rect id="Rectangle-path" x="113" y="72.7" width="104" height="69.3"></rect>
                        <path d="M182.4,72.7 L182.4,142" id="Shape"></path>
                        <path d="M165,72.7 L165,142" id="Shape"></path>
                        <path d="M199.7,72.7 L199.7,142" id="Shape"></path>
                        <path d="M147.7,72.7 L147.7,142" id="Shape"></path>
                        <path d="M130.4,72.7 L130.4,142" id="Shape"></path>
                        <path d="M217,107.4 L113,107.4" id="Shape"></path>
                        <path d="M217,124.7 L113,124.7" id="Shape"></path>
                        <path d="M217,90.1 L113,90.1" id="Shape"></path>
                        <path d="M344.3,94.4 L363.7,94.4 L363.7,112.6 L381.2,94.4 L416.6,94.4 C422.5,94.4 427.2,89.6 427.2,83.8 L427.2,10 C427.2,4.5 422.7,0 417.2,0 L312.5,0 C306.6,0 301.9,4.8 301.9,10.6 L301.9,29.5" id="Shape"></path>
                        <path d="M386.9,70.2 L406.8,70.2" id="Shape"></path>
                        <path d="M365.3,55.4 L406.8,55.4" id="Shape"></path>
                        <path d="M344.3,38.6 L361.4,38.6" id="Shape"></path>
                        <path d="M322.3,23.8 L376.7,23.8" id="Shape"></path>
                        <path d="M10.7,84.3 L87.7,84.3 L87.7,178.8 L64.2,178.8 L64.2,198 L43.7,178.8 L11.3,178.8 C5.4,178.8 0.7,174 0.7,168.2 L0.7,94.4 C0.7,88.8 5.2,84.3 10.7,84.3 Z" id="Shape"></path>
                        <path d="M51.1,154.5 L21.2,154.5" id="Shape"></path>
                        <path d="M72.7,139.7 L21.2,139.7" id="Shape"></path>
                        <path d="M85.7,123 L67.5,123" id="Shape"></path>
                        <path d="M85.7,108.2 L51.3,108.2" id="Shape"></path>
                    </g>
                    <path d="M334.3,365.7 L97.7,365.7 C92.2,365.7 87.7,361.2 87.7,355.7 L87.7,183.5 C87.7,178 92.2,173.5 97.7,173.5 L334.3,173.5 C339.8,173.5 344.3,178 344.3,183.5 L344.3,355.7 C344.3,361.3 339.9,365.7 334.3,365.7 Z" id="Shape" stroke="#404F61" stroke-width="5"></path>
                    <path d="M87.7,196 L344.3,196" id="Shape" stroke="#404F61" stroke-width="5"></path>
                    <circle id="Oval" stroke="#404F61" stroke-width="5" cx="274.4" cy="249.6" r="33.7"></circle>
                    <polyline id="Shape" stroke="#404F61" stroke-width="2.5" points="274.4 215.9 274.4 249.6 297.9 273.8"></polyline>
                    <path d="M274.4,249.6 L303.8,233.2" id="Shape" stroke="#404F61" stroke-width="2.5"></path>
                    <path d="M321.7,345.9 L109,345.9" id="Shape" stroke="#404F61" stroke-width="5"></path>
                    <rect id="Rectangle-path" stroke="#404F61" stroke-width="5" x="127.3" y="305.9" width="25.2" height="40.1"></rect>
                    <rect id="Rectangle-path" stroke="#404F61" stroke-width="5" x="152.5" y="329.2" width="25.2" height="16.8"></rect>
                    <rect id="Rectangle-path" stroke="#404F61" stroke-width="5" x="177.7" y="316.7" width="25.2" height="29.3"></rect>
                    <rect id="Rectangle-path" stroke="#404F61" stroke-width="5" x="278.1" y="319.7" width="25.2" height="26.3"></rect>
                    <rect id="Rectangle-path" stroke="#404F61" stroke-width="5" x="202.9" y="305.9" width="25.2" height="40.1"></rect>
                    <rect id="Rectangle-path" stroke="#404F61" stroke-width="5" x="228.1" y="329.2" width="25.2" height="16.8"></rect>
                    <rect id="Rectangle-path" stroke="#404F61" stroke-width="5" x="253.3" y="305.9" width="24.8" height="40.1"></rect>
                    <polyline id="Shape" stroke="#404F61" stroke-width="2.5" points="130.4 268.7 165 251.4 182.4 268.7 199.7 234.1"></polyline>
                    <path d="M176.2,103.6 L176.2,155.9" id="Shape" stroke="#404F61" stroke-width="2.5" stroke-dasharray="7,7"></path>
                    <path d="M255.9,102.6 L255.9,155.9" id="Shape" stroke="#404F61" stroke-width="2.5" stroke-dasharray="7,7"></path>
                    <polyline id="Shape" stroke="#404F61" stroke-width="2.5" points="183.4 153.9 176.2 161.2 168.9 153.9"></polyline>
                    <polyline id="Shape" stroke="#404F61" stroke-width="2.5" points="263.2 153.9 255.9 161.2 248.6 153.9"></polyline>
                    <circle id="Oval" stroke="#404F61" stroke-width="5" cx="130.4" cy="268.7" r="0.9"></circle>
                    <circle id="Oval" stroke="#404F61" stroke-width="5" cx="165.1" cy="251.4" r="0.9"></circle>
                    <circle id="Oval" stroke="#404F61" stroke-width="5" cx="182.4" cy="268.7" r="0.9"></circle>
                    <circle id="Oval" stroke="#404F61" stroke-width="5" cx="199.7" cy="234.1" r="0.9"></circle>
                </g>
            </g>
        </g>
    </g>
</svg>