<?xml version="1.0" encoding="UTF-8"?>
<svg width="650px" height="159px" viewBox="0 0 650 159" version="1.1" xmlns="http://www.w3.org/2000/svg" xmlns:xlink="http://www.w3.org/1999/xlink">
    <!-- Generator: Sketch 41 (35326) - http://www.bohemiancoding.com/sketch -->
    <title>Group 14</title>
    <desc>Created with Sketch.</desc>
    <defs>
        <circle id="path-1" cx="75" cy="75" r="75"></circle>
        <circle id="path-3" cx="75" cy="75" r="75"></circle>
        <circle id="path-5" cx="75" cy="75" r="75"></circle>
    </defs>
    <g id="Page-1" stroke="none" stroke-width="1" fill="none" fill-rule="evenodd">
        <g id="Desktop-HD-Copy" transform="translate(-345.000000, -481.000000)">
            <g id="Group-4" transform="translate(345.000000, 481.000000)">
                <g id="Group-14">
                    <g id="Group-5">
                        <g id="Group-6" transform="translate(0.000000, 9.000000)">
                            <mask id="mask-2" fill="white">
                                <use xlink:href="#path-1"></use>
                            </mask>
                            <use id="Oval" fill="#7A7ECC" xlink:href="#path-1"></use>
                            <g id="Group" mask="url(#mask-2)">
                                <g transform="translate(6.428571, 1.000000)">
                                    <path d="M54.7014044,87.4411679 C24.5404358,100.729343 15.4924939,107.812555 11.9163196,110.993869 C6.40503632,115.894307 3.35651332,134.162336 0.105762712,149.672993 L136.584988,149.672993 C133.334237,134.162336 130.285714,115.893139 124.773269,110.993869 C121.198257,107.812555 112.480387,100.911533 82.3194189,87.6233577 L54.7014044,87.4411679" id="Fill-225" fill="#FFDECC"></path>
                                    <path d="M82.9900242,60.9559124 L82.9900242,94.5524088 C74.9357869,104.465401 61.7549637,104.122044 53.7007264,94.5524088 L53.7007264,60.9559124 C53.7007264,42.8151825 82.9900242,42.8151825 82.9900242,60.9559124" id="Fill-226" fill="#FFDECC"></path>
                                    <path d="M82.9900242,60.9559124 L82.9900242,83.4493431 C77.4496852,87.5077372 72.1069249,89.7816058 68.3459564,89.7816058 C64.5838257,89.7816058 59.2422276,87.5077372 53.7007264,83.4493431 L53.7007264,60.9559124 C53.7007264,42.8151825 82.9900242,42.8151825 82.9900242,60.9559124" id="Fill-227" fill="#F8C5AA"></path>
                                    <path d="M68.3459564,0.638248175 C19.1930266,0.638248175 36.8693462,60.3194161 40.0794189,65.070365 C43.6195642,70.3094891 60.4044552,84.1956204 68.3459564,84.1956204 C76.2874576,84.1956204 93.0700242,70.3094891 96.6101695,65.070365 C99.8225666,60.3194161 117.498886,0.638248175 68.3459564,0.638248175" id="Fill-228" fill="#FFDECC"></path>
                                    <path d="M52.5861501,59.8487591 C56.7097337,63.0989781 79.9821792,62.9191241 84.1046005,59.8487591 C80.522615,76.9512409 57.3373366,77.4767883 52.5861501,59.8487591" id="Fill-229" fill="#F8C5AA"></path>
                                    <path d="M57.482615,62.9366423 C60.3242615,64.6429197 76.3664891,64.5483212 79.2081356,62.9366423 C76.7384019,71.9153285 60.7577724,72.1921168 57.482615,62.9366423" id="Fill-230" fill="#FFFFFF"></path>
                                    <path d="M30.5747215,37.1182482 C33.1525424,36.2656934 36.4358354,39.2064234 37.9037288,43.689927 C39.3727845,48.1710949 38.4732203,52.4981022 35.8930751,53.3518248 C33.314092,54.2055474 30.0319613,51.2636496 28.5629056,46.7813139 C27.0938499,42.2978102 27.9945763,37.9731387 30.5747215,37.1182482" id="Fill-231" fill="#FFDECC"></path>
                                    <path d="M105.987022,37.1194161 C103.408039,36.2656934 100.124746,39.2064234 98.6568523,43.689927 C97.1877966,48.1710949 98.0873608,52.4981022 100.667506,53.3518248 C103.247651,54.2055474 106.529782,51.2624818 107.998838,46.7813139 C109.467893,42.2978102 108.567167,37.9719708 105.987022,37.1194161" id="Fill-232" fill="#FFDECC"></path>
                                    <path d="M19.1628087,105.588905 C15.4030024,108.030949 13.2679903,109.790949 11.9163196,110.993869 C6.40503632,115.894307 3.35651332,134.162336 0.105762712,149.672993 L136.584988,149.672993 C133.334237,134.162336 130.285714,115.893139 124.773269,110.993869 C122.488329,108.959416 118.097433,105.403212 107.342179,99.630365 C68.3459564,124.651095 24.7972881,109.082044 19.1628087,105.588905" id="Fill-234" fill="#497194"></path>
                                    <path d="M8.52493947,116.183942 L128.164649,116.183942 C128.764358,117.52 129.330363,119.024234 129.869637,120.662774 L6.81995157,120.662774 C7.36038741,119.024234 7.92639225,117.52 8.52493947,116.183942" id="Fill-235" fill="#688DAD"></path>
                                    <path d="M4.60474576,128.567007 L132.084843,128.567007 C132.441646,130.021022 132.78799,131.519416 133.127361,133.045839 L3.5622276,133.045839 C3.90159806,131.519416 4.24910412,130.021022 4.60474576,128.567007" id="Fill-236" fill="#688DAD"></path>
                                    <path d="M1.89210654,140.950073 L134.797482,140.950073 C135.10431,142.446131 135.407651,143.943358 135.710993,145.430073 L0.980920097,145.430073 C1.28309927,143.943358 1.58644068,142.446131 1.89210654,140.950073" id="Fill-237" fill="#688DAD"></path>
                                    <path d="M27.9155448,149.672993 L30.2516223,149.672993 C30.1470218,139.229781 30.1470218,131.703942 30.1470218,131.703942 C30.1470218,131.703942 29.1126392,139.525255 27.9155448,149.672993" id="Fill-238" fill="#29445C"></path>
                                    <path d="M108.776368,149.672993 L106.437966,149.672993 C106.542567,139.229781 106.542567,131.703942 106.542567,131.703942 C106.542567,131.703942 107.578111,139.525255 108.776368,149.672993" id="Fill-239" fill="#29445C"></path>
                                    <path d="M54.0993705,35.8826277 C49.348184,35.6373723 43.0186925,36.2014599 41.8646005,36.5775182 C40.3943826,37.0563504 40.3513801,37.1766423 40.2886199,38.3024818 C40.2258596,39.4283212 40.411816,40.3941606 41.2834867,40.6837956 C42.4712833,41.0773723 42.4863923,42.5827737 43.2778692,46.9016058 C43.9984504,50.8350365 45.7383051,53.9427737 53.1835351,54.4881752 C53.4961743,54.510365 53.8030024,54.5220438 54.0993705,54.5267153 L54.0993705,53.4312409 C50.7347215,53.4230657 46.999322,52.220146 45.6581114,49.8084672 C43.7450847,46.370219 43.2523002,39.4119708 45.6906538,37.9567883 C46.7552542,37.3214599 50.3651332,36.8835036 54.0993705,37.0481752 L54.0993705,35.8826277 Z M68.2901695,38.0910949 C66.6444552,38.1319708 59.846586,36.3264234 55.0407748,35.9433577 C54.7362712,35.92 54.4213075,35.8989781 54.0993705,35.8826277 L54.0993705,37.0481752 C57.9719128,37.2186861 61.9781114,38.0373723 63.4192736,39.9585401 C65.800678,43.1305109 62.0013559,50.8875912 58.3821792,52.619562 C57.2443584,53.1637956 55.7148668,53.4347445 54.0993705,53.4312409 L54.0993705,54.5267153 C60.6938499,54.6189781 62.9555448,50.2230657 63.7075061,48.7632117 C65.1091525,46.0443796 64.6675061,42.3024818 68.3552542,42.2931387 C72.0441646,42.2814599 71.688523,45.9591241 73.1041162,48.6709489 C73.8630508,50.120292 76.0770944,54.539562 82.6134625,54.4472993 L82.6134625,53.3506569 C81.0212107,53.3564964 79.5149637,53.0937226 78.3864407,52.5623358 C74.7579661,50.8513869 70.9156416,43.1153285 73.2784504,39.9316788 C74.7126392,37.9964964 78.7316223,37.1556204 82.6134625,36.9652555 L82.6134625,35.799708 C82.2787409,35.8183942 81.952155,35.8417518 81.6348668,35.8686131 C77.3357869,36.2353285 72.1650363,37.9941606 68.2901695,38.0910949 Z M82.6134625,54.4472993 C82.9307506,54.4426277 83.2584988,54.4274453 83.596707,54.4005839 C91.0384504,53.8154745 92.7597094,50.6972263 93.4593705,46.7591241 C94.2264407,42.4367883 94.233414,40.930219 95.4188862,40.5308029 C96.2882324,40.2364964 96.4683777,39.2694891 96.3986441,38.1436496 C96.3312349,37.0189781 96.2882324,36.8975182 94.8133656,36.4268613 C93.6615981,36.0589781 87.3576755,35.5322628 82.6134625,35.799708 L82.6134625,36.9652555 C86.3360775,36.7830657 89.9308475,37.2 90.9966102,37.8283212 C93.4430993,39.2694891 92.9898305,46.2289051 91.0953995,49.6788321 C89.7576755,52.1127007 85.9932203,53.3366423 82.6134625,53.3506569 L82.6134625,54.4472993 L82.6134625,54.4472993 Z" id="Fill-240" fill="#27557D"></path>
                                    <polygon id="Fill-241" fill="#27557D" points="34.56 40.4210219 42.6723487 40.4210219 42.6723487 36.8963504 34.56 36.8963504"></polygon>
                                    <polygon id="Fill-242" fill="#27557D" points="95.5037288 40.4210219 103.614915 40.4210219 103.614915 36.8963504 95.5037288 36.8963504"></polygon>
                                </g>
                            </g>
                        </g>
                        <path d="M48.2664407,41.5743066 C45.3399516,45.2134307 43.5326877,47.9567883 42.8864891,59.4172263 C40.5329782,45.1013139 36.6232446,24.9635036 46.0396126,11.9988321 C52.4492978,3.17313869 84.8952058,-7.30277372 98.2515254,8.33284672 C120.749927,8.66452555 109.95632,48.8759124 108.660436,56.8654015 C107.818983,38.4759124 98.0446489,40.600292 93.0645036,27.099562 C86.3061501,31.8435036 72.8824213,40.409927 48.2664407,41.5743066" id="Fill-233" fill="#FFC65D"></path>
                    </g>
                    <g id="Group-5-Copy" transform="translate(500.000000, 8.000000)">
                        <g id="Group-6">
                            <g id="Group-10">
                                <mask id="mask-4" fill="white">
                                    <use xlink:href="#path-3"></use>
                                </mask>
                                <use id="Oval" fill="#7BBAAF" xlink:href="#path-3"></use>
                                <g id="Group-12" mask="url(#mask-4)">
                                    <g transform="translate(-22.000000, 13.000000)">
                                        <g id="Group-Copy" transform="translate(0.000000, 15.000000)">
                                            <path d="M51.9109038,47.2028746 C51.9109038,47.2028746 44.5965836,60.0340883 44.5965836,70.2511099 L47.644217,70.2511099 C47.644217,70.2511099 45.6124614,67.7723681 51.9109038,47.2028746" id="Fill-42" fill="#9E9F9E"></path>
                                            <path d="M66.348559,47.2028746 C66.348559,47.2028746 73.6628791,60.0340883 73.6628791,70.2511099 L70.6152457,70.2511099 C70.6152457,70.2511099 72.6470013,67.7723681 66.348559,47.2028746" id="Fill-60" fill="#9E9F9E"></path>
                                            <path d="M71.083904,41.8173677 C71.083904,39.3508165 70.8143577,29.1595304 70.8143577,29.1595304 L59.1439536,29.166303 L47.472195,29.1595304 C47.472195,29.1595304 47.2026488,39.3508165 47.2026488,41.8173677 C47.2026488,44.283919 46.4685078,47.3667695 46.4685078,47.3667695 L71.818045,47.3667695 C71.818045,47.3667695 71.083904,44.283919 71.083904,41.8173677" id="Fill-62" fill="#E3C0A3"></path>
                                            <path d="M115.655204,72.6729626 C114.942735,66.9677929 113.695237,57.8709459 107.818045,55.4043946 L75.7528783,44.9205358 L75.7284973,44.9625254 L75.6986982,44.9205358 C73.5328467,42.4539845 71.8613891,42.1966288 71.8613891,42.1966288 C71.8613891,42.1966288 67.4822786,45.6397773 59.1060275,45.6397773 C50.7297765,45.6397773 46.4278727,42.1966288 46.4278727,42.1966288 C46.4278727,42.1966288 44.7564151,42.4539845 42.5905636,44.9205358 L42.543156,44.9841975 L42.5065844,44.9205358 L10.4414177,55.4043946 C4.56287155,57.8709459 3.31672812,66.9677929 2.60425916,72.6729626 L0.586048612,92.8686131 L117.673414,92.8686131 L115.655204,72.6729626" id="Fill-63" fill="#B4B5B4"></path>
                                            <path d="M75.2327489,4.5630973 L77.7575438,3.21401159 C79.3450222,2.36609226 81.2657085,3.16660396 82.0391301,5.000602 C83.2216119,7.8017157 83.1118971,11.0579427 81.7465573,13.6802619 L80.6480548,15.7905787 C79.5387162,17.9225675 77.3633832,19.007525 75.1988863,18.5104222 L74.7370005,18.4034164 L75.2327489,4.5630973" id="Fill-64" fill="#E3C0A3"></path>
                                            <path d="M43.0267138,4.5630973 L40.5019189,3.21401159 C38.9144405,2.36609226 36.9923997,3.16660396 36.2203326,5.000602 C35.0378509,7.8017157 35.1475657,11.0579427 36.5129054,13.6802619 L37.6114079,15.7905787 C38.7207465,17.9225675 40.8960795,19.007525 43.0605764,18.5104222 L43.5224622,18.4034164 L43.0267138,4.5630973" id="Fill-65" fill="#E3C0A3"></path>
                                            <polyline id="Fill-69" fill="#385881" points="64.6540748 45.6397773 53.5606893 45.6397773 50.9695237 52.2551735 59.107382 58.8705696 67.2438859 52.2551735 64.6540748 45.6397773"></polyline>
                                            <path d="M62.4895778,56.0532019 C62.4895778,56.0532019 61.5156897,55.539845 59.107382,55.539845 C56.6977199,55.539845 55.7251862,56.0532019 55.7251862,56.0532019 L50.9695237,92.8686131 L67.2438859,92.8686131 L62.4895778,56.0532019" id="Fill-70" fill="#314B6E"></path>
                                            <path d="M70.9416811,37.8622169 C70.9416811,37.8622169 68.8245918,43.5457145 59.107382,45.6397773 C59.107382,45.6397773 61.0023328,45.558507 62.9555271,49.9132365 C64.719091,53.8412973 66.8077357,57.7842577 66.8077357,57.7842577 C66.8077357,57.7842577 75.5971104,48.9068402 76.0847317,44.9841975 C76.0847317,44.9841975 72.4329897,34.7549853 70.8766649,34.9649334 L70.9416811,37.8622169" id="Fill-71" fill="#FFFFFF"></path>
                                            <path d="M47.2717285,37.8622169 C47.2717285,37.8622169 49.3901723,43.5457145 59.107382,45.6397773 C59.107382,45.6397773 57.2124313,45.558507 55.2578825,49.9132365 C53.4956731,53.8412973 51.4056739,57.7842577 51.4056739,57.7842577 C51.4056739,57.7842577 42.6176537,48.9068402 42.1286779,44.9841975 C42.1286779,44.9841975 45.7804199,34.7549853 47.3367447,34.9649334 L47.2717285,37.8622169" id="Fill-72" fill="#FFFFFF"></path>
                                            <path d="M60.8939725,18.3316277 C59.7385808,18.6485815 58.5208819,18.6485815 57.3654903,18.3316277 L55.6791331,17.8697419 L57.453533,20.3092031 C58.2811348,21.4469862 59.9783279,21.4469862 60.8059297,20.3092031 L62.5803296,17.8697419 L60.8939725,18.3316277" id="Fill-73" fill="#E3C0A3"></path>
                                            <path d="M62.3446459,26.0279178 C60.2397472,26.3855068 58.0197156,26.3855068 55.9148168,26.0279178 L55.3933328,25.9398751 L56.7234555,26.7349688 C58.0725412,27.5408985 60.2126571,27.5381895 61.5563248,26.7281963 L62.8661299,25.9398751 L62.3446459,26.0279178" id="Fill-74" fill="#E3C0A3"></path>
                                            <path d="M52.8102942,4.33147716 L53.6622771,2.11550907 L55.8850177,3.45782226 C57.1365791,4.21363534 57.8558206,5.61283769 57.7393333,7.0716382 L57.1230341,14.8248175 L56.6543758,10.2696215 C56.4444277,8.2365114 55.4177139,6.37677779 53.809918,5.11708932 L52.8102942,4.33147716" id="Fill-75" fill="#E3C0A3"></path>
                                            <path d="M52.8102942,4.33147716 L47.2283844,3.18421251 C46.5159154,3.0379261 45.7777109,3.09210625 45.095041,3.34268944 L44.1563699,3.68673339 L45.5108737,2.03288434 C46.3994281,0.949281361 47.7986304,0.422379412 49.1815787,0.652645045 L51.5695688,1.05086914 C52.8658289,1.26758974 53.9683949,2.12092708 54.5020694,3.32237189 L54.9869817,4.41274739 L53.5986154,4.41274739 C53.3331327,4.41274739 53.0690044,4.38565731 52.8102942,4.33147716" id="Fill-76" fill="#3B2A20"></path>
                                            <path d="M65.4044699,4.33147716 L70.9863797,3.18421251 C71.6974942,3.0379261 72.4356987,3.09210625 73.1183686,3.34268944 L74.0583942,3.68673339 L72.7025359,2.03288434 C71.8139815,0.949281361 70.4147791,0.422379412 69.0331853,0.652645045 L66.6451953,1.05086914 C65.3475807,1.26758974 64.2463692,2.12092708 63.7126947,3.32237189 L63.2277824,4.41274739 L64.6161487,4.41274739 C64.8802769,4.41274739 65.1444051,4.38565731 65.4044699,4.33147716" id="Fill-77" fill="#3B2A20"></path>
                                            <path d="M60.5269019,22.809617 C60.1232598,22.7608548 60.0677252,22.8299345 59.7209722,23.00602 L59.107382,23.3175559 L58.4924374,23.00602 C58.1470389,22.8299345 58.0915043,22.7608548 57.6865076,22.809617 C57.6865076,22.809617 56.5026714,23.3067198 53.1787192,23.3175559 C53.1787192,23.3175559 55.2795545,23.7848597 55.8795997,23.8282038 C56.4782903,23.8701934 58.0657687,24.0489879 59.107382,24.0489879 C60.1476409,24.0489879 61.7351193,23.8701934 62.3338099,23.8282038 C62.9338551,23.7848597 65.0360448,23.3175559 65.0360448,23.3175559 C61.7120927,23.3067198 60.5269019,22.809617 60.5269019,22.809617" id="Fill-78" fill="#E3C0A3"></path>
                                            <path d="M59.1290541,92.8686131 L43.5224622,41.3785085 L33.1916623,47.9668147 L10.4414177,55.4043946 C4.56287155,57.8709459 3.31672812,66.9677929 2.60425916,72.6729626 L0.586048612,92.8686131 L59.1290541,92.8686131" id="Fill-79" fill="#B4B5B4"></path>
                                            <polyline id="Fill-80" fill="#B4B5B4" points="33.1916623 47.9668147 33.1916623 74.2049063 55.3933328 80.5426292 43.5224622 41.3785085 33.1916623 47.9668147"></polyline>
                                            <polyline id="Fill-81" fill="#B4B5B4" points="44.2918203 69.0388291 41.0288208 86.6812401 46.4685078 92.8686131 59.1290541 92.8686131 50.9695237 65.9492061 44.2918203 69.0388291"></polyline>
                                            <path d="M59.1290541,92.8686131 L74.7370005,41.3785085 L85.0678004,47.9668147 L107.818045,55.4043946 C113.695237,57.8709459 114.942735,66.9677929 115.655204,72.6729626 L117.673414,92.8686131 L59.1290541,92.8686131" id="Fill-82" fill="#B4B5B4"></path>
                                            <polyline id="Fill-83" fill="#B4B5B4" points="85.0678004 47.9668147 85.0678004 74.2049063 62.8661299 80.5426292 74.7370005 41.3785085 85.0678004 47.9668147"></polyline>
                                            <polyline id="Fill-84" fill="#272626" points="73.9676424 69.0388291 77.2292874 86.6812401 71.7896004 92.8686131 59.1290541 92.8686131 67.289939 65.9492061 73.9676424 69.0388291"></polyline>
                                            <path d="M13.3278652,67.532621 C13.3278652,67.532621 21.3668448,81.6384228 21.3668448,92.8686131 L18.017157,92.8686131 C18.017157,92.8686131 20.2507337,90.1447061 13.3278652,67.532621" id="Fill-85" fill="#9E9F9E"></path>
                                            <path d="M104.931598,67.532621 C104.931598,67.532621 96.892618,81.6384228 96.892618,92.8686131 L100.242306,92.8686131 C100.242306,92.8686131 98.008729,90.1447061 104.931598,67.532621" id="Fill-86" fill="#9E9F9E"></path>
                                        </g>
                                        <g id="Group-Copy-2" transform="translate(76.000000, 15.000000)">
                                            <path d="M51.9109038,47.2028746 C51.9109038,47.2028746 44.5965836,60.0340883 44.5965836,70.2511099 L47.644217,70.2511099 C47.644217,70.2511099 45.6124614,67.7723681 51.9109038,47.2028746" id="Fill-42" fill="#9E9F9E"></path>
                                            <path d="M66.348559,47.2028746 C66.348559,47.2028746 73.6628791,60.0340883 73.6628791,70.2511099 L70.6152457,70.2511099 C70.6152457,70.2511099 72.6470013,67.7723681 66.348559,47.2028746" id="Fill-60" fill="#9E9F9E"></path>
                                            <path d="M71.083904,41.8173677 C71.083904,39.3508165 70.8143577,29.1595304 70.8143577,29.1595304 L59.1439536,29.166303 L47.472195,29.1595304 C47.472195,29.1595304 47.2026488,39.3508165 47.2026488,41.8173677 C47.2026488,44.283919 46.4685078,47.3667695 46.4685078,47.3667695 L71.818045,47.3667695 C71.818045,47.3667695 71.083904,44.283919 71.083904,41.8173677" id="Fill-62" fill="#E3C0A3"></path>
                                            <path d="M115.655204,72.6729626 C114.942735,66.9677929 113.695237,57.8709459 107.818045,55.4043946 L75.7528783,44.9205358 L75.7284973,44.9625254 L75.6986982,44.9205358 C73.5328467,42.4539845 71.8613891,42.1966288 71.8613891,42.1966288 C71.8613891,42.1966288 67.4822786,45.6397773 59.1060275,45.6397773 C50.7297765,45.6397773 46.4278727,42.1966288 46.4278727,42.1966288 C46.4278727,42.1966288 44.7564151,42.4539845 42.5905636,44.9205358 L42.543156,44.9841975 L42.5065844,44.9205358 L10.4414177,55.4043946 C4.56287155,57.8709459 3.31672812,66.9677929 2.60425916,72.6729626 L0.586048612,92.8686131 L117.673414,92.8686131 L115.655204,72.6729626" id="Fill-63" fill="#B4B5B4"></path>
                                            <path d="M75.2327489,4.5630973 L77.7575438,3.21401159 C79.3450222,2.36609226 81.2657085,3.16660396 82.0391301,5.000602 C83.2216119,7.8017157 83.1118971,11.0579427 81.7465573,13.6802619 L80.6480548,15.7905787 C79.5387162,17.9225675 77.3633832,19.007525 75.1988863,18.5104222 L74.7370005,18.4034164 L75.2327489,4.5630973" id="Fill-64" fill="#E3C0A3"></path>
                                            <path d="M43.0267138,4.5630973 L40.5019189,3.21401159 C38.9144405,2.36609226 36.9923997,3.16660396 36.2203326,5.000602 C35.0378509,7.8017157 35.1475657,11.0579427 36.5129054,13.6802619 L37.6114079,15.7905787 C38.7207465,17.9225675 40.8960795,19.007525 43.0605764,18.5104222 L43.5224622,18.4034164 L43.0267138,4.5630973" id="Fill-65" fill="#E3C0A3"></path>
                                            <polyline id="Fill-69" fill="#385881" points="64.6540748 45.6397773 53.5606893 45.6397773 50.9695237 52.2551735 59.107382 58.8705696 67.2438859 52.2551735 64.6540748 45.6397773"></polyline>
                                            <path d="M62.4895778,56.0532019 C62.4895778,56.0532019 61.5156897,55.539845 59.107382,55.539845 C56.6977199,55.539845 55.7251862,56.0532019 55.7251862,56.0532019 L50.9695237,92.8686131 L67.2438859,92.8686131 L62.4895778,56.0532019" id="Fill-70" fill="#314B6E"></path>
                                            <path d="M70.9416811,37.8622169 C70.9416811,37.8622169 68.8245918,43.5457145 59.107382,45.6397773 C59.107382,45.6397773 61.0023328,45.558507 62.9555271,49.9132365 C64.719091,53.8412973 66.8077357,57.7842577 66.8077357,57.7842577 C66.8077357,57.7842577 75.5971104,48.9068402 76.0847317,44.9841975 C76.0847317,44.9841975 72.4329897,34.7549853 70.8766649,34.9649334 L70.9416811,37.8622169" id="Fill-71" fill="#FFFFFF"></path>
                                            <path d="M47.2717285,37.8622169 C47.2717285,37.8622169 49.3901723,43.5457145 59.107382,45.6397773 C59.107382,45.6397773 57.2124313,45.558507 55.2578825,49.9132365 C53.4956731,53.8412973 51.4056739,57.7842577 51.4056739,57.7842577 C51.4056739,57.7842577 42.6176537,48.9068402 42.1286779,44.9841975 C42.1286779,44.9841975 45.7804199,34.7549853 47.3367447,34.9649334 L47.2717285,37.8622169" id="Fill-72" fill="#FFFFFF"></path>
                                            <path d="M60.8939725,18.3316277 C59.7385808,18.6485815 58.5208819,18.6485815 57.3654903,18.3316277 L55.6791331,17.8697419 L57.453533,20.3092031 C58.2811348,21.4469862 59.9783279,21.4469862 60.8059297,20.3092031 L62.5803296,17.8697419 L60.8939725,18.3316277" id="Fill-73" fill="#E3C0A3"></path>
                                            <path d="M62.3446459,26.0279178 C60.2397472,26.3855068 58.0197156,26.3855068 55.9148168,26.0279178 L55.3933328,25.9398751 L56.7234555,26.7349688 C58.0725412,27.5408985 60.2126571,27.5381895 61.5563248,26.7281963 L62.8661299,25.9398751 L62.3446459,26.0279178" id="Fill-74" fill="#E3C0A3"></path>
                                            <path d="M52.8102942,4.33147716 L53.6622771,2.11550907 L55.8850177,3.45782226 C57.1365791,4.21363534 57.8558206,5.61283769 57.7393333,7.0716382 L57.1230341,14.8248175 L56.6543758,10.2696215 C56.4444277,8.2365114 55.4177139,6.37677779 53.809918,5.11708932 L52.8102942,4.33147716" id="Fill-75" fill="#E3C0A3"></path>
                                            <path d="M52.8102942,4.33147716 L47.2283844,3.18421251 C46.5159154,3.0379261 45.7777109,3.09210625 45.095041,3.34268944 L44.1563699,3.68673339 L45.5108737,2.03288434 C46.3994281,0.949281361 47.7986304,0.422379412 49.1815787,0.652645045 L51.5695688,1.05086914 C52.8658289,1.26758974 53.9683949,2.12092708 54.5020694,3.32237189 L54.9869817,4.41274739 L53.5986154,4.41274739 C53.3331327,4.41274739 53.0690044,4.38565731 52.8102942,4.33147716" id="Fill-76" fill="#3B2A20"></path>
                                            <path d="M65.4044699,4.33147716 L70.9863797,3.18421251 C71.6974942,3.0379261 72.4356987,3.09210625 73.1183686,3.34268944 L74.0583942,3.68673339 L72.7025359,2.03288434 C71.8139815,0.949281361 70.4147791,0.422379412 69.0331853,0.652645045 L66.6451953,1.05086914 C65.3475807,1.26758974 64.2463692,2.12092708 63.7126947,3.32237189 L63.2277824,4.41274739 L64.6161487,4.41274739 C64.8802769,4.41274739 65.1444051,4.38565731 65.4044699,4.33147716" id="Fill-77" fill="#3B2A20"></path>
                                            <path d="M60.5269019,22.809617 C60.1232598,22.7608548 60.0677252,22.8299345 59.7209722,23.00602 L59.107382,23.3175559 L58.4924374,23.00602 C58.1470389,22.8299345 58.0915043,22.7608548 57.6865076,22.809617 C57.6865076,22.809617 56.5026714,23.3067198 53.1787192,23.3175559 C53.1787192,23.3175559 55.2795545,23.7848597 55.8795997,23.8282038 C56.4782903,23.8701934 58.0657687,24.0489879 59.107382,24.0489879 C60.1476409,24.0489879 61.7351193,23.8701934 62.3338099,23.8282038 C62.9338551,23.7848597 65.0360448,23.3175559 65.0360448,23.3175559 C61.7120927,23.3067198 60.5269019,22.809617 60.5269019,22.809617" id="Fill-78" fill="#E3C0A3"></path>
                                            <path d="M59.1290541,92.8686131 L43.5224622,41.3785085 L33.1916623,47.9668147 L10.4414177,55.4043946 C4.56287155,57.8709459 3.31672812,66.9677929 2.60425916,72.6729626 L0.586048612,92.8686131 L59.1290541,92.8686131" id="Fill-79" fill="#B4B5B4"></path>
                                            <polyline id="Fill-80" fill="#B4B5B4" points="33.1916623 47.9668147 33.1916623 74.2049063 55.3933328 80.5426292 43.5224622 41.3785085 33.1916623 47.9668147"></polyline>
                                            <polyline id="Fill-81" fill="#B4B5B4" points="44.2918203 69.0388291 41.0288208 86.6812401 46.4685078 92.8686131 59.1290541 92.8686131 50.9695237 65.9492061 44.2918203 69.0388291"></polyline>
                                            <path d="M59.1290541,92.8686131 L74.7370005,41.3785085 L85.0678004,47.9668147 L107.818045,55.4043946 C113.695237,57.8709459 114.942735,66.9677929 115.655204,72.6729626 L117.673414,92.8686131 L59.1290541,92.8686131" id="Fill-82" fill="#B4B5B4"></path>
                                            <polyline id="Fill-83" fill="#B4B5B4" points="85.0678004 47.9668147 85.0678004 74.2049063 62.8661299 80.5426292 74.7370005 41.3785085 85.0678004 47.9668147"></polyline>
                                            <polyline id="Fill-84" fill="#272626" points="73.9676424 69.0388291 77.2292874 86.6812401 71.7896004 92.8686131 59.1290541 92.8686131 67.289939 65.9492061 73.9676424 69.0388291"></polyline>
                                            <path d="M13.3278652,67.532621 C13.3278652,67.532621 21.3668448,81.6384228 21.3668448,92.8686131 L18.017157,92.8686131 C18.017157,92.8686131 20.2507337,90.1447061 13.3278652,67.532621" id="Fill-85" fill="#9E9F9E"></path>
                                        </g>
                                        <g id="Group" transform="translate(30.000000, 0.000000)">
                                            <path d="M59.2649485,84.7149485 C59.2649485,84.7149485 50.914433,99.3639175 50.914433,111.028351 L54.3938144,111.028351 C54.3938144,111.028351 52.0742268,108.198454 59.2649485,84.7149485" id="Fill-42" fill="#9E9F9E"></path>
                                            <path d="M75.7479381,84.7149485 C75.7479381,84.7149485 84.0984536,99.3639175 84.0984536,111.028351 L80.6190722,111.028351 C80.6190722,111.028351 82.9386598,108.198454 75.7479381,84.7149485" id="Fill-60" fill="#9E9F9E"></path>
                                            <path d="M81.1541237,78.5664948 C81.1541237,75.7505155 80.8463918,64.1154639 80.8463918,64.1154639 L67.5226804,64.1231959 L54.1974227,64.1154639 C54.1974227,64.1154639 53.8896907,75.7505155 53.8896907,78.5664948 C53.8896907,81.3824742 53.0515464,84.9020619 53.0515464,84.9020619 L81.992268,84.9020619 C81.992268,84.9020619 81.1541237,81.3824742 81.1541237,78.5664948" id="Fill-62" fill="#E3C0A3"></path>
                                            <path d="M132.039691,113.793299 C131.226289,107.279897 129.802062,96.8943299 123.092268,94.0783505 L86.4845361,82.1092784 L86.456701,82.1572165 L86.4226804,82.1092784 C83.95,79.293299 82.0417526,78.9994845 82.0417526,78.9994845 C82.0417526,78.9994845 77.042268,82.9304124 67.4793814,82.9304124 C57.9164948,82.9304124 53.0051546,78.9994845 53.0051546,78.9994845 C53.0051546,78.9994845 51.0969072,79.293299 48.6242268,82.1092784 L48.5701031,82.1819588 L48.5283505,82.1092784 L11.9206186,94.0783505 C5.20927835,96.8943299 3.78659794,107.279897 2.97319588,113.793299 L0.669072165,136.85 L134.343814,136.85 L132.039691,113.793299" id="Fill-63" fill="#B4B5B4"></path>
                                            <path d="M85.8907216,36.0345361 L88.7731959,34.4943299 C90.585567,33.5262887 92.7783505,34.4402062 93.6613402,36.5340206 C95.0113402,39.7319588 94.8860825,43.4494845 93.3273196,46.443299 L92.0731959,48.8525773 C90.806701,51.2865979 88.3231959,52.5252577 85.8520619,51.957732 L85.3247423,51.835567 L85.8907216,36.0345361" id="Fill-64" fill="#E3C0A3"></path>
                                            <path d="M49.1221649,36.0345361 L46.2396907,34.4943299 C44.4273196,33.5262887 42.2329897,34.4402062 41.3515464,36.5340206 C40.0015464,39.7319588 40.1268041,43.4494845 41.685567,46.443299 L42.9396907,48.8525773 C44.2061856,51.2865979 46.6896907,52.5252577 49.1608247,51.957732 L49.6881443,51.835567 L49.1221649,36.0345361" id="Fill-65" fill="#E3C0A3"></path>
                                            <path d="M67.5056701,8.82731959 L44.1706186,22.5809278 C44.1706186,22.5809278 47.3360825,45.6762887 48.5453608,53.0664948 C49.7561856,60.4551546 56.4226804,67.2515464 58.8613402,69.0592784 C61.2984536,70.8685567 67.5056701,70.7417526 67.5056701,70.7417526 C67.5056701,70.7417526 73.714433,70.8685567 76.1515464,69.0592784 C78.5902062,67.2515464 85.256701,60.4551546 86.4659794,53.0664948 C87.6768041,45.6762887 90.8407216,22.5809278 90.8407216,22.5809278 L67.5056701,8.82731959" id="Fill-66" fill="#F9D7BE"></path>
                                            <path d="M87.0304124,8.16546392 C85.3061856,6.45824742 82.8814433,4.74484536 79.8829897,4.44020619 C79.8829897,4.44020619 79.1515464,0.843298969 70.3525773,0.843298969 L63.7556701,0.843298969 C58.635567,0.843298969 53.6005155,2.83195876 49.7206186,6.4443299 C45.1912371,10.6613402 42.5639175,14.6201031 42.7649485,21.0345361 L43.6634021,34.3103093 C44.3515464,34.0798969 45.0953608,34.0628866 45.8051546,34.3226804 C46.0216495,35.856701 46.2474227,37.4479381 46.4731959,39.0391753 C48.9891753,35.8319588 49.5350515,34.1773196 49.9773196,29.2443299 C50.5278351,23.1113402 52.6030928,21.0221649 52.6030928,21.0221649 C52.6030928,21.0221649 54.928866,17.7670103 67.5056701,17.7670103 C71.1597938,17.7670103 73.9278351,18.0453608 76.0448454,18.4350515 C81.2175258,19.3876289 82.4097938,21.0221649 82.4097938,21.0221649 C82.4097938,21.0221649 84.4850515,23.1113402 85.035567,29.2443299 C85.4778351,34.1773196 86.0237113,35.8319588 88.5396907,39.0391753 C88.7654639,37.4479381 88.9912371,35.856701 89.207732,34.3226804 C89.9175258,34.0628866 90.6613402,34.0798969 91.3494845,34.3103093 L92.2479381,21.0345361 C92.421134,15.4969072 90.4773196,11.7902062 87.0304124,8.16546392" id="Fill-67" fill="#3B2A20"></path>
                                            <path d="M67.5056701,14 C59.1335052,14 55.8876289,17.2041237 52.6757732,20.9386598 C53.1195876,20.45 56.0716495,17.7670103 67.5056701,17.7670103 C71.1613402,17.7670103 75.6365979,18.4180412 77.7551546,18.807732 C77.7551546,18.807732 75.9412371,14 67.5056701,14" id="Fill-68" fill="#2B211B"></path>
                                            <polyline id="Fill-69" fill="#385881" points="73.8134021 82.9304124 61.1484536 82.9304124 58.1902062 90.4829897 67.4809278 98.035567 76.7701031 90.4829897 73.8134021 82.9304124"></polyline>
                                            <path d="M71.342268,94.8190722 C71.342268,94.8190722 70.2304124,94.2329897 67.4809278,94.2329897 C64.7298969,94.2329897 63.6195876,94.8190722 63.6195876,94.8190722 L58.1902062,136.85 L76.7701031,136.85 L71.342268,94.8190722" id="Fill-70" fill="#314B6E"></path>
                                            <path d="M80.9917526,74.0510309 C80.9917526,74.0510309 78.5747423,80.5396907 67.4809278,82.9304124 C67.4809278,82.9304124 69.6443299,82.8376289 71.8742268,87.8092784 C73.8876289,92.2938144 76.2721649,96.7953608 76.2721649,96.7953608 C76.2721649,96.7953608 86.306701,86.6603093 86.8634021,82.1819588 C86.8634021,82.1819588 82.6943299,70.5036082 80.9175258,70.743299 L80.9917526,74.0510309" id="Fill-71" fill="#FFFFFF"></path>
                                            <path d="M53.9685567,74.0510309 C53.9685567,74.0510309 56.3871134,80.5396907 67.4809278,82.9304124 C67.4809278,82.9304124 65.3175258,82.8376289 63.0860825,87.8092784 C61.0742268,92.2938144 58.6881443,96.7953608 58.6881443,96.7953608 C58.6881443,96.7953608 48.6551546,86.6603093 48.0969072,82.1819588 C48.0969072,82.1819588 52.2659794,70.5036082 54.0427835,70.743299 L53.9685567,74.0510309" id="Fill-72" fill="#FFFFFF"></path>
                                            <g id="Group-13" transform="translate(60.000000, 56.000000)" fill="#E3C0A3">
                                                <path d="M11.1768041,4.54020619 C8.77371134,4.94845361 6.23917526,4.94845361 3.83608247,4.54020619 L3.24072165,4.43969072 L4.75927835,5.34742268 C6.29948454,6.26752577 8.74278351,6.26443299 10.2768041,5.33969072 L11.7721649,4.43969072 L11.1768041,4.54020619" id="Fill-74"></path>
                                                <path d="M9.10154639,0.865979381 C8.64072165,0.810309278 8.57731959,0.889175258 8.1814433,1.09020619 L7.48092784,1.44587629 L6.77886598,1.09020619 C6.38453608,0.889175258 6.32113402,0.810309278 5.85876289,0.865979381 C5.85876289,0.865979381 4.50721649,1.43350515 0.712371134,1.44587629 C0.712371134,1.44587629 3.11082474,1.97938144 3.79587629,2.02886598 C4.47938144,2.07680412 6.29175258,2.28092784 7.48092784,2.28092784 C8.6685567,2.28092784 10.4809278,2.07680412 11.164433,2.02886598 C11.8494845,1.97938144 14.2494845,1.44587629 14.2494845,1.44587629 C10.4546392,1.43350515 9.10154639,0.865979381 9.10154639,0.865979381" id="Fill-78"></path>
                                            </g>
                                            <path d="M67.5056701,136.85 L49.6881443,78.0654639 L37.8938144,85.5871134 L11.9206186,94.0783505 C5.20927835,96.8943299 3.78659794,107.279897 2.97319588,113.793299 L0.669072165,136.85 L67.5056701,136.85" id="Fill-79" fill="#242323"></path>
                                            <polyline id="Fill-80" fill="#272626" points="37.8938144 85.5871134 37.8938144 115.542268 63.2407216 122.777835 49.6881443 78.0654639 37.8938144 85.5871134"></polyline>
                                            <polyline id="Fill-81" fill="#272626" points="50.5664948 109.64433 46.8412371 129.786082 53.0515464 136.85 67.5056701 136.85 58.1902062 106.11701 50.5664948 109.64433"></polyline>
                                            <path d="M67.5056701,136.85 L85.3247423,78.0654639 L97.1190722,85.5871134 L123.092268,94.0783505 C129.802062,96.8943299 131.226289,107.279897 132.039691,113.793299 L134.343814,136.85 L67.5056701,136.85" id="Fill-82" fill="#242323"></path>
                                            <polyline id="Fill-83" fill="#272626" points="97.1190722 85.5871134 97.1190722 115.542268 71.7721649 122.777835 85.3247423 78.0654639 97.1190722 85.5871134"></polyline>
                                            <polyline id="Fill-84" fill="#272626" points="84.4463918 109.64433 88.1701031 129.786082 81.9597938 136.85 67.5056701 136.85 76.8226804 106.11701 84.4463918 109.64433"></polyline>
                                            <path d="M15.2159794,107.924742 C15.2159794,107.924742 24.3938144,124.028866 24.3938144,136.85 L20.5695876,136.85 C20.5695876,136.85 23.1195876,133.740206 15.2159794,107.924742" id="Fill-85" fill="#222120"></path>
                                            <path d="M119.796907,107.924742 C119.796907,107.924742 110.619072,124.028866 110.619072,136.85 L114.443299,136.85 C114.443299,136.85 111.893299,133.740206 119.796907,107.924742" id="Fill-86" fill="#222120"></path>
                                        </g>
                                    </g>
                                </g>
                            </g>
                            <g id="Group-11" transform="translate(15.000000, 1.000000)">
                                <g id="Group-8">
                                    <path d="M22.1290541,7.73195876 L1.6895929,19.7789149 C1.6895929,19.7789149 4.46226202,40.008428 5.52148393,46.4816013 C6.58206035,52.9534201 12.4213259,58.906464 14.5573783,60.4898788 C16.6920762,62.0746482 22.1290541,61.9635789 22.1290541,61.9635789 C22.1290541,61.9635789 27.5673866,62.0746482 29.7020844,60.4898788 C31.8381368,58.906464 37.6774024,52.9534201 38.7366243,46.4816013 C39.7972007,40.008428 42.5685153,19.7789149 42.5685153,19.7789149 L22.1290541,7.73195876" id="Fill-66" fill="#F9D7BE"></path>
                                    <path d="M39.2310181,7.15223117 C37.7207465,5.65685906 35.5968846,4.15606893 32.9705019,3.8892317 C32.9705019,3.8892317 32.3298217,0.738656031 24.6226955,0.738656031 L18.8443826,0.738656031 C14.3596207,0.738656031 9.94935661,2.48054782 6.55090676,5.64466852 C2.58356535,9.33840018 0.282263526,12.8059297 0.45834901,18.4244112 L1.24531567,30.0528256 C1.84806983,29.8510046 2.49958612,29.836105 3.12130333,30.0636617 C3.31093386,31.4073294 3.5086914,32.8011137 3.70644894,34.194898 C5.9102265,31.3856573 6.38836632,29.9363383 6.77575438,25.6154714 C7.25795771,20.2435097 9.07570171,18.4135751 9.07570171,18.4135751 C9.07570171,18.4135751 11.1128753,15.5623448 22.1290541,15.5623448 C25.3297464,15.5623448 27.7543081,15.8061555 29.6086237,16.1474904 C34.1394386,16.9818647 35.183761,18.4135751 35.183761,18.4135751 C35.183761,18.4135751 37.001505,20.2435097 37.4837083,25.6154714 C37.8710964,29.9363383 38.3492362,31.3856573 40.5530138,34.194898 C40.7507713,32.8011137 40.9485289,31.4073294 41.1381594,30.0636617 C41.7598766,29.836105 42.4113929,29.8510046 43.014147,30.0528256 L43.8011137,18.4244112 C43.9528181,13.5739333 42.2502069,10.3271879 39.2310181,7.15223117" id="Fill-67" fill="#3B2A20"></path>
                                    <path d="M22.1290541,12.2627737 C14.7957709,12.2627737 11.9526676,15.0693054 9.13936338,18.3404319 C9.52810595,17.9124088 12.1138536,15.5623448 22.1290541,15.5623448 C25.3311009,15.5623448 29.2510347,16.1325909 31.1067048,16.4739258 C31.1067048,16.4739258 29.5178719,12.2627737 22.1290541,12.2627737" id="Fill-68" fill="#2B211B"></path>
                                </g>
                                <g id="Group-9" transform="translate(17.000000, 0.000000)">
                                    <path d="M81.1290541,7.73195876 L60.6895929,19.7789149 C60.6895929,19.7789149 63.462262,40.008428 64.5214839,46.4816013 C65.5820604,52.9534201 71.4213259,58.906464 73.5573783,60.4898788 C75.6920762,62.0746482 81.1290541,61.9635789 81.1290541,61.9635789 C81.1290541,61.9635789 86.5673866,62.0746482 88.7020844,60.4898788 C90.8381368,58.906464 96.6774024,52.9534201 97.7366243,46.4816013 C98.7972007,40.008428 101.568515,19.7789149 101.568515,19.7789149 L81.1290541,7.73195876" id="Fill-66" fill="#F9D7BE"></path>
                                    <g id="Group-13" transform="translate(76.000000, 49.000000)" fill="#E3C0A3">
                                        <path d="M7.98343152,3.24300442 C6.26693667,3.53460972 4.45655376,3.53460972 2.74005891,3.24300442 L2.31480118,3.17120766 L3.39948454,3.81958763 C4.49963181,4.47680412 6.24484536,4.47459499 7.34057437,3.8140648 L8.40868925,3.17120766 L7.98343152,3.24300442" id="Fill-74"></path>
                                        <path d="M6.50110457,0.618556701 C6.17194404,0.578792342 6.12665685,0.635125184 5.84388807,0.778718704 L5.34351988,1.03276878 L4.84204713,0.778718704 C4.56038292,0.635125184 4.51509573,0.578792342 4.18483063,0.618556701 C4.18483063,0.618556701 3.21944035,1.02393225 0.508836524,1.03276878 C0.508836524,1.03276878 2.22201767,1.41384389 2.71134021,1.44918999 C3.19955817,1.48343152 4.49410898,1.62923417 5.34351988,1.62923417 C6.19182622,1.62923417 7.48637703,1.48343152 7.97459499,1.44918999 C8.46391753,1.41384389 10.1782032,1.03276878 10.1782032,1.03276878 C7.46759941,1.02393225 6.50110457,0.618556701 6.50110457,0.618556701" id="Fill-78"></path>
                                    </g>
                                    <g id="Group-13-Copy" transform="translate(0.000000, 49.000000)" fill="#E3C0A3">
                                        <path d="M7.98343152,3.24300442 C6.26693667,3.53460972 4.45655376,3.53460972 2.74005891,3.24300442 L2.31480118,3.17120766 L3.39948454,3.81958763 C4.49963181,4.47680412 6.24484536,4.47459499 7.34057437,3.8140648 L8.40868925,3.17120766 L7.98343152,3.24300442" id="Fill-74"></path>
                                        <path d="M6.50110457,0.618556701 C6.17194404,0.578792342 6.12665685,0.635125184 5.84388807,0.778718704 L5.34351988,1.03276878 L4.84204713,0.778718704 C4.56038292,0.635125184 4.51509573,0.578792342 4.18483063,0.618556701 C4.18483063,0.618556701 3.21944035,1.02393225 0.508836524,1.03276878 C0.508836524,1.03276878 2.22201767,1.41384389 2.71134021,1.44918999 C3.19955817,1.48343152 4.49410898,1.62923417 5.34351988,1.62923417 C6.19182622,1.62923417 7.48637703,1.48343152 7.97459499,1.44918999 C8.46391753,1.41384389 10.1782032,1.03276878 10.1782032,1.03276878 C7.46759941,1.02393225 6.50110457,0.618556701 6.50110457,0.618556701" id="Fill-78"></path>
                                    </g>
                                    <path d="M98.2310181,7.15223117 C96.7207465,5.65685906 94.5968846,4.15606893 91.9705019,3.8892317 C91.9705019,3.8892317 91.3298217,0.738656031 83.6226955,0.738656031 L77.8443826,0.738656031 C73.3596207,0.738656031 68.9493566,2.48054782 65.5509068,5.64466852 C61.5835654,9.33840018 59.2822635,12.8059297 59.458349,18.4244112 L60.2453157,30.0528256 C60.8480698,29.8510046 61.4995861,29.836105 62.1213033,30.0636617 C62.3109339,31.4073294 62.5086914,32.8011137 62.7064489,34.194898 C64.9102265,31.3856573 65.3883663,29.9363383 65.7757544,25.6154714 C66.2579577,20.2435097 68.0757017,18.4135751 68.0757017,18.4135751 C68.0757017,18.4135751 70.1128753,15.5623448 81.1290541,15.5623448 C84.3297464,15.5623448 86.7543081,15.8061555 88.6086237,16.1474904 C93.1394386,16.9818647 94.183761,18.4135751 94.183761,18.4135751 C94.183761,18.4135751 96.001505,20.2435097 96.4837083,25.6154714 C96.8710964,29.9363383 97.3492362,31.3856573 99.5530138,34.194898 C99.7507713,32.8011137 99.9485289,31.4073294 100.138159,30.0636617 C100.759877,29.836105 101.411393,29.8510046 102.014147,30.0528256 L102.801114,18.4244112 C102.952818,13.5739333 101.250207,10.3271879 98.2310181,7.15223117" id="Fill-67" fill="#3B2A20"></path>
                                    <path d="M81.1290541,12.2627737 C73.7957709,12.2627737 70.9526676,15.0693054 68.1393634,18.3404319 C68.528106,17.9124088 71.1138536,15.5623448 81.1290541,15.5623448 C84.3311009,15.5623448 88.2510347,16.1325909 90.1067048,16.4739258 C90.1067048,16.4739258 88.5178719,12.2627737 81.1290541,12.2627737" id="Fill-68" fill="#2B211B"></path>
                                </g>
                            </g>
                        </g>
                    </g>
                    <g id="Group-5" transform="translate(250.000000, 1.000000)">
                        <g id="Group-6" transform="translate(0.000000, 8.000000)">
                            <mask id="mask-6" fill="white">
                                <use xlink:href="#path-5"></use>
                            </mask>
                            <use id="Oval" fill="#95CC7A" xlink:href="#path-5"></use>
                            <g id="Group-2" mask="url(#mask-6)">
                                <g transform="translate(7.000000, 49.000000)">
                                    <path d="M55.0910145,40.1553623 C25.0005797,53.3472464 15.9756522,60.3791304 12.4069565,63.5362319 C6.90898551,68.4011594 3.86782609,86.5368116 0.624927536,101.936232 L136.775652,101.936232 C133.532754,86.5368116 130.491594,68.4011594 124.993623,63.5362319 C121.424928,60.3791304 112.729275,53.5269565 82.64,40.3362319 L55.0910145,40.1553623" id="Fill-195" fill="#FFD16E"></path>
                                    <path d="M83.3089855,13.8608696 L83.3089855,47.213913 C75.2742029,57.0550725 62.1252174,56.7153623 54.0904348,47.213913 L54.0904348,13.8608696 C54.0904348,-4.14724638 83.3089855,-4.14724638 83.3089855,13.8608696" id="Fill-196" fill="#FFDECC"></path>
                                    <polyline id="Fill-204" fill="#FFFFFF" points="52.7037681 39.7982609 42.3431884 45.4063768 57.3669565 66.2330435 68.7675362 55.4191304 52.7037681 39.7982609"></polyline>
                                    <polyline id="Fill-205" fill="#FFFFFF" points="84.8289855 39.7982609 95.1918841 45.4063768 80.1669565 66.2330435 68.7675362 55.4191304 84.8289855 39.7982609"></polyline>
                                    <path d="M62.4185507,61.2347826 L65.955942,66.7153623 L71.4446377,66.7153623 L74.9831884,61.2347826 L68.7675362,55.2684058 L62.4185507,61.2347826" id="Fill-206" fill="#FF386A"></path>
                                    <polyline id="Fill-207" fill="#FF386A" points="65.955942 66.7153623 60.9182609 101.936232 76.4834783 101.936232 71.4446377 66.7153623 65.955942 66.7153623"></polyline>
                                    <path d="M28.3675362,101.936232 L30.7002899,101.936232 C30.595942,91.5686957 30.595942,84.0973913 30.595942,84.0973913 C30.595942,84.0973913 29.5628986,91.862029 28.3675362,101.936232" id="Fill-208" fill="#BA8D3A"></path>
                                    <path d="M109.033043,101.936232 L106.70029,101.936232 C106.804638,91.5686957 106.804638,84.0973913 106.804638,84.0973913 C106.804638,84.0973913 107.837681,91.862029 109.033043,101.936232" id="Fill-209" fill="#BA8D3A"></path>
                                </g>
                            </g>
                        </g>
                        <g id="Group-7" transform="translate(35.000000, 0.000000)">
                            <path d="M65.1153623,8.27304348 C72.3130435,9.42202899 76.2944928,14.3565217 77.9988406,21.0533333 C82.435942,38.4886957 73.1478261,76.2997101 40.9971014,76.7495652 C24.4185507,76.9826087 12.4753623,72.7669565 8.12521739,59.3478261 C3.77391304,45.9286957 1.9884058,24.3043478 11.4446377,12.1826087 C23.3426087,-3.06376812 48.3153623,-3.20637681 65.1153623,8.27304348" id="Fill-194" fill="#802D04"></path>
                            <path d="M55.3089855,70.8608696 L55.3089855,93.1913043 C49.7808696,97.2214493 44.4521739,99.4788406 40.7002899,99.4788406 C36.9484058,99.4788406 31.6185507,97.2214493 26.0904348,93.1924638 L26.0904348,70.8608696 C26.0904348,52.8527536 55.3089855,52.8527536 55.3089855,70.8608696" id="Fill-197" fill="#F8C5AA"></path>
                            <path d="M40.7002899,10.9814493 C-8.33391304,10.9814493 9.30086957,70.2301449 12.5031884,74.9455072 C16.0336232,80.1466667 32.777971,93.9333333 40.7002899,93.9333333 C48.6226087,93.9333333 65.3646377,80.1478261 68.8973913,74.9455072 C72.1008696,70.2289855 89.7344928,10.9814493 40.7002899,10.9814493" id="Fill-198" fill="#FFDECC"></path>
                            <path d="M53.76,75.9043478 C42.2643478,76.4330435 30.8962319,72.2011594 23.9455072,65.9228986 C24.377971,75.4371014 46.2794203,82.8446377 53.76,75.9043478" id="Fill-199" fill="#F8C5AA"></path>
                            <path d="M26.9657971,65.0962319 C24.5704348,66.0272464 22.6307246,67.9205797 21.7785507,69.8313043 C21.2162319,67.2307246 25.0353623,63.6968116 26.9657971,65.0962319" id="Fill-200" fill="#F8C5AA"></path>
                            <path d="M3.02028986,43.4231884 C5.59304348,42.5768116 8.86724638,45.4962319 10.3327536,49.9472464 C11.7982609,54.3971014 10.8997101,58.6915942 8.3257971,59.5391304 C5.75304348,60.3866667 2.47884058,57.466087 1.01333333,53.0162319 C-0.452173913,48.5663768 0.446376812,44.2718841 3.02028986,43.4231884" id="Fill-201" fill="#FFDECC"></path>
                            <path d="M78.2515942,43.4243478 C75.6776812,42.5768116 72.4034783,45.4962319 70.937971,49.9472464 C69.4724638,54.3971014 70.3710145,58.6915942 72.9437681,59.5391304 C75.5176812,60.3866667 78.7918841,57.466087 80.2573913,53.0162319 C81.724058,48.5663768 80.8243478,44.2718841 78.2515942,43.4243478" id="Fill-202" fill="#FFDECC"></path>
                            <path d="M64.7350725,25.7188406 C56.1205797,31.022029 45.8724638,29.1553623 49.8492754,24.5153623 C53.8249275,19.8753623 49.4550725,23.1101449 41.6753623,26.5037681 C33.8956522,29.8962319 24.9484058,29.3327536 30.2492754,26.462029 C36.6794203,22.9791304 11.5802899,20.6973913 6.98898551,56.5501449 C-0.373333333,30.5478261 12.0568116,8.77507246 40.1298551,7.53913043 C70.1101449,6.21971014 82.2515942,29.9495652 73.9617391,55.777971 C74.5066667,41.7849275 71.1257971,32.6301449 64.7350725,25.7188406" id="Fill-203" fill="#802D04"></path>
                        </g>
                    </g>
                    <g id="Group-3" transform="translate(183.000000, 78.000000)" fill="#5179AD">
                        <circle id="Oval-2" cx="3.5" cy="3.5" r="3.5"></circle>
                        <circle id="Oval-2-Copy" cx="17.5" cy="3.5" r="3.5"></circle>
                        <circle id="Oval-2-Copy-2" cx="31.5" cy="3.5" r="3.5"></circle>
                    </g>
                    <g id="Group-3-Copy" transform="translate(433.000000, 77.000000)" fill="#5179AD">
                        <circle id="Oval-2" cx="3.5" cy="3.5" r="3.5"></circle>
                        <circle id="Oval-2-Copy" cx="17.5" cy="3.5" r="3.5"></circle>
                        <circle id="Oval-2-Copy-2" cx="31.5" cy="3.5" r="3.5"></circle>
                    </g>
                </g>
            </g>
        </g>
    </g>
</svg>