<?xml version="1.0" encoding="UTF-8"?>
<svg width="200px" height="200px" viewBox="0 0 200 200" version="1.1" xmlns="http://www.w3.org/2000/svg" xmlns:xlink="http://www.w3.org/1999/xlink">
    <!-- Generator: Sketch 48.2 (47327) - http://www.bohemiancoding.com/sketch -->
    <title>get-notified-icon2</title>
    <desc>Created with Sketch.</desc>
    <defs></defs>
    <g id="Page-1" stroke="none" stroke-width="1" fill="none" fill-rule="evenodd">
        <g id="get-notified-icon2" fill-rule="nonzero">
            <circle id="Oval" fill="#00AAFF" cx="100" cy="100" r="100"></circle>
            <g id="laptop-1" transform="translate(24.500000, 37.500000)">
                <g id="Layer_1">
                    <g id="Group">
                        <path d="M43.8419118,63.7408088 L43.8419118,80.1623775 C43.8419118,81.5104167 45.4963235,82.1231618 46.3848039,81.1121324 L61.3970588,63.7408088 L112.83701,63.7408088 C117.340686,63.7408088 120.98652,60.0949755 120.98652,55.591299 L120.98652,11.1672794 C120.98652,6.66360294 117.340686,3.01776961 112.83701,3.01776961 L37.622549,3.01776961 C33.1188725,3.01776961 29.4730392,6.66360294 29.4730392,11.1672794 L29.4730392,55.591299 C29.4730392,60.0949755 33.1188725,63.7408088 37.622549,63.7408088 L43.8419118,63.7408088 Z" id="Shape"></path>
                        <path d="M26.1642157,106.847426 L59.1605392,106.847426 C60.0490196,109.48223 62.5306373,111.38174 65.4411765,111.38174 L84.8958333,111.38174 C87.8063725,111.38174 90.2879902,109.48223 91.1764706,106.847426 L124.203431,106.847426 C125.735294,106.847426 126.991422,105.591299 126.991422,104.059436 C126.991422,102.527574 125.735294,101.271446 124.203431,101.271446 L88.7561275,101.271446 C87.2242647,101.271446 85.9681373,102.527574 85.9681373,104.059436 L85.9681373,104.733456 C85.9681373,105.315564 85.4779412,105.80576 84.8958333,105.80576 L65.4411765,105.80576 C64.8590686,105.80576 64.3688725,105.315564 64.3688725,104.733456 L64.3688725,104.059436 C64.3688725,102.527574 63.1127451,101.271446 61.5808824,101.271446 L26.1642157,101.271446 C24.6323529,101.271446 23.3762255,102.527574 23.3762255,104.059436 C23.4068627,105.591299 24.6323529,106.847426 26.1642157,106.847426 Z" id="Shape" fill="#FFFFFF"></path>
                        <path d="M147.579657,101.271446 L139.307598,101.271446 L139.307598,30.8057598 C139.307598,29.2738971 138.051471,28.0177696 136.519608,28.0177696 C134.987745,28.0177696 133.731618,29.2738971 133.731618,30.8057598 L133.731618,104.059436 C133.731618,105.591299 134.987745,106.847426 136.519608,106.847426 L144.761029,106.847426 L144.761029,111.289828 C144.761029,115.762868 141.115196,119.378064 136.672794,119.378064 L13.6642157,119.378064 C9.19117647,119.378064 5.57598039,115.73223 5.57598039,111.289828 L5.57598039,106.847426 L13.817402,106.847426 C15.3492647,106.847426 16.6053922,105.591299 16.6053922,104.059436 L16.6053922,30.8057598 C16.6053922,29.2738971 15.3492647,28.0177696 13.817402,28.0177696 C12.2855392,28.0177696 11.0294118,29.2738971 11.0294118,30.8057598 L11.0294118,101.271446 L2.7879902,101.271446 C1.25612745,101.271446 0,102.527574 0,104.059436 L0,111.289828 C0,118.826593 6.12745098,124.954044 13.6642157,124.954044 L136.703431,124.954044 C144.240196,124.954044 150.367647,118.826593 150.367647,111.289828 L150.367647,104.059436 C150.33701,102.527574 149.11152,101.271446 147.579657,101.271446 Z" id="Shape" fill="#FFFFFF"></path>
                        <path d="M87.2855392,21.6145833 L69.5159314,39.2922794 L63.2046569,32.9503676 C62.1323529,31.8474265 60.3553922,31.8474265 59.2830882,32.9503676 C58.1801471,34.0226716 58.1801471,35.7996324 59.2830882,36.8719363 L67.5551471,45.1746324 C68.1066176,45.7261029 68.8112745,46.0018382 69.5159314,46.0018382 C70.2205882,46.0018382 70.9252451,45.7261029 71.4767157,45.2052696 L91.2071078,25.5667892 C92.310049,24.4944853 92.310049,22.7175245 91.2071078,21.6452206 C90.1041667,20.5422794 88.3578431,20.5422794 87.2855392,21.6145833 Z" id="Shape" fill="#FFFFFF"></path>
                        <path d="M112.83701,0.291053922 L37.622549,0.291053922 C31.6176471,0.291053922 26.7156863,5.19301471 26.7156863,11.1979167 L26.7156863,55.6219363 C26.7156863,61.6268382 31.6176471,66.528799 37.622549,66.528799 L41.0539216,66.528799 L41.0539216,80.1623775 C41.0539216,82.4908088 42.9534314,84.3903186 45.2818627,84.3903186 C46.5073529,84.3903186 47.6715686,83.8694853 48.4681373,82.9197304 L62.6531863,66.4981618 L112.806373,66.4981618 C118.811275,66.4981618 123.713235,61.596201 123.713235,55.591299 L123.713235,11.1672794 C123.743873,5.16237745 118.841912,0.291053922 112.83701,0.291053922 Z M118.198529,55.6219363 C118.198529,58.5631127 115.808824,60.9834559 112.83701,60.9834559 L61.3970588,60.9834559 C60.6004902,60.9834559 59.8345588,61.3204657 59.2830882,61.9332108 L46.5992647,76.6084559 L46.5992647,63.7408088 C46.5992647,62.2089461 45.3431373,60.9528186 43.8112745,60.9528186 L37.5919118,60.9528186 C34.6507353,60.9528186 32.2303922,58.5631127 32.2303922,55.591299 L32.2303922,11.1672794 C32.2303922,8.22610294 34.620098,5.8057598 37.5919118,5.8057598 L112.806373,5.8057598 C115.747549,5.8057598 118.167892,8.19546569 118.167892,11.1672794 L118.167892,55.6219363 L118.198529,55.6219363 Z" id="Shape" fill="#FFFFFF"></path>
                    </g>
                </g>
            </g>
        </g>
    </g>
</svg>