<?xml version="1.0" encoding="UTF-8"?>
<svg width="93px" height="77px" viewBox="0 0 93 77" version="1.1" xmlns="http://www.w3.org/2000/svg" xmlns:xlink="http://www.w3.org/1999/xlink">
    <!-- Generator: Sketch 41 (35326) - http://www.bohemiancoding.com/sketch -->
    <title>laptop-1</title>
    <desc>Created with Sketch.</desc>
    <defs></defs>
    <g id="Page-1" stroke="none" stroke-width="1" fill="none" fill-rule="evenodd">
        <g id="laptop-1">
            <g id="Layer_1">
                <g id="Group">
                    <path d="M27.0066176,39.2643382 L27.0066176,49.3800245 C27.0066176,50.2104167 28.0257353,50.5878676 28.5730392,49.9650735 L37.8205882,39.2643382 L69.507598,39.2643382 C72.2818627,39.2643382 74.5276961,37.0185049 74.5276961,34.2442402 L74.5276961,6.87904412 C74.5276961,4.10477941 72.2818627,1.85894608 69.507598,1.85894608 L23.1754902,1.85894608 C20.4012255,1.85894608 18.1553922,4.10477941 18.1553922,6.87904412 L18.1553922,34.2442402 C18.1553922,37.0185049 20.4012255,39.2643382 23.1754902,39.2643382 L27.0066176,39.2643382 L27.0066176,39.2643382 Z" id="Shape" fill="#FFFFFF"></path>
                    <path d="M16.1171569,65.8180147 L36.4428922,65.8180147 C36.9901961,67.4410539 38.5188725,68.611152 40.3117647,68.611152 L52.2958333,68.611152 C54.0887255,68.611152 55.617402,67.4410539 56.1647059,65.8180147 L76.5093137,65.8180147 C77.4529412,65.8180147 78.2267157,65.0442402 78.2267157,64.1006127 C78.2267157,63.1569853 77.4529412,62.3832108 76.5093137,62.3832108 L54.6737745,62.3832108 C53.7301471,62.3832108 52.9563725,63.1569853 52.9563725,64.1006127 L52.9563725,64.5158088 C52.9563725,64.8743873 52.6544118,65.176348 52.2958333,65.176348 L40.3117647,65.176348 C39.9531863,65.176348 39.6512255,64.8743873 39.6512255,64.5158088 L39.6512255,64.1006127 C39.6512255,63.1569853 38.877451,62.3832108 37.9338235,62.3832108 L16.1171569,62.3832108 C15.1735294,62.3832108 14.3997549,63.1569853 14.3997549,64.1006127 C14.4186275,65.0442402 15.1735294,65.8180147 16.1171569,65.8180147 Z" id="Shape" fill="#00AAFF"></path>
                    <path d="M90.9090686,62.3832108 L85.8134804,62.3832108 L85.8134804,18.976348 C85.8134804,18.0327206 85.0397059,17.2589461 84.0960784,17.2589461 C83.152451,17.2589461 82.3786765,18.0327206 82.3786765,18.976348 L82.3786765,64.1006127 C82.3786765,65.0442402 83.152451,65.8180147 84.0960784,65.8180147 L89.1727941,65.8180147 L89.1727941,68.5545343 C89.1727941,71.3099265 86.9269608,73.5368873 84.1904412,73.5368873 L8.41715686,73.5368873 C5.66176471,73.5368873 3.43480392,71.2910539 3.43480392,68.5545343 L3.43480392,65.8180147 L8.51151961,65.8180147 C9.45514706,65.8180147 10.2289216,65.0442402 10.2289216,64.1006127 L10.2289216,18.976348 C10.2289216,18.0327206 9.45514706,17.2589461 8.51151961,17.2589461 C7.56789216,17.2589461 6.79411765,18.0327206 6.79411765,18.976348 L6.79411765,62.3832108 L1.71740196,62.3832108 C0.77377451,62.3832108 0,63.1569853 0,64.1006127 L0,68.5545343 C0,73.1971814 3.7745098,76.9716912 8.41715686,76.9716912 L84.2093137,76.9716912 C88.8519608,76.9716912 92.6264706,73.1971814 92.6264706,68.5545343 L92.6264706,64.1006127 C92.607598,63.1569853 91.8526961,62.3832108 90.9090686,62.3832108 Z" id="Shape" fill="#00AAFF"></path>
                    <path d="M53.7678922,13.3145833 L42.8218137,24.2040441 L38.9340686,20.2974265 C38.2735294,19.6180147 37.1789216,19.6180147 36.5183824,20.2974265 C35.8389706,20.9579657 35.8389706,22.0525735 36.5183824,22.7131127 L41.6139706,27.8275735 C41.9536765,28.1672794 42.3877451,28.3371324 42.8218137,28.3371324 C43.2558824,28.3371324 43.689951,28.1672794 44.0296569,27.8464461 L56.1835784,15.7491422 C56.8629902,15.0886029 56.8629902,13.9939951 56.1835784,13.3334559 C55.5041667,12.6540441 54.4284314,12.6540441 53.7678922,13.3145833 Z" id="Shape" fill="#00AAFF"></path>
                    <path d="M69.507598,0.179289216 L23.1754902,0.179289216 C19.4764706,0.179289216 16.4568627,3.19889706 16.4568627,6.89791667 L16.4568627,34.2631127 C16.4568627,37.9621324 19.4764706,40.9817402 23.1754902,40.9817402 L25.2892157,40.9817402 L25.2892157,49.3800245 C25.2892157,50.8143382 26.4593137,51.9844363 27.8936275,51.9844363 C28.6485294,51.9844363 29.3656863,51.6636029 29.8563725,51.0785539 L38.5943627,40.9628676 L69.4887255,40.9628676 C73.1877451,40.9628676 76.2073529,37.9432598 76.2073529,34.2442402 L76.2073529,6.87904412 C76.2262255,3.18002451 73.2066176,0.179289216 69.507598,0.179289216 Z M72.8102941,34.2631127 C72.8102941,36.0748775 71.3382353,37.5658088 69.507598,37.5658088 L37.8205882,37.5658088 C37.329902,37.5658088 36.8580882,37.7734069 36.5183824,38.1508578 L28.7051471,47.1908088 L28.7051471,39.2643382 C28.7051471,38.3207108 27.9313725,37.5469363 26.9877451,37.5469363 L23.1566176,37.5469363 C21.3448529,37.5469363 19.8539216,36.0748775 19.8539216,34.2442402 L19.8539216,6.87904412 C19.8539216,5.06727941 21.3259804,3.57634804 23.1566176,3.57634804 L69.4887255,3.57634804 C71.3004902,3.57634804 72.7914216,5.04840686 72.7914216,6.87904412 L72.7914216,34.2631127 L72.8102941,34.2631127 L72.8102941,34.2631127 Z" id="Shape" fill="#00AAFF"></path>
                </g>
            </g>
        </g>
    </g>
</svg>