<?xml version="1.0" encoding="UTF-8"?>
<svg width="60px" height="77px" viewBox="0 0 60 77" version="1.1" xmlns="http://www.w3.org/2000/svg" xmlns:xlink="http://www.w3.org/1999/xlink">
    <!-- Generator: Sketch 41 (35326) - http://www.bohemiancoding.com/sketch -->
    <title>piggy-bank-1</title>
    <desc>Created with Sketch.</desc>
    <defs></defs>
    <g id="Page-1" stroke="none" stroke-width="1" fill="none" fill-rule="evenodd">
        <g id="piggy-bank-1">
            <g id="Layer_1">
                <g id="Group">
                    <ellipse id="XMLID_1732_" cx="12.8179018" cy="29.9969325" rx="11.2744376" ry="11.2744376"></ellipse>
                    <ellipse id="XMLID_1731_" fill="#1BB933" cx="27.4620736" cy="8.81799591" rx="7.38507157" ry="7.38507157"></ellipse>
                    <path d="M59.2698446,52.1993865 L59.2698446,45.3811861 C59.2698446,43.0664622 57.3960204,41.192638 55.0812965,41.192638 L54.0577791,41.192638 C52.6248548,37.4449898 50.1841595,34.0437628 46.9089039,31.2881391 C46.9089039,31.2723926 46.9089039,31.2723926 46.8931575,31.2566462 C46.4050184,29.5402863 46.7671861,27.697955 47.9639141,25.792638 C48.6095174,24.7691207 48.593771,23.509407 47.9481677,22.501636 C47.3025644,21.493865 46.1688221,20.9584867 44.9720941,21.1002045 C40.4213783,21.6670757 37.7129939,23.7456033 36.1383517,25.6666667 C34.6266953,25.2415133 33.0520532,24.9265849 31.477411,24.7376278 C30.69009,24.6431493 29.981501,25.2100204 29.8870225,25.9815951 C29.792544,26.7689162 30.3594151,27.4775051 31.1309898,27.5719836 C32.8788425,27.7766871 34.5952025,28.1546012 36.2485767,28.6742331 C36.8469407,28.8631902 37.5082904,28.6427403 37.8704581,28.107362 C38.9569611,26.4854806 41.1457137,24.4384458 45.3185153,23.9345603 C45.3500082,23.9345603 45.4602331,23.9188139 45.5389652,24.0290389 C45.6176973,24.1550102 45.5547117,24.2337423 45.5389652,24.2652352 C43.9170838,26.8476483 43.4446912,29.5402863 44.1532802,32.0282209 C44.1532802,32.0439673 44.1690266,32.0597137 44.1690266,32.0912065 C44.184773,32.5006135 44.3737301,32.894274 44.7044049,33.1619632 C48.0426462,35.8546012 50.4675951,39.2873211 51.695816,43.0664622 C51.884773,43.6490798 52.4358978,44.0427403 53.0500082,44.0427403 L53.081501,44.0427403 L55.0812965,44.0427403 C55.8213783,44.0427403 56.4197423,44.6411043 56.4197423,45.3811861 L56.4197423,52.1993865 C56.4197423,52.9394683 55.8213783,53.5378323 55.0812965,53.5378323 L53.1759796,53.5378323 C52.5461227,53.5378323 51.994998,53.9472393 51.8060409,54.5456033 C50.9084949,57.4586912 47.0191288,62.3558282 45.5074724,64.1194274 L45.1610511,64.4186094 C41.9645276,67.3159509 41.6338528,70.7329243 41.6023599,71.7092025 L41.6023599,71.7406953 L41.6023599,73.9924335 C41.6023599,74.0239264 41.5708671,74.0554192 41.5393742,74.0554192 L32.4221963,74.0554192 C32.3907035,74.0554192 32.3592106,74.0239264 32.3592106,73.9924335 L32.3592106,71.8351738 C32.3592106,71.4257669 32.186,71.0478528 31.886818,70.7801636 C31.587636,70.5124744 31.178229,70.3865031 30.7845685,70.4179959 C28.485591,70.6541922 26.1551207,70.6226994 23.9033824,70.3235174 C23.4939755,70.2762781 23.0845685,70.3865031 22.7696401,70.6699387 C22.4547117,70.9376278 22.281501,71.3312883 22.281501,71.7406953 L22.281501,73.9924335 C22.281501,74.0239264 22.2500082,74.0554192 22.2185153,74.0554192 L13.1013374,74.0554192 C13.0698446,74.0554192 13.0383517,74.0239264 13.0383517,73.9924335 L13.0383517,73.299591 L13.0383517,73.2366053 C12.9596196,71.5989775 12.4399877,67.4419223 9.21197137,64.1194274 C7.65307566,62.5132924 6.25164417,60.403272 5.07066258,57.8366053 C5.05491616,57.8208589 5.05491616,57.8051125 5.03916973,57.7893661 C4.33058078,56.4194274 3.79520245,54.9707566 3.43303476,53.5063395 C3.43303476,53.490593 3.43303476,53.4748466 3.41728834,53.4748466 L3.40154192,53.4276074 C3.40154192,53.4118609 3.3857955,53.3961145 3.3857955,53.3803681 C2.81892434,51.4750511 2.88191002,49.0815951 2.88191002,49.0501022 L2.88191002,49.002863 C2.88191002,47.9478528 2.97638855,46.8928425 3.14959918,45.8693252 C3.27557055,45.0977505 2.75593865,44.3576687 1.98436401,44.2316973 C1.21278937,44.105726 0.472707566,44.6253579 0.346736196,45.3969325 C0.14203272,46.5779141 0.0475541922,47.7746421 0.0475541922,48.9871166 C0.0475541922,49.2862986 0.000314928425,51.9159509 0.677411043,54.1834356 L0.693157464,54.2149284 C1.10256442,55.8997955 1.71667485,57.5374233 2.51974233,59.096319 C3.84244172,61.9464213 5.41708384,64.3241309 7.19642945,66.1507157 C9.73160327,68.7646217 10.1567566,72.0556237 10.2197423,73.3783231 L10.2197423,74.0239264 L10.2197423,74.1813906 L10.2197423,74.2286299 C10.3299673,75.7560327 11.6054274,76.9527607 13.1328303,76.9527607 L22.2500082,76.9527607 C23.8561431,76.9527607 25.1788425,75.6458078 25.1788425,74.0239264 L25.1788425,73.3625767 C26.6275133,73.4885481 28.0919305,73.5042945 29.5563476,73.4255624 L29.5563476,74.0239264 C29.5563476,75.6300613 30.8633006,76.9527607 32.485182,76.9527607 L41.6023599,76.9527607 C43.2084949,76.9527607 44.5311943,75.6458078 44.5311943,74.0239264 L44.5311943,71.7879346 C44.5469407,71.2525562 44.7516442,68.7331288 47.1293538,66.5758691 L47.5387607,66.2294479 C47.586,66.1822086 47.6332393,66.1349693 47.6804785,66.0877301 C47.9009284,65.8357873 52.5303763,60.4977505 54.2467362,56.4194274 L55.1600286,56.4194274 C57.3960204,56.3879346 59.2698446,54.498364 59.2698446,52.1993865 Z" id="Shape" fill="#1BB933"></path>
                    <path d="M0.126286299,29.9969325 C0.126286299,37.00409 5.8264908,42.6885481 12.8179018,42.6885481 C19.8093129,42.6885481 25.5095174,36.9883436 25.5095174,29.9969325 C25.5095174,23.0055215 19.8093129,17.305317 12.8179018,17.305317 C5.8264908,17.305317 0.126286299,23.0055215 0.126286299,29.9969325 Z M22.6594151,29.9969325 C22.6594151,35.4294479 18.2504172,39.8384458 12.8179018,39.8384458 C7.3853865,39.8384458 2.97638855,35.4294479 2.97638855,29.9969325 C2.97638855,24.5644172 7.3853865,20.1554192 12.8179018,20.1554192 C18.2504172,20.1554192 22.6594151,24.5801636 22.6594151,29.9969325 Z" id="Shape" fill="#1BB933"></path>
                    <path d="M18.6598241,8.81799591 C18.6598241,13.6836401 22.6121759,17.6359918 27.47782,17.6359918 C32.3434642,17.6359918 36.295816,13.6836401 36.295816,8.81799591 C36.295816,3.95235174 32.3434642,0 27.47782,0 C22.6121759,0 18.6598241,3.95235174 18.6598241,8.81799591 Z M33.4299673,8.81799591 C33.4299673,12.108998 30.7530757,14.7858896 27.4620736,14.7858896 C24.1710716,14.7858896 21.49418,12.108998 21.49418,8.81799591 C21.49418,5.52699387 24.1710716,2.85010225 27.4620736,2.85010225 C30.7530757,2.85010225 33.4299673,5.52699387 33.4299673,8.81799591 Z" id="Shape" fill="#1BB933"></path>
                </g>
            </g>
        </g>
    </g>
</svg>