<?xml version="1.0" encoding="UTF-8"?>
<svg width="200px" height="200px" viewBox="0 0 200 200" version="1.1" xmlns="http://www.w3.org/2000/svg" xmlns:xlink="http://www.w3.org/1999/xlink">
    <!-- Generator: Sketch 48.2 (47327) - http://www.bohemiancoding.com/sketch -->
    <title>make-deal-icon2</title>
    <desc>Created with Sketch.</desc>
    <defs></defs>
    <g id="Page-1" stroke="none" stroke-width="1" fill="none" fill-rule="evenodd">
        <g id="make-deal-icon2" fill-rule="nonzero">
            <circle id="Oval" fill="#00AAFF" cx="100" cy="100" r="100"></circle>
            <g id="handshake" transform="translate(24.000000, 50.000000)">
                <g id="Layer_1">
                    <g id="Group">
                        <rect id="XMLID_60_" fill="#FFFFFF" transform="translate(20.737406, 29.990807) rotate(-71.070400) translate(-20.737406, -29.990807) " x="-4.4475217" y="19.6962815" width="50.3698547" height="20.5890515"></rect>
                        <path d="M52.7931677,6.86242236 L50.8987578,7.79409938 C48.5385093,8.9431677 45.7745342,9.0984472 43.321118,8.22888199 L40.1534161,7.11086957 C39.9670807,6.98664596 39.7807453,6.89347826 39.5944099,6.83136646 L20.0913043,0.154347826 C18.631677,-0.342546584 17.0167702,0.433850932 16.5198758,1.89347826 L0.153416149,49.5642857 C-0.0950310559,50.2785714 -0.0329192547,51.0549689 0.277639752,51.7071429 C0.588198758,52.3593168 1.17826087,52.8872671 1.89254658,53.1357143 L21.3645963,59.8127329 C21.6751553,59.9059006 21.9857143,59.9680124 22.2652174,59.9680124 C23.4453416,59.9680124 24.5322981,59.2226708 24.9360248,58.0736025 L40.3708075,13.1667702 L41.4267081,13.539441 C45.3086957,14.9059006 49.6565217,14.6574534 53.3832298,12.8562112 L55.2776398,11.9245342 C57.6068323,10.7754658 60.3397516,10.6201863 62.7931677,11.4586957 L98.6006211,23.7878882 C98.2279503,25.2785714 97.4826087,27.0487578 96.1161491,28.0114907 C94.5944099,29.0673913 92.3273292,29.0673913 89.3459627,28.0425466 L73.3832298,22.5767081 C72.6378882,22.3282609 71.8304348,22.3903727 71.147205,22.7630435 C70.4639752,23.1357143 69.9670807,23.7878882 69.7496894,24.5332298 C69.7186335,24.6263975 67.5136646,32.8872671 60.4639752,36.676087 C56.0229814,39.0673913 50.4950311,39.160559 44.0043478,36.9555901 C42.5447205,36.4586957 40.9298137,37.2350932 40.4329193,38.6947205 C39.9360248,40.1543478 40.7124224,41.7692547 42.1720497,42.2661491 C45.8987578,43.539441 49.4080745,44.1916149 52.6689441,44.1916149 C56.457764,44.1916149 59.9360248,43.3531056 63.1037267,41.6450311 C69.4080745,38.2599379 72.6689441,32.3282609 74.1596273,28.7878882 L87.4826087,33.3531056 C92.2341615,34.9990683 96.2093168,34.7506211 99.2838509,32.607764 C104.221739,29.1916149 104.470186,22.2661491 104.501242,21.9555901 C104.532298,20.713354 103.755901,19.6263975 102.606832,19.2226708 L64.5944099,6.11708075 C60.7745342,4.81273292 56.457764,5.09223602 52.7931677,6.86242236 Z M20.5571429,53.5704969 L6.39565217,48.7257764 L20.8987578,6.39658385 L35.0602484,11.2413043 L20.5571429,53.5704969 Z" id="Shape" fill="#FFFFFF"></path>
                        <rect id="XMLID_142_" transform="translate(129.008000, 30.292339) rotate(-116.073056) translate(-129.008000, -30.292339) " x="103.824491" y="19.9986339" width="50.3670172" height="20.5874111"></rect>
                        <path d="M127.389441,56.7692547 L120.712422,62.918323 C114.656522,68.4773292 107.824224,73.1667702 100.432919,76.7692547 L64.9981366,94.0984472 C63.4453416,94.8748447 61.5509317,94.2226708 60.7745342,92.6388199 C59.9981366,91.0860248 60.6503106,89.1916149 62.2341615,88.4152174 L62.6689441,88.1978261 L82.0478261,78.7257764 C83.4453416,78.0425466 84.0354037,76.365528 83.3521739,74.9680124 C82.6689441,73.5704969 80.9919255,72.9804348 79.5944099,73.6636646 L60.215528,83.1357143 L50.4639752,87.918323 C48.9111801,88.6947205 47.0167702,88.0425466 46.2403727,86.4586957 C45.8677019,85.713354 45.8055901,84.8437888 46.0850932,84.0673913 C46.3645963,83.2599379 46.9236025,82.6388199 47.6689441,82.2661491 L55.0291925,78.6636646 L76.0850932,68.3531056 C77.4826087,67.6698758 78.0726708,65.9928571 77.389441,64.5953416 C76.7062112,63.1978261 75.0291925,62.607764 73.631677,63.2909938 L52.5447205,73.6326087 L51.7372671,74.0363354 L41.6751553,78.9742236 C40.9298137,79.3468944 40.0602484,79.4090062 39.2838509,79.1295031 C38.4763975,78.85 37.8552795,78.2909938 37.4826087,77.5456522 C36.7062112,75.9928571 37.3583851,74.0984472 38.942236,73.3220497 L42.4204969,71.6139752 L49.5322981,68.1357143 L51.5198758,67.1729814 L67.8552795,59.160559 C69.252795,58.4773292 69.8428571,56.8003106 69.1596273,55.402795 C68.4763975,54.0052795 66.7993789,53.4152174 65.4018634,54.0984472 L47.7,62.7630435 L39.9670807,66.5518634 C38.4142857,67.297205 36.5198758,66.676087 35.7434783,65.092236 C35.3708075,64.3468944 35.3086957,63.4773292 35.5881988,62.7009317 C35.8677019,61.8934783 36.4267081,61.2723602 37.1720497,60.8996894 L50.6813665,54.2847826 C52.078882,53.6015528 52.6689441,51.9245342 51.9857143,50.5270186 C51.3024845,49.1295031 49.6254658,48.539441 48.2279503,49.2226708 L34.7186335,55.8375776 C32.6068323,56.8624224 31.0229814,58.6636646 30.2776398,60.8686335 C29.5322981,63.0736025 29.6565217,65.4649068 30.6813665,67.5767081 C31.3335404,68.8810559 32.2652174,69.9680124 33.3832298,70.7754658 C31.4267081,73.3531056 30.9298137,76.8934783 32.4515528,79.9990683 C33.4763975,82.1108696 35.2776398,83.6947205 37.4826087,84.4400621 C38.4142857,84.7506211 39.3459627,84.9059006 40.2776398,84.9059006 C40.2465839,86.3034161 40.526087,87.7009317 41.1782609,88.9742236 C42.7,92.0798137 45.836646,93.8810559 49.0664596,93.8810559 C50.3708075,93.8810559 51.6751553,93.6015528 52.9173913,92.9804348 L54.9049689,92.0177019 C54.9981366,93.0736025 55.2776398,94.0984472 55.7434783,95.092236 C57.2652174,98.1978261 60.4018634,99.9990683 63.631677,99.9990683 C64.9360248,99.9990683 66.2403727,99.7195652 67.4826087,99.0984472 L102.917391,81.7692547 C110.80559,77.918323 118.072671,72.9493789 124.532298,67.0177019 L132.451553,59.7195652 L150.588199,50.8375776 C151.985714,50.1543478 152.575776,48.4773292 151.892547,47.0798137 L129.718634,1.89347826 C129.377019,1.21024845 128.818012,0.713354037 128.103727,0.464906832 C127.389441,0.216459627 126.613043,0.278571429 125.96087,0.589130435 L107.451553,9.62639752 C106.054037,10.3096273 105.463975,11.986646 106.147205,13.3841615 L127.389441,56.7692547 Z M125.898758,6.89347826 L145.557143,47.1108696 L132.109938,53.6947205 L112.451553,13.4773292 L125.898758,6.89347826 Z" id="Shape" fill="#FFFFFF"></path>
                    </g>
                </g>
            </g>
        </g>
    </g>
</svg>