<?xml version="1.0" encoding="UTF-8"?>
<svg width="200px" height="200px" viewBox="0 0 200 200" version="1.1" xmlns="http://www.w3.org/2000/svg" xmlns:xlink="http://www.w3.org/1999/xlink">
    <!-- Generator: Sketch 48.2 (47327) - http://www.bohemiancoding.com/sketch -->
    <title>make-deal-icon2-green</title>
    <desc>Created with Sketch.</desc>
    <defs></defs>
    <g id="Page-1" stroke="none" stroke-width="1" fill="none" fill-rule="evenodd">
        <g id="make-deal-icon2-green">
            <circle id="Oval" fill="#1BB933" fill-rule="nonzero" cx="100" cy="100" r="100"></circle>
            <g id="piggy-bank-1" transform="translate(51.500000, 37.500000)">
                <g id="Layer_1">
                    <g id="Group">
                        <circle id="XMLID_1732_" cx="20.8082822" cy="48.696319" r="18.3026585"></circle>
                        <circle id="XMLID_1731_" fill-rule="nonzero" cx="44.5812883" cy="14.3149284" r="11.9887526"></circle>
                        <path d="M96.2172802,84.7392638 L96.2172802,73.6707566 C96.2172802,69.9130879 93.1753579,66.8711656 89.4176892,66.8711656 L87.756135,66.8711656 C85.4299591,60.7873211 81.4677914,55.2658487 76.150818,50.7924335 C76.150818,50.7668712 76.150818,50.7668712 76.1252556,50.7413088 C75.3328221,47.9550102 75.9207566,44.9642127 77.8634969,41.8711656 C78.9115542,40.2096115 78.8859918,38.1646217 77.8379346,36.5286299 C76.7898773,34.892638 74.9493865,34.0235174 73.0066462,34.2535787 C65.6191207,35.1738241 61.2223926,38.5480573 58.6661554,41.6666667 C56.2121677,40.9764826 53.6559305,40.4652352 51.0996933,40.1584867 C49.8215746,40.0051125 48.6712679,40.9253579 48.5178937,42.1779141 C48.3645194,43.4560327 49.2847648,44.6063395 50.5373211,44.7597137 C53.3747444,45.0920245 56.1610429,45.7055215 58.845092,46.5490798 C59.8164622,46.8558282 60.8900818,46.497955 61.4780164,45.6288344 C63.24182,42.99591 66.7949898,39.6728016 73.5690184,38.8548057 C73.6201431,38.8548057 73.7990798,38.8292434 73.9268916,39.00818 C74.0547035,39.2126789 73.952454,39.3404908 73.9268916,39.3916155 C71.2939673,43.5838446 70.5270961,47.9550102 71.6774029,51.993865 C71.6774029,52.0194274 71.7029652,52.0449898 71.7029652,52.0961145 C71.7285276,52.7607362 72.0352761,53.3997955 72.5720859,53.8343558 C77.9913088,58.2055215 81.9279141,63.7781186 83.9217791,69.9130879 C84.2285276,70.8588957 85.1232106,71.497955 86.1201431,71.497955 L86.1712679,71.497955 L89.4176892,71.497955 C90.6191207,71.497955 91.5904908,72.4693252 91.5904908,73.6707566 L91.5904908,84.7392638 C91.5904908,85.9406953 90.6191207,86.9120654 89.4176892,86.9120654 L86.3246421,86.9120654 C85.3021472,86.9120654 84.4074642,87.5766871 84.1007157,88.5480573 C82.6436605,93.2770961 76.3297546,101.226994 73.8757669,104.08998 L73.3133947,104.575665 C68.1242331,109.279141 67.5874233,114.826176 67.5362986,116.411043 L67.5362986,116.462168 L67.5362986,120.117587 C67.5362986,120.168712 67.4851738,120.219836 67.4340491,120.219836 L52.6334356,120.219836 C52.5823108,120.219836 52.5311861,120.168712 52.5311861,120.117587 L52.5311861,116.615542 C52.5311861,115.95092 52.25,115.337423 51.7643149,114.902863 C51.2786299,114.468303 50.6140082,114.263804 49.9749489,114.314928 C46.2428425,114.698364 42.4596115,114.647239 38.8041922,114.161554 C38.1395706,114.084867 37.4749489,114.263804 36.9637014,114.723926 C36.452454,115.158487 36.1712679,115.797546 36.1712679,116.462168 L36.1712679,120.117587 C36.1712679,120.168712 36.1201431,120.219836 36.0690184,120.219836 L21.2684049,120.219836 C21.2172802,120.219836 21.1661554,120.168712 21.1661554,120.117587 L21.1661554,118.992843 L21.1661554,118.890593 C21.0383436,116.232106 20.1947853,109.48364 14.954499,104.08998 C12.4238241,101.482618 10.148773,98.0572597 8.23159509,93.890593 C8.20603272,93.8650307 8.20603272,93.8394683 8.18047035,93.8139059 C7.0301636,91.5899796 6.16104294,89.2382413 5.57310838,86.8609407 C5.57310838,86.8353783 5.57310838,86.809816 5.54754601,86.809816 L5.52198364,86.7331288 C5.52198364,86.7075665 5.49642127,86.6820041 5.49642127,86.6564417 C4.57617587,83.5633947 4.67842536,79.6779141 4.67842536,79.6267894 L4.67842536,79.5501022 C4.67842536,77.8374233 4.83179959,76.1247444 5.11298569,74.4631902 C5.31748466,73.2106339 4.47392638,72.0092025 3.22137014,71.8047035 C1.96881391,71.6002045 0.767382413,72.4437628 0.562883436,73.696319 C0.230572597,75.6134969 0.077198364,77.5562372 0.077198364,79.5245399 C0.077198364,80.0102249 0.000511247444,84.2791411 1.09969325,87.9601227 L1.12525562,88.0112474 C1.7898773,90.7464213 2.78680982,93.404908 4.0904908,95.9355828 C6.23773006,100.562372 8.79396728,104.42229 11.6825153,107.387526 C15.7980573,111.630879 16.4882413,116.973415 16.5904908,119.120654 L16.5904908,120.168712 L16.5904908,120.424335 L16.5904908,120.501022 C16.7694274,122.980573 18.8399796,124.923313 21.3195297,124.923313 L36.1201431,124.923313 C38.7275051,124.923313 40.8747444,122.801636 40.8747444,120.168712 L40.8747444,119.095092 C43.2264826,119.299591 45.6037832,119.325153 47.9810838,119.197342 L47.9810838,120.168712 C47.9810838,122.776074 50.1027607,124.923313 52.7356851,124.923313 L67.5362986,124.923313 C70.1436605,124.923313 72.2908998,122.801636 72.2908998,120.168712 L72.2908998,116.538855 C72.3164622,115.669734 72.648773,111.579755 76.5086912,108.07771 L77.1733129,107.515337 C77.25,107.43865 77.3266871,107.361963 77.4033742,107.285276 C77.7612474,106.876278 85.2765849,98.2106339 88.0628834,91.5899796 L89.545501,91.5899796 C93.1753579,91.5388548 96.2172802,88.4713701 96.2172802,84.7392638 Z" id="Shape" fill="#FFFFFF" fill-rule="nonzero"></path>
                        <path d="M0.205010225,48.696319 C0.205010225,60.0715746 9.45858896,69.299591 20.8082822,69.299591 C32.1579755,69.299591 41.4115542,60.0460123 41.4115542,48.696319 C41.4115542,37.3466258 32.1579755,28.093047 20.8082822,28.093047 C9.45858896,28.093047 0.205010225,37.3466258 0.205010225,48.696319 Z M36.7847648,48.696319 C36.7847648,57.5153374 29.6273006,64.6728016 20.8082822,64.6728016 C11.9892638,64.6728016 4.83179959,57.5153374 4.83179959,48.696319 C4.83179959,39.8773006 11.9892638,32.7198364 20.8082822,32.7198364 C29.6273006,32.7198364 36.7847648,39.902863 36.7847648,48.696319 Z" id="Shape" fill="#FFFFFF" fill-rule="nonzero"></path>
                        <path d="M30.2919223,14.3149284 C30.2919223,22.2137014 36.7080777,28.6298569 44.6068507,28.6298569 C52.5056237,28.6298569 58.9217791,22.2137014 58.9217791,14.3149284 C58.9217791,6.41615542 52.5056237,0 44.6068507,0 C36.7080777,0 30.2919223,6.41615542 30.2919223,14.3149284 Z M54.2694274,14.3149284 C54.2694274,19.6574642 49.9238241,24.0030675 44.5812883,24.0030675 C39.2387526,24.0030675 34.8931493,19.6574642 34.8931493,14.3149284 C34.8931493,8.97239264 39.2387526,4.62678937 44.5812883,4.62678937 C49.9238241,4.62678937 54.2694274,8.97239264 54.2694274,14.3149284 Z" id="Shape" fill="#FFFFFF" fill-rule="nonzero"></path>
                    </g>
                </g>
            </g>
        </g>
    </g>
</svg>