<?xml version="1.0" encoding="UTF-8"?>
<svg width="118px" height="77px" viewBox="0 0 118 77" version="1.1" xmlns="http://www.w3.org/2000/svg" xmlns:xlink="http://www.w3.org/1999/xlink">
    <!-- Generator: Sketch 41 (35326) - http://www.bohemiancoding.com/sketch -->
    <title>handshake</title>
    <desc>Created with Sketch.</desc>
    <defs></defs>
    <g id="Page-1" stroke="none" stroke-width="1" fill="none" fill-rule="evenodd">
        <g id="handshake">
            <g id="Layer_1">
                <g id="Group">
                    <rect id="XMLID_60_" transform="translate(15.967802, 23.092921) rotate(-71.070400) translate(-15.967802, -23.092921) " x="-3.4245917" y="15.1661364" width="38.7847881" height="15.8535697"></rect>
                    <path d="M40.6507391,5.28406522 L39.1920435,6.00145652 C37.3746522,6.88623913 35.2463913,7.00580435 33.3572609,6.33623913 L30.9181304,5.47536957 C30.7746522,5.37971739 30.6311739,5.30797826 30.4876957,5.26015217 L15.4703043,0.118847826 C14.3463913,-0.26376087 13.102913,0.334065217 12.7203043,1.45797826 L0.118130435,38.1645 C-0.073173913,38.7145 -0.0253478261,39.3123261 0.213782609,39.8145 C0.452913043,40.3166739 0.90726087,40.7231957 1.45726087,40.9145 L16.4507391,46.0558043 C16.6898696,46.1275435 16.929,46.1753696 17.1442174,46.1753696 C18.052913,46.1753696 18.8898696,45.6014565 19.2007391,44.7166739 L31.0855217,10.138413 L31.8985652,10.4253696 C34.8876957,11.4775435 38.2355217,11.2862391 41.105087,9.89928261 L42.5637826,9.1818913 C44.3572609,8.2971087 46.4616087,8.17754348 48.3507391,8.82319565 L75.9224783,18.3166739 C75.6355217,19.4645 75.0616087,20.8275435 74.0094348,21.5688478 C72.8376957,22.3818913 71.0920435,22.3818913 68.7963913,21.5927609 L56.505087,17.3840652 C55.9311739,17.1927609 55.3094348,17.240587 54.7833478,17.5275435 C54.2572609,17.8145 53.8746522,18.3166739 53.7072609,18.890587 C53.6833478,18.9623261 51.9855217,25.3231957 46.5572609,28.240587 C43.1376957,30.0818913 38.8811739,30.1536304 33.8833478,28.4558043 C32.7594348,28.0731957 31.5159565,28.6710217 31.1333478,29.7949348 C30.7507391,30.9188478 31.3485652,32.1623261 32.4724783,32.5449348 C35.3420435,33.5253696 38.0442174,34.0275435 40.555087,34.0275435 C43.4724783,34.0275435 46.1507391,33.3818913 48.5898696,32.0666739 C53.4442174,29.4601522 55.955087,24.8927609 57.102913,22.1666739 L67.3616087,25.6818913 C71.0203043,26.9492826 74.0811739,26.7579783 76.4485652,25.1079783 C80.2507391,22.4775435 80.4420435,17.1449348 80.4659565,16.9058043 C80.4898696,15.9492826 79.8920435,15.1123261 79.0072609,14.8014565 L49.7376957,4.71015217 C46.7963913,3.70580435 43.4724783,3.92102174 40.6507391,5.28406522 Z M15.829,41.2492826 L4.92465217,37.5188478 L16.0920435,4.92536957 L26.9963913,8.65580435 L15.829,41.2492826 Z" id="Shape" fill="#00AAFF"></path>
                    <rect id="XMLID_142_" fill="#00AAFF" transform="translate(99.336160, 23.325101) rotate(243.926944) translate(-99.336160, -23.325101) " x="79.9448582" y="15.3989476" width="38.7826032" height="15.8523066"></rect>
                    <path d="M98.0898696,43.7123261 L92.9485652,48.4471087 C88.2855217,52.7275435 83.0246522,56.338413 77.3333478,59.1123261 L50.0485652,72.4558043 C48.852913,73.0536304 47.3942174,72.5514565 46.7963913,71.3318913 C46.1985652,70.1362391 46.7007391,68.6775435 47.9203043,68.0797174 L48.255087,67.9123261 L48.255087,67.9123261 L63.1768261,60.6188478 C64.252913,60.0927609 64.7072609,58.8014565 64.1811739,57.7253696 C63.655087,56.6492826 62.3637826,56.1949348 61.2876957,56.7210217 L46.3659565,64.0145 L46.3659565,64.0145 L38.8572609,67.6971087 C37.6616087,68.2949348 36.202913,67.7927609 35.605087,66.5731957 C35.3181304,65.9992826 35.2703043,65.3297174 35.4855217,64.7318913 C35.7007391,64.1101522 36.1311739,63.6318913 36.705087,63.3449348 L42.3724783,60.5710217 L42.3724783,60.5710217 L58.5855217,52.6318913 C59.6616087,52.1058043 60.1159565,50.8145 59.5898696,49.738413 C59.0637826,48.6623261 57.7724783,48.2079783 56.6963913,48.7340652 L40.4594348,56.6971087 L40.4594348,56.6971087 L39.8376957,57.0079783 L32.0898696,60.8101522 C31.5159565,61.0971087 30.8463913,61.1449348 30.2485652,60.9297174 C29.6268261,60.7145 29.1485652,60.2840652 28.8616087,59.7101522 C28.2637826,58.5145 28.7659565,57.0558043 29.9855217,56.4579783 L32.6637826,55.1427609 L32.6637826,55.1427609 L38.1398696,52.4645 L39.6703043,51.7231957 L39.6703043,51.7231957 L52.2485652,45.5536304 C53.3246522,45.0275435 53.779,43.7362391 53.252913,42.6601522 C52.7268261,41.5840652 51.4355217,41.1297174 50.3594348,41.6558043 L36.729,48.3275435 L30.7746522,51.2449348 C29.579,51.8188478 28.1203043,51.340587 27.5224783,50.1210217 C27.2355217,49.5471087 27.1876957,48.8775435 27.402913,48.2797174 C27.6181304,47.6579783 28.0485652,47.1797174 28.6224783,46.8927609 L39.0246522,41.7992826 C40.1007391,41.2731957 40.555087,39.9818913 40.029,38.9058043 C39.502913,37.8297174 38.2116087,37.3753696 37.1355217,37.9014565 L26.7333478,42.9949348 C25.1072609,43.7840652 23.8876957,45.1710217 23.3137826,46.8688478 C22.7398696,48.5666739 22.8355217,50.4079783 23.6246522,52.0340652 C24.1268261,53.038413 24.8442174,53.8753696 25.705087,54.4971087 C24.1985652,56.4818913 23.8159565,59.2079783 24.9876957,61.5992826 C25.7768261,63.2253696 27.1637826,64.4449348 28.8616087,65.0188478 C29.579,65.2579783 30.2963913,65.3775435 31.0137826,65.3775435 C30.9898696,66.4536304 31.205087,67.5297174 31.7072609,68.5101522 C32.879,70.9014565 35.2942174,72.288413 37.7811739,72.288413 C38.7855217,72.288413 39.7898696,72.0731957 40.7463913,71.5949348 L42.2768261,70.8536304 C42.3485652,71.6666739 42.5637826,72.4558043 42.9224783,73.2210217 C44.0942174,75.6123261 46.5094348,76.9992826 48.9963913,76.9992826 C50.0007391,76.9992826 51.005087,76.7840652 51.9616087,76.3058043 L79.2463913,62.9623261 C85.3203043,59.9971087 90.9159565,56.1710217 95.8898696,51.6036304 L101.987696,45.9840652 L115.952913,39.1449348 C117.029,38.6188478 117.483348,37.3275435 116.957261,36.2514565 L99.8833478,1.45797826 C99.6203043,0.931891304 99.1898696,0.549282609 98.6398696,0.357978261 C98.0898696,0.166673913 97.4920435,0.2145 96.9898696,0.453630435 L82.7376957,7.41232609 C81.6616087,7.93841304 81.2072609,9.22971739 81.7333478,10.3058043 L98.0898696,43.7123261 Z M96.9420435,5.30797826 L112.079,36.2753696 L101.724652,41.3449348 L86.5876957,10.3775435 L96.9420435,5.30797826 Z" id="Shape" fill="#00AAFF"></path>
                </g>
            </g>
        </g>
    </g>
</svg>