<?xml version="1.0" encoding="UTF-8"?>
<svg width="67px" height="80px" viewBox="0 0 67 80" version="1.1" xmlns="http://www.w3.org/2000/svg" xmlns:xlink="http://www.w3.org/1999/xlink">
    <!-- Generator: Sketch 41 (35326) - http://www.bohemiancoding.com/sketch -->
    <title>invoice</title>
    <desc>Created with Sketch.</desc>
    <defs></defs>
    <g id="Page-1" stroke="none" stroke-width="1" fill="none" fill-rule="evenodd">
        <g id="invoice" transform="translate(0.163265, 0.000000)">
            <g id="Layer_1">
                <g id="Group">
                    <g id="XMLID_2160_" transform="translate(17.341513, 19.631902)" fill="#A7A9AC">
                        <path d="M35.7791411,55.8200409 L38.8220859,52.7770961 L41.8650307,55.8200409 L44.9079755,58.8629857 L47.9509202,55.8200409 L47.9509202,5.28425358 C47.9509202,2.37218814 45.595092,2.32488421e-15 42.6666667,2.32488421e-15 L0.114519427,2.32488421e-15 C3.02658487,2.32488421e-15 5.39877301,2.35582822 5.39877301,5.28425358 L5.39877301,55.803681 L8.44171779,58.8466258 L11.4846626,55.803681 L14.5276074,52.7607362 L17.5705521,55.803681 L20.6134969,58.8466258 L23.6564417,55.803681 L26.6993865,52.7607362 L29.7423313,55.803681 L32.7852761,58.8466258 L35.7791411,55.8200409 Z" id="XMLID_2161_"></path>
                    </g>
                    <path d="M30.2985685,32.5562372 L57.9795501,32.5562372 C58.797546,32.5562372 59.4683027,31.8854806 59.4683027,31.0674847 C59.4683027,30.2494888 58.797546,29.5787321 57.9795501,29.5787321 L30.2985685,29.5787321 C29.4805726,29.5787321 28.809816,30.2494888 28.809816,31.0674847 C28.809816,31.8854806 29.4805726,32.5562372 30.2985685,32.5562372 Z" id="Shape" fill="#000000"></path>
                    <path d="M30.2985685,40.4580777 L50.404908,40.4580777 C51.2229039,40.4580777 51.8936605,39.7873211 51.8936605,38.9693252 C51.8936605,38.1513292 51.2229039,37.4805726 50.404908,37.4805726 L30.2985685,37.4805726 C29.4805726,37.4805726 28.809816,38.1513292 28.809816,38.9693252 C28.809816,39.803681 29.4805726,40.4580777 30.2985685,40.4580777 Z" id="Shape" fill="#000000"></path>
                    <path d="M30.2985685,47.7055215 L57.9795501,47.7055215 C58.797546,47.7055215 59.4683027,47.0347648 59.4683027,46.2167689 C59.4683027,45.398773 58.797546,44.7280164 57.9795501,44.7280164 L30.2985685,44.7280164 C29.4805726,44.7280164 28.809816,45.398773 28.809816,46.2167689 C28.809816,47.0511247 29.4805726,47.7055215 30.2985685,47.7055215 Z" id="Shape" fill="#000000"></path>
                    <path d="M32.9325153,52.9897751 L30.2985685,52.9897751 C29.4805726,52.9897751 28.809816,53.6605317 28.809816,54.4785276 C28.809816,55.2965235 29.4805726,55.9672802 30.2985685,55.9672802 L32.9325153,55.9672802 C33.7505112,55.9672802 34.4212679,55.2965235 34.4212679,54.4785276 C34.4212679,53.6605317 33.7505112,52.9897751 32.9325153,52.9897751 Z" id="Shape" fill="#000000"></path>
                    <path d="M32.9325153,60.2372188 L30.2985685,60.2372188 C29.4805726,60.2372188 28.809816,60.9079755 28.809816,61.7259714 C28.809816,62.5439673 29.4805726,63.2147239 30.2985685,63.2147239 L32.9325153,63.2147239 C33.7505112,63.2147239 34.4212679,62.5439673 34.4212679,61.7259714 C34.404908,60.8916155 33.7505112,60.2372188 32.9325153,60.2372188 Z" id="Shape" fill="#000000"></path>
                    <path d="M57.9795501,52.9897751 L38.8548057,52.9897751 C38.0368098,52.9897751 37.3660532,53.6605317 37.3660532,54.4785276 C37.3660532,55.2965235 38.0368098,55.9672802 38.8548057,55.9672802 L57.9795501,55.9672802 C58.797546,55.9672802 59.4683027,55.2965235 59.4683027,54.4785276 C59.4683027,53.6605317 58.797546,52.9897751 57.9795501,52.9897751 Z" id="Shape" fill="#000000"></path>
                    <path d="M51.8773006,61.7096115 C51.8773006,60.8916155 51.206544,60.2208589 50.3885481,60.2208589 L38.8548057,60.2208589 C38.0368098,60.2208589 37.3660532,60.8916155 37.3660532,61.7096115 C37.3660532,62.5276074 38.0368098,63.198364 38.8548057,63.198364 L50.3885481,63.198364 C51.206544,63.198364 51.8773006,62.5276074 51.8773006,61.7096115 Z" id="Shape" fill="#000000"></path>
                    <path d="M49.0306748,79.5419223 C49.603272,80.1145194 50.5521472,80.1145194 51.1247444,79.5419223 L56.1635992,74.5030675 L61.202454,79.5419223 C61.4969325,79.8364008 61.8732106,79.9836401 62.2494888,79.9836401 C62.6257669,79.9836401 63.002045,79.8364008 63.2965235,79.5419223 L66.3394683,76.4989775 C66.6175869,76.2208589 66.7811861,75.8445808 66.7811861,75.4519427 L66.7811861,24.9161554 C66.7811861,21.1860941 63.7546012,18.1595092 60.0245399,18.1595092 L48.6543967,18.1595092 L48.6543967,1.48875256 C48.6543967,0.670756646 47.9836401,0 47.1656442,0 L1.60327198,0 C0.785276074,0 0.114519427,0.670756646 0.114519427,1.48875256 L0.114519427,52.00818 C0.114519427,55.7382413 3.14110429,58.7648262 6.87116564,58.7648262 L15.4437628,58.7648262 C16.2617587,58.7648262 16.9325153,58.0940695 16.9325153,57.2760736 C16.9325153,56.4580777 16.2617587,55.7873211 15.4437628,55.7873211 L12.4662577,55.7873211 C13.202454,54.7075665 13.6441718,53.398773 13.6441718,51.99182 L13.6441718,24.9161554 C13.6441718,22.8220859 15.3456033,21.1206544 17.4396728,21.1206544 C19.5337423,21.1206544 21.2351738,22.8220859 21.2351738,24.9161554 L21.2351738,75.4355828 C21.2351738,75.5337423 21.2515337,75.6319018 21.2678937,75.7300613 C21.2842536,75.795501 21.3006135,75.8445808 21.3169734,75.9100204 C21.3333333,75.9427403 21.3333333,75.9754601 21.3496933,76.00818 C21.3824131,76.0736196 21.4151329,76.1390593 21.4478528,76.1881391 C21.4642127,76.204499 21.4642127,76.2372188 21.4805726,76.2535787 C21.5296524,76.3353783 21.595092,76.4171779 21.6605317,76.4826176 L24.7034765,79.5255624 C25.2760736,80.0981595 26.2249489,80.0981595 26.797546,79.5255624 L31.8364008,74.4867076 L36.8752556,79.5255624 C37.4478528,80.0981595 38.396728,80.0981595 38.9693252,79.5255624 L44.00818,74.4867076 L49.0306748,79.5419223 Z M10.6830266,24.9161554 L10.6830266,52.00818 C10.6830266,54.1022495 8.98159509,55.803681 6.88752556,55.803681 C4.79345603,55.803681 3.09202454,54.1022495 3.09202454,52.00818 L3.09202454,2.96114519 L45.6932515,2.96114519 L45.6932515,18.1595092 L17.4396728,18.1595092 C13.7096115,18.1595092 10.6830266,21.1860941 10.6830266,24.9161554 Z M37.9222904,76.3844581 L32.8834356,71.3456033 C32.5889571,71.0511247 32.2126789,70.9038855 31.8364008,70.9038855 C31.4601227,70.9038855 31.0838446,71.0511247 30.7893661,71.3456033 L25.7505112,76.3844581 L24.196319,74.8302658 L24.196319,24.9161554 C24.196319,24.7034765 24.1799591,24.4907975 24.1635992,24.2944785 C24.1635992,24.2290389 24.1472393,24.1799591 24.1472393,24.1145194 C24.1308793,23.9672802 24.1145194,23.8200409 24.0817996,23.6728016 C24.0654397,23.607362 24.0654397,23.5582822 24.0490798,23.4928425 C24.0163599,23.3128834 23.9672802,23.1165644 23.9018405,22.9366053 C23.9018405,22.9202454 23.9018405,22.9202454 23.8854806,22.9038855 C23.8200409,22.7075665 23.7546012,22.5276074 23.6728016,22.3476483 C23.6564417,22.2985685 23.6237219,22.2494888 23.607362,22.1840491 C23.5419223,22.0531697 23.4928425,21.9222904 23.4110429,21.791411 C23.3783231,21.7423313 23.3619632,21.6932515 23.3292434,21.6278119 C23.2474438,21.4805726 23.1492843,21.3169734 23.0511247,21.1697342 C23.0347648,21.1533742 23.0347648,21.1370143 23.0184049,21.1206544 C23.0184049,21.1206544 23.0184049,21.1206544 23.0184049,21.1042945 L59.9754601,21.1042945 C62.0695297,21.1042945 63.7709611,22.805726 63.7709611,24.8997955 L63.7709611,74.8302658 L62.2167689,76.3844581 L57.1779141,71.3456033 C56.605317,70.7730061 55.6564417,70.7730061 55.0838446,71.3456033 L50.0449898,76.3844581 L45.0552147,71.3619632 C44.4826176,70.7893661 43.5337423,70.7893661 42.9611452,71.3619632 L37.9222904,76.3844581 Z" id="Shape" fill="#000000"></path>
                </g>
            </g>
        </g>
    </g>
</svg>