<?xml version="1.0" encoding="UTF-8"?>
<svg width="54px" height="77px" viewBox="0 0 54 77" version="1.1" xmlns="http://www.w3.org/2000/svg" xmlns:xlink="http://www.w3.org/1999/xlink">
    <!-- Generator: Sketch 48.2 (47327) - http://www.bohemiancoding.com/sketch -->
    <title>sign-up-icon-green</title>
    <desc>Created with Sketch.</desc>
    <defs></defs>
    <g id="Page-1" stroke="none" stroke-width="1" fill="none" fill-rule="evenodd">
        <g id="sign-up-icon-green" fill-rule="nonzero">
            <path d="M26.6486565,37.5414286 L26.7114146,37.5414286 L26.7741727,37.5414286 C38.4785577,37.4157143 36.7840891,21.7642857 36.7840891,21.7642857 C36.2977138,11.3142857 27.5743385,11.3928571 26.7114146,11.4242857 C25.8484908,11.3928571 17.1251155,11.2985714 16.6387402,21.7642857 C16.6544297,21.78 14.9599611,37.4314286 26.6486565,37.5414286 Z" id="XMLID_7410_"></path>
            <path d="M26.9467575,0 C12.1044678,0 0.023534286,12.1 0.023534286,26.9657143 C0.023534286,34.0528571 2.78489051,40.5271429 7.27209438,45.3357143 C7.36623153,45.4614286 7.47605819,45.5871429 7.60157439,45.6814286 C12.4967059,50.7571429 19.3687174,53.9314286 26.9467575,53.9314286 C41.7890472,53.9314286 53.8699807,41.8314286 53.8699807,26.9657143 C53.8699807,12.1 41.7890472,0 26.9467575,0 Z M11.2258544,45.1942857 C18.5371726,42.8057143 21.1102546,39.8985714 22.0045574,38.0128571 C23.3538565,38.6257143 24.8600508,38.94 26.5545194,38.9714286 L26.6643461,38.9714286 L26.7271042,38.9714286 L26.7898623,38.9714286 L26.8996889,38.9714286 C28.7196737,38.94 30.3513842,38.5628571 31.7791309,37.8557143 C32.6106757,39.7257143 35.1209995,42.7428571 42.651971,45.1942857 C38.4314891,48.84 32.9401557,51.0714286 26.931068,51.0714286 C20.9376698,51.0714286 15.4463364,48.8557143 11.2258544,45.1942857 Z M26.7741727,36.1271429 L26.7271042,36.1271429 L26.6800356,36.1271429 C24.1854013,36.0957143 22.2869689,35.31 20.8749117,33.7071429 C17.2977002,29.6842857 18.0821764,22.0157143 18.0821764,21.9371429 L18.0821764,21.8428571 C18.458725,13.5142857 24.6090184,12.87 26.4917613,12.87 L26.6800356,12.87 L26.7898623,12.87 L26.9781365,12.87 C28.8451899,12.87 34.9954833,13.5142857 35.3877214,21.8428571 L35.3877214,21.9371429 C35.4034109,22.0157143 36.1721976,29.6685714 32.5949861,33.7071429 C31.1672395,35.31 29.2688071,36.0957143 26.7741727,36.1271429 Z M44.9583311,42.9314286 C34.5718662,39.9142857 34.2266966,36.2214286 34.2266966,36.19 L34.2266966,36.2685714 L34.0698014,36.2685714 C34.2894547,36.0642857 34.5091081,35.8442857 34.7130719,35.6085714 C38.9963119,30.7685714 38.2902834,22.4714286 38.2118357,21.6857143 C37.8039081,13.0742857 31.9046471,10.01 26.962447,10.01 L26.7114146,10.01 L26.4603823,10.01 C21.5338717,10.01 15.6346107,13.0585714 15.2109935,21.67 C15.1325459,22.44 14.4108278,30.7528571 18.7097574,35.5928571 C18.9764793,35.8914286 19.2745803,36.1742857 19.5569917,36.4414286 C19.3216488,37.2271429 17.7840755,40.3228571 8.90380488,42.9157143 C5.13831912,38.6571429 2.84764861,33.0785714 2.84764861,26.95 C2.84764861,13.6557143 13.6420411,2.82857143 26.931068,2.82857143 C40.2200948,2.82857143 51.0144873,13.64 51.0144873,26.95 C51.0301769,33.0785714 48.7238168,38.6728571 44.9583311,42.9314286 Z" id="Shape" fill="#1BB933"></path>
            <path d="M48.1276149,64.5385714 C48.1276149,63.7528571 47.4843444,63.1085714 46.6998682,63.1085714 L7.19364676,63.1085714 C6.40917056,63.1085714 5.76590008,63.7528571 5.76590008,64.5385714 C5.76590008,65.3242857 6.40917056,65.9685714 7.19364676,65.9685714 L46.6998682,65.9685714 C47.4843444,65.9685714 48.1276149,65.3242857 48.1276149,64.5385714 Z" id="Shape" fill="#1BB933"></path>
            <path d="M41.1771558,75.4914286 C41.1771558,74.7057143 40.5338853,74.0614286 39.7494091,74.0614286 L14.1441059,74.0614286 C13.3596297,74.0614286 12.7163592,74.7057143 12.7163592,75.4914286 C12.7163592,76.2771429 13.3596297,76.9214286 14.1441059,76.9214286 L39.7650986,76.9214286 C40.5338853,76.9057143 41.1771558,76.2771429 41.1771558,75.4914286 Z" id="Shape" fill="#1BB933"></path>
        </g>
    </g>
</svg>