<?xml version="1.0" encoding="UTF-8"?>
<svg width="202px" height="202px" viewBox="0 0 202 202" version="1.1" xmlns="http://www.w3.org/2000/svg" xmlns:xlink="http://www.w3.org/1999/xlink">
    <!-- Generator: Sketch 48.2 (47327) - http://www.bohemiancoding.com/sketch -->
    <title>sign-up-icon2</title>
    <desc>Created with Sketch.</desc>
    <defs></defs>
    <g id="Page-1" stroke="none" stroke-width="1" fill="none" fill-rule="evenodd">
        <g id="sign-up-icon2" transform="translate(1.000000, 1.000000)" fill-rule="nonzero">
            <circle id="Oval" stroke="#00AAFF" stroke-width="2" fill="#00AAFF" cx="100" cy="100" r="100"></circle>
            <g id="user-2" transform="translate(55.000000, 37.000000)" fill="#FFFFFF">
                <g id="Layer_1">
                    <g id="Group">
                        <path d="M43.45,60.9438776 L43.5523256,60.9438776 L43.6546512,60.9438776 C62.7383721,60.7397959 59.9755814,35.3316327 59.9755814,35.3316327 C59.1825581,18.3673469 44.9593023,18.494898 43.5523256,18.5459184 C42.1453488,18.494898 27.922093,18.3418367 27.1290698,35.3316327 C27.1546512,35.3571429 24.3918605,60.7653061 43.45,60.9438776 Z" id="XMLID_7410_"></path>
                        <path d="M43.9360465,0 C19.7360465,0 0.038372093,19.6428571 0.038372093,43.7755102 C0.038372093,55.2806122 4.54069767,65.7908163 11.8569767,73.5969388 C12.0104651,73.8010204 12.1895349,74.005102 12.394186,74.1581633 C20.3755814,82.3979592 31.5802326,87.5510204 43.9360465,87.5510204 C68.1360465,87.5510204 87.8337209,67.9081633 87.8337209,43.7755102 C87.8337209,19.6428571 68.1360465,0 43.9360465,0 Z M18.3034884,73.3673469 C30.2244186,69.4897959 34.4197674,64.7704082 35.877907,61.7091837 C38.077907,62.7040816 40.5337209,63.2142857 43.2965116,63.2653061 L43.4755814,63.2653061 L43.577907,63.2653061 L43.6802326,63.2653061 L43.8593023,63.2653061 C46.8267442,63.2142857 49.4872093,62.6020408 51.8151163,61.4540816 C53.1709302,64.4897959 57.2639535,69.3877551 69.5430233,73.3673469 C62.6616279,79.2857143 53.7081395,82.9081633 43.9104651,82.9081633 C34.1383721,82.9081633 25.1848837,79.3112245 18.3034884,73.3673469 Z M43.6546512,58.6479592 L43.577907,58.6479592 L43.5011628,58.6479592 C39.4337209,58.5969388 36.3383721,57.3214286 34.0360465,54.7193878 C28.2034884,48.1887755 29.4825581,35.7397959 29.4825581,35.6122449 L29.4825581,35.4591837 C30.0965116,21.9387755 40.1244186,20.8928571 43.194186,20.8928571 L43.5011628,20.8928571 L43.6802326,20.8928571 L43.9872093,20.8928571 C47.0313953,20.8928571 57.0593023,21.9387755 57.6988372,35.4591837 L57.6988372,35.6122449 C57.7244186,35.7397959 58.977907,48.1632653 53.1453488,54.7193878 C50.8174419,57.3214286 47.722093,58.5969388 43.6546512,58.6479592 Z M73.3034884,69.6938776 C56.3686047,64.7959184 55.805814,58.8010204 55.805814,58.75 L55.805814,58.877551 L55.55,58.877551 C55.9081395,58.5459184 56.2662791,58.1887755 56.5988372,57.8061224 C63.5825581,49.9489796 62.4313953,36.4795918 62.3034884,35.2040816 C61.6383721,21.2244898 52.0197674,16.25 43.9616279,16.25 L43.5523256,16.25 L43.1430233,16.25 C35.1104651,16.25 25.4918605,21.1989796 24.8011628,35.1785714 C24.6732558,36.4285714 23.4965116,49.9234694 30.505814,57.7806122 C30.9406977,58.2653061 31.4267442,58.7244898 31.8872093,59.1581633 C31.5034884,60.4336735 28.9965116,65.4591837 14.5174419,69.6683673 C8.37790698,62.755102 4.64302326,53.6989796 4.64302326,43.75 C4.64302326,22.1683673 22.2430233,4.59183673 43.9104651,4.59183673 C65.577907,4.59183673 83.177907,22.1428571 83.177907,43.75 C83.2034884,53.6989796 79.4430233,62.7806122 73.3034884,69.6938776 Z" id="Shape"></path>
                        <path d="M78.4709302,104.770408 C78.4709302,103.494898 77.422093,102.44898 76.1430233,102.44898 L11.7290698,102.44898 C10.45,102.44898 9.40116279,103.494898 9.40116279,104.770408 C9.40116279,106.045918 10.45,107.091837 11.7290698,107.091837 L76.1430233,107.091837 C77.422093,107.091837 78.4709302,106.045918 78.4709302,104.770408 Z" id="Shape"></path>
                        <path d="M67.1383721,122.55102 C67.1383721,121.27551 66.0895349,120.229592 64.8104651,120.229592 L23.0616279,120.229592 C21.7825581,120.229592 20.7337209,121.27551 20.7337209,122.55102 C20.7337209,123.826531 21.7825581,124.872449 23.0616279,124.872449 L64.8360465,124.872449 C66.0895349,124.846939 67.1383721,123.826531 67.1383721,122.55102 Z" id="Shape"></path>
                    </g>
                </g>
            </g>
        </g>
    </g>
</svg>