<?xml version="1.0" encoding="UTF-8"?>
<svg width="67px" height="50px" viewBox="0 0 67 50" version="1.1" xmlns="http://www.w3.org/2000/svg" xmlns:xlink="http://www.w3.org/1999/xlink">
    <!-- Generator: Sketch 49.2 (51160) - http://www.bohemiancoding.com/sketch -->
    <title>Group 4 Copy</title>
    <desc>Created with Sketch.</desc>
    <defs></defs>
    <g id="Customer-Dashboard" stroke="none" stroke-width="1" fill="none" fill-rule="evenodd">
        <g id="Customer---Organization-role" transform="translate(-1190.000000, -242.000000)" fill-rule="nonzero">
            <g id="Group-4-Copy" transform="translate(1190.000000, 242.000000)">
                <g id="Group-3" fill="#F7F9FB">
                    <g id="Group-2">
                        <rect id="Rectangle-path" x="0" y="48.6219336" width="67" height="1"></rect>
                        <path d="M58.585119,48.6299097 C67.3462011,35.6179106 65.0850919,18.1243631 53.3035041,7.76758421 C41.5219163,-2.58919474 23.8828456,-2.58919474 12.1012578,7.76758421 C0.319669987,18.1243631 -1.94143924,35.6179106 6.81964286,48.6299097 L58.585119,48.6299097 Z" id="Shape"></path>
                    </g>
                </g>
                <g id="suppliers-icon2" transform="translate(14.000000, 0.000000)" fill="#263C66">
                    <path d="M38.2499196,24.0000293 L36.749903,24.0000293 L36.749903,22.5 L38.2499196,22.5 C38.6219573,22.5 38.9376578,22.2270118 38.9917101,21.85875 C39.0464655,21.4904882 38.8221705,21.13875 38.4652497,21.0315234 L24.0001578,16.6920118 L24.0001578,9.25804685 L33.1403535,12.0000586 L25.5001744,12.0000586 C25.085422,12.0000586 24.75021,12.3360644 24.75021,12.7500293 C24.75021,13.1639942 25.085422,13.5 25.5001744,13.5 L35.2500622,13.5 L35.2500622,15.0000293 L33.7500457,15.0000293 C33.3352933,15.0000293 33.0000813,15.3360352 33.0000813,15.75 C33.0000813,16.1639648 33.3352933,16.4999707 33.7500457,16.4999707 L38.2500074,16.4999707 C38.6647598,16.4999707 38.9999717,16.1639648 38.9999717,15.75 C38.9999717,15.3360352 38.6647598,15.0000293 38.2500074,15.0000293 L36.7499908,15.0000293 L36.7499908,13.5 L38.2500074,13.5 C38.6220453,13.5 38.9377457,13.2270118 38.991798,12.85875 C39.0465534,12.4904882 38.8222584,12.13875 38.4653377,12.0315234 L23.778939,7.62530273 L20.2358343,0.419238281 C20.1105912,0.164267578 19.8518434,0.00149414062 19.5676075,0 L19.5623342,0 C19.2802955,0 19.0215477,0.158291016 18.8933164,0.410273438 L15.0810929,7.91024414 C15.0773136,7.91850586 15.0788078,7.92676757 15.0751164,7.9350293 C15.0534076,7.9800293 15.0473432,8.02951172 15.0345992,8.07829102 C15.0225583,8.12707031 15.006826,8.17505859 15.0053318,8.22454102 C15.0053318,8.23350584 15.0000585,8.24106445 15.0000585,8.25002926 L15.0000585,12.0000586 L5.95812354,12.0000586 L13.7115928,9.71929685 C14.1091187,9.60301759 14.3363141,9.18606445 14.2193327,8.78853518 C14.1030543,8.39179685 13.688302,8.16301757 13.2885788,8.28 L0.53874574,12.0300293 C0.181033935,12.1357618 -0.0454582814,12.4875 0.00771509505,12.8572558 C0.0609763614,13.2262207 0.377467814,13.5 0.750208788,13.5 L2.25022534,13.5 L2.25022534,15.0000293 L0.750208788,15.0000293 C0.335456451,15.0000293 0.000244455366,15.3360352 0.000244455366,15.75 C0.000244455366,16.1639648 0.335456451,16.4999707 0.750208788,16.4999707 L5.25017056,16.4999707 C5.6649229,16.4999707 6.00013489,16.1639648 6.00013489,15.75 C6.00013489,15.3360352 5.6649229,15.0000293 5.25017056,15.0000293 L3.75015401,15.0000293 L3.75015401,13.5 L15.0000585,13.5 L15.0000585,20.9999707 L5.95812354,20.9999707 L13.7115928,18.719209 C14.1091187,18.6029297 14.3363141,18.1859766 14.2193327,17.7884472 C14.1030543,17.391709 13.688302,17.1637207 13.2885788,17.2799121 L0.53874574,21.0300293 C0.181033935,21.1357618 -0.0454582814,21.4875 0.00771509505,21.8572558 C0.0609763614,22.2262207 0.377467814,22.5 0.750208788,22.5 L2.25022534,22.5 L2.25022534,24.0000293 L0.750208788,24.0000293 C0.335456451,24.0000293 0.000244455366,24.3360352 0.000244455366,24.75 C0.000244455366,25.1639648 0.335456451,25.4999707 0.750208788,25.4999707 L5.25017056,25.4999707 C5.6649229,25.4999707 6.00013489,25.1639648 6.00013489,24.75 C6.00013489,24.3360352 5.6649229,24.0000293 5.25017056,24.0000293 L3.75015401,24.0000293 L3.75015401,22.5 L14.7556367,22.5 L9.18394574,42.0000293 L6.75018711,42.0000293 C6.33543478,42.0000293 6.00022278,42.3360352 6.00022278,42.75 L6.00022278,44.2500293 C6.00022278,44.6639942 6.33543478,45 6.75018711,45 C7.16493945,45 7.50015145,44.6639942 7.50015145,44.2500293 L7.50015145,43.5000586 L9.74863817,43.5000586 L9.75092334,43.5000586 L29.2470077,43.5000586 L29.2492929,43.5000586 L31.5000648,43.5000586 L31.5000648,44.2500293 C31.5000648,44.6639942 31.8352768,45 32.2500291,45 C32.6647815,45 32.9999934,44.6639942 32.9999934,44.2500293 L32.9999934,42.75 C32.9999934,42.3360352 32.6647815,42.0000293 32.2500291,42.0000293 L29.8162705,42.0000293 L24.0000699,21.645 L24.0000699,18.257959 L33.1402657,20.9999707 L25.5000864,20.9999707 C25.0853341,20.9999707 24.7501221,21.3359766 24.7501221,21.7499414 C24.7501221,22.1639062 25.0853341,22.4999121 25.5000864,22.4999121 L35.2499743,22.4999121 L35.2499743,23.9999414 L33.7499578,23.9999414 C33.3352054,23.9999414 32.9999934,24.3359472 32.9999934,24.7499121 C32.9999934,25.1638769 33.3352054,25.4998828 33.7499578,25.4998828 L38.2499196,25.4998828 C38.6646719,25.4998828 38.9998839,25.1638769 38.9998839,24.7499121 C38.9998839,24.3359472 38.6646719,24.0000293 38.2499196,24.0000293 Z M10.7446063,42.0000293 L13.1955914,33.4230469 L18.1035379,36.5452734 L12.8723324,39.8744824 C12.5227943,40.0964942 12.420051,40.5607324 12.6420609,40.9102734 C12.7853214,41.1344824 13.0275459,41.2575293 13.2758348,41.2575293 C13.4138219,41.2575293 13.5526,41.22 13.6778431,41.1397558 L19.5000202,37.4347266 L26.67368,41.9999414 L10.7446063,41.9999414 L10.7446063,42.0000293 Z M27.9862274,41.0565234 L13.6253728,31.9177442 L15.3330732,25.9395118 L18.1395728,27.7927734 L15.3368525,29.6430469 C14.9910936,29.8710352 14.895821,30.3367676 15.1245984,30.6825293 C15.2678589,30.9007618 15.5070952,31.0185352 15.7508138,31.0185352 C15.8925801,31.0185352 16.0365437,30.9788086 16.163281,30.8947852 L19.5000202,28.6912793 L24.871498,32.2380176 L21.3315574,34.4910058 C20.9828103,34.7137207 20.8792761,35.1764648 21.1020769,35.526709 C21.2445464,35.7510058 21.487562,35.8739648 21.7358508,35.8739648 C21.8731348,35.8739648 22.012616,35.8357324 22.1378591,35.7561914 L25.804537,33.422959 L27.9862274,41.0565234 Z M24.972044,30.5070118 L19.9170577,27.169541 C19.9162667,27.16875 19.9155636,27.1680469 19.9140694,27.1672558 L15.765843,24.4275293 L16.3162973,22.5 L21.0000368,22.5 C21.4147891,22.5 21.7500011,22.1639942 21.7500011,21.7500293 C21.7500011,21.3360644 21.4147891,21.0000586 21.0000368,21.0000586 L16.500075,21.0000586 L16.500075,18 L21.0000368,18 C21.4147891,18 21.7500011,17.6639942 21.7500011,17.2500293 C21.7500011,16.8360644 21.4147891,16.5000586 21.0000368,16.5000586 L16.500075,16.5000586 L16.500075,13.5 L21.0000368,13.5 C21.4147891,13.5 21.7500011,13.1639942 21.7500011,12.7500293 C21.7500011,12.3360644 21.4147891,12.0000586 21.0000368,12.0000586 L16.500075,12.0000586 L16.500075,9 L20.2500725,9 C20.6648248,9 21.0000368,8.66399416 21.0000368,8.25002926 C21.0000368,7.83606445 20.6648248,7.50005859 20.2500725,7.50005859 L16.972571,7.50005859 L19.5510843,2.42709961 L22.5000534,8.42484371 L22.5000534,21.7501172 C22.5000534,21.8199023 22.5098091,21.8888965 22.5285296,21.9563965 L23.2349885,24.4276172 L21.363022,25.6636231 C21.0172632,25.8916113 20.9227816,26.3573437 21.1507679,26.7024023 C21.2947316,26.9214257 21.5340557,27.0391113 21.7769833,27.0391113 C21.9194528,27.0391113 22.0627133,26.9993847 22.1894505,26.9153613 L23.6669673,25.9395996 L24.972044,30.5070118 Z" id="Shape"></path>
                </g>
            </g>
        </g>
    </g>
</svg>