<?xml version="1.0" encoding="UTF-8"?>
<svg width="48px" height="55px" viewBox="0 0 48 55" version="1.1" xmlns="http://www.w3.org/2000/svg" xmlns:xlink="http://www.w3.org/1999/xlink">
    <!-- Generator: Sketch 47.1 (45422) - http://www.bohemiancoding.com/sketch -->
    <title>power</title>
    <desc>Created with Sketch.</desc>
    <defs></defs>
    <g id="Page-1" stroke="none" stroke-width="1" fill="none" fill-rule="evenodd">
        <g id="Artboard-10" transform="translate(-613.000000, -4131.000000)" fill-rule="nonzero" fill="#00AAFF">
            <g id="Group-3" transform="translate(587.000000, 4108.000000)">
                <g id="power" transform="translate(26.000000, 23.000000)">
                    <path d="M46.764502,29.3333691 L44.9311328,29.3333691 L44.9311328,27.5 L46.764502,27.5 C47.2192187,27.5 47.6050781,27.1663477 47.6711426,26.71625 C47.7380664,26.2661523 47.4639258,25.83625 47.0276855,25.7051953 L29.3479785,20.4013477 L29.3479785,11.3153906 L40.5194238,14.6667383 L31.1813477,14.6667383 C30.6744238,14.6667383 30.2647168,15.0774121 30.2647168,15.5833691 C30.2647168,16.0893262 30.6744238,16.5 31.1813477,16.5 L43.0979785,16.5 L43.0979785,18.3333691 L41.2646094,18.3333691 C40.7576855,18.3333691 40.3479785,18.744043 40.3479785,19.25 C40.3479785,19.755957 40.7576855,20.1666309 41.2646094,20.1666309 L46.7646094,20.1666309 C47.2715332,20.1666309 47.6812402,19.755957 47.6812402,19.25 C47.6812402,18.744043 47.2715332,18.3333691 46.7646094,18.3333691 L44.9312402,18.3333691 L44.9312402,16.5 L46.7646094,16.5 C47.2193262,16.5 47.6051855,16.1663477 47.67125,15.71625 C47.7381738,15.2661523 47.4640332,14.83625 47.027793,14.7051953 L29.0775977,9.31981445 L24.7470996,0.512402344 C24.5940234,0.200771484 24.2777734,0.00182617187 23.9303711,0 L23.9239258,0 C23.579209,0 23.262959,0.193466797 23.1062305,0.501445313 L18.4468066,9.66807617 C18.4421875,9.67817383 18.4440137,9.68827148 18.439502,9.69836914 C18.4129687,9.75336914 18.4055566,9.81384766 18.3899805,9.8734668 C18.3752637,9.93308594 18.3560352,9.99173828 18.354209,10.0522168 C18.354209,10.0631738 18.3477637,10.0724121 18.3477637,10.0833691 L18.3477637,14.6667383 L7.29641602,14.6667383 L16.772959,11.8791406 C17.2588281,11.7370215 17.5365137,11.2274121 17.3935352,10.741543 C17.251416,10.2566406 16.7444922,9.97702148 16.2559375,10.12 L0.672675781,14.7033691 C0.23546875,14.8325977 -0.0413574219,15.2625 0.0236328125,15.7144238 C0.0887304688,16.1653809 0.475556641,16.5 0.931132813,16.5 L2.76450195,16.5 L2.76450195,18.3333691 L0.931132813,18.3333691 C0.424208984,18.3333691 0.0145019531,18.744043 0.0145019531,19.25 C0.0145019531,19.755957 0.424208984,20.1666309 0.931132813,20.1666309 L6.43113281,20.1666309 C6.93805664,20.1666309 7.34776367,19.755957 7.34776367,19.25 C7.34776367,18.744043 6.93805664,18.3333691 6.43113281,18.3333691 L4.59776367,18.3333691 L4.59776367,16.5 L18.3477637,16.5 L18.3477637,25.6666309 L7.29641602,25.6666309 L16.772959,22.8790332 C17.2588281,22.7369141 17.5365137,22.2273047 17.3935352,21.7414355 C17.251416,21.2565332 16.7444922,20.9778809 16.2559375,21.1198926 L0.672675781,25.7033691 C0.23546875,25.8325977 -0.0413574219,26.2625 0.0236328125,26.7144238 C0.0887304688,27.1653809 0.475556641,27.5 0.931132813,27.5 L2.76450195,27.5 L2.76450195,29.3333691 L0.931132813,29.3333691 C0.424208984,29.3333691 0.0145019531,29.744043 0.0145019531,30.25 C0.0145019531,30.755957 0.424208984,31.1666309 0.931132813,31.1666309 L6.43113281,31.1666309 C6.93805664,31.1666309 7.34776367,30.755957 7.34776367,30.25 C7.34776367,29.744043 6.93805664,29.3333691 6.43113281,29.3333691 L4.59776367,29.3333691 L4.59776367,27.5 L18.0490234,27.5 L11.2391211,51.3333691 L8.26450195,51.3333691 C7.75757813,51.3333691 7.34787109,51.744043 7.34787109,52.25 L7.34787109,54.0833691 C7.34787109,54.5893262 7.75757813,55 8.26450195,55 C8.77142578,55 9.18113281,54.5893262 9.18113281,54.0833691 L9.18113281,53.1667383 L11.9293066,53.1667383 L11.9320996,53.1667383 L35.7608496,53.1667383 L35.7636426,53.1667383 L38.5146094,53.1667383 L38.5146094,54.0833691 C38.5146094,54.5893262 38.9243164,55 39.4312402,55 C39.9381641,55 40.3478711,54.5893262 40.3478711,54.0833691 L40.3478711,52.25 C40.3478711,51.744043 39.9381641,51.3333691 39.4312402,51.3333691 L36.4566211,51.3333691 L29.3478711,26.455 L29.3478711,22.3152832 L40.5193164,25.6666309 L31.1812402,25.6666309 C30.6743164,25.6666309 30.2646094,26.0773047 30.2646094,26.5832617 C30.2646094,27.0892187 30.6743164,27.4998926 31.1812402,27.4998926 L43.0978711,27.4998926 L43.0978711,29.3332617 L41.264502,29.3332617 C40.7575781,29.3332617 40.3478711,29.7439355 40.3478711,30.2498926 C40.3478711,30.7558496 40.7575781,31.1665234 41.264502,31.1665234 L46.764502,31.1665234 C47.2714258,31.1665234 47.6811328,30.7558496 47.6811328,30.2498926 C47.6811328,29.7439355 47.2714258,29.3333691 46.764502,29.3333691 Z M13.1466113,51.3333691 L16.1422852,40.8503906 L22.1409375,44.6664453 L15.7471875,48.7354785 C15.3199707,49.0068262 15.1943945,49.5742285 15.4657422,50.0014453 C15.6408398,50.2754785 15.9368945,50.4258691 16.2403613,50.4258691 C16.4090137,50.4258691 16.5786328,50.38 16.731709,50.2819238 L23.8477637,45.7535547 L32.6156445,51.3332617 L13.1466113,51.3332617 L13.1466113,51.3333691 Z M34.2198828,50.1801953 L16.6675781,39.0105762 L18.7547852,31.7038477 L22.1849805,33.9689453 L18.7594043,36.2303906 C18.3368066,36.509043 18.2203613,37.0782715 18.4999805,37.5008691 C18.6750781,37.7675977 18.9674805,37.911543 19.2653613,37.911543 C19.4386328,37.911543 19.6145898,37.8629883 19.7694922,37.760293 L23.8477637,35.0671191 L30.412959,39.4020215 L26.0863281,42.1556738 C25.6600781,42.4278809 25.5335352,42.993457 25.8058496,43.4215332 C25.9799805,43.6956738 26.277002,43.845957 26.5804687,43.845957 C26.7482617,43.845957 26.9187402,43.7992285 27.0718164,43.7020117 L31.5533496,40.8502832 L34.2198828,50.1801953 Z M30.5358496,37.2863477 L24.3574805,33.2072168 C24.3565137,33.20625 24.3556543,33.2053906 24.3538281,33.2044238 L19.2837305,29.8558691 L19.9565137,27.5 L25.6811328,27.5 C26.1880566,27.5 26.5977637,27.0893262 26.5977637,26.5833691 C26.5977637,26.0774121 26.1880566,25.6667383 25.6811328,25.6667383 L20.1811328,25.6667383 L20.1811328,22 L25.6811328,22 C26.1880566,22 26.5977637,21.5893262 26.5977637,21.0833691 C26.5977637,20.5774121 26.1880566,20.1667383 25.6811328,20.1667383 L20.1811328,20.1667383 L20.1811328,16.5 L25.6811328,16.5 C26.1880566,16.5 26.5977637,16.0893262 26.5977637,15.5833691 C26.5977637,15.0774121 26.1880566,14.6667383 25.6811328,14.6667383 L20.1811328,14.6667383 L20.1811328,11 L24.764502,11 C25.2714258,11 25.6811328,10.5893262 25.6811328,10.0833691 C25.6811328,9.57741211 25.2714258,9.16673828 24.764502,9.16673828 L20.7586328,9.16673828 L23.9101758,2.96645508 L27.514502,10.2970312 L27.514502,26.5834766 C27.514502,26.6687695 27.5264258,26.7530957 27.5493066,26.8355957 L28.4127637,29.8559766 L26.1247852,31.3666504 C25.7021875,31.6453027 25.586709,32.2145312 25.8653613,32.6362695 C26.0413184,32.9039648 26.3338281,33.0478027 26.6307422,33.0478027 C26.804873,33.0478027 26.9799707,32.999248 27.134873,32.8965527 L28.9407422,31.7039551 L30.5358496,37.2863477 Z" id="Shape"></path>
                </g>
            </g>
        </g>
    </g>
</svg>