<?xml version="1.0" encoding="UTF-8"?>
<svg width="57px" height="80px" viewBox="0 0 57 80" version="1.1" xmlns="http://www.w3.org/2000/svg" xmlns:xlink="http://www.w3.org/1999/xlink">
    <!-- Generator: Sketch 41 (35326) - http://www.bohemiancoding.com/sketch -->
    <title>user-2</title>
    <desc>Created with Sketch.</desc>
    <defs></defs>
    <g id="Page-1" stroke="none" stroke-width="1" fill="none" fill-rule="evenodd">
        <g id="user-2">
            <g id="Layer_1">
                <g id="Group">
                    <path d="M27.7306122,39.0040816 L27.7306122,39.0040816 L27.7959184,39.0040816 L27.8612245,39.0040816 L27.8612245,39.0040816 C40.0408163,38.8734694 38.277551,22.6122449 38.277551,22.6122449 C37.7714286,11.755102 28.6938776,11.8367347 27.7959184,11.8693878 C26.8979592,11.8367347 17.8204082,11.7387755 17.3142857,22.6122449 C17.3306122,22.6285714 15.5673469,38.8897959 27.7306122,39.0040816 Z" id="XMLID_7410_" fill="#A7A9AC"></path>
                    <path d="M28.0408163,0 C12.5959184,0 0.0244897959,12.5714286 0.0244897959,28.0163265 C0.0244897959,35.3795918 2.89795918,42.1061224 7.56734694,47.1020408 C7.66530612,47.2326531 7.77959184,47.3632653 7.91020408,47.4612245 C13.0040816,52.7346939 20.155102,56.0326531 28.0408163,56.0326531 C43.4857143,56.0326531 56.0571429,43.4612245 56.0571429,28.0163265 C56.0571429,12.5714286 43.4857143,0 28.0408163,0 Z M11.6816327,46.955102 C19.2897959,44.4734694 21.9673469,41.4530612 22.8979592,39.4938776 C24.3020408,40.1306122 25.8693878,40.4571429 27.6326531,40.4897959 L27.7469388,40.4897959 L27.8122449,40.4897959 L27.877551,40.4897959 L27.9918367,40.4897959 C29.8857143,40.4571429 31.5836735,40.0653061 33.0693878,39.3306122 C33.9346939,41.2734694 36.5469388,44.4081633 44.3836735,46.955102 C39.9918367,50.7428571 34.277551,53.0612245 28.0244898,53.0612245 C21.7877551,53.0612245 16.0734694,50.7591837 11.6816327,46.955102 Z M27.8612245,37.5346939 L27.8122449,37.5346939 L27.8122449,37.5346939 L27.7632653,37.5346939 C25.1673469,37.5020408 23.1918367,36.6857143 21.722449,35.0204082 C18,30.8408163 18.8163265,22.8734694 18.8163265,22.7918367 L18.8163265,22.6938776 C19.2081633,14.0408163 25.6081633,13.3714286 27.5673469,13.3714286 L27.7632653,13.3714286 L27.877551,13.3714286 L28.0734694,13.3714286 C30.0163265,13.3714286 36.4163265,14.0408163 36.8244898,22.6938776 L36.8244898,22.7918367 C36.8408163,22.8734694 37.6408163,30.8244898 33.9183673,35.0204082 C32.4326531,36.6857143 30.4571429,37.5020408 27.8612245,37.5346939 Z M46.7836735,44.6040816 C35.9755102,41.4693878 35.6163265,37.6326531 35.6163265,37.6 L35.6163265,37.6816327 L35.4530612,37.6816327 C35.6816327,37.4693878 35.9102041,37.2408163 36.122449,36.9959184 C40.5795918,31.9673469 39.844898,23.3469388 39.7632653,22.5306122 C39.3387755,13.5836735 33.2,10.4 28.0571429,10.4 L27.7959184,10.4 L27.5346939,10.4 C22.4081633,10.4 16.2693878,13.5673469 15.8285714,22.5142857 C15.7469388,23.3142857 14.9959184,31.9510204 19.4693878,36.9795918 C19.7469388,37.2897959 20.0571429,37.5836735 20.3510204,37.8612245 C20.1061224,38.677551 18.5061224,41.8938776 9.26530612,44.5877551 C5.34693878,40.1632653 2.96326531,34.3673469 2.96326531,28 C2.96326531,14.1877551 14.1959184,2.93877551 28.0244898,2.93877551 C41.8530612,2.93877551 53.0857143,14.1714286 53.0857143,28 C53.1020408,34.3673469 50.7020408,40.1795918 46.7836735,44.6040816 Z" id="Shape" fill="#000000"></path>
                    <path d="M50.0816327,67.0530612 C50.0816327,66.2367347 49.4122449,65.5673469 48.5959184,65.5673469 L7.48571429,65.5673469 C6.66938776,65.5673469 6,66.2367347 6,67.0530612 C6,67.8693878 6.66938776,68.5387755 7.48571429,68.5387755 L48.5959184,68.5387755 C49.4122449,68.5387755 50.0816327,67.8693878 50.0816327,67.0530612 Z" id="Shape" fill="#000000"></path>
                    <path d="M42.8489796,78.4326531 C42.8489796,77.6163265 42.1795918,76.9469388 41.3632653,76.9469388 L14.7183673,76.9469388 C13.9020408,76.9469388 13.2326531,77.6163265 13.2326531,78.4326531 C13.2326531,79.2489796 13.9020408,79.9183673 14.7183673,79.9183673 L41.3795918,79.9183673 C42.1795918,79.9020408 42.8489796,79.2489796 42.8489796,78.4326531 Z" id="Shape" fill="#000000"></path>
                </g>
            </g>
        </g>
    </g>
</svg>