<?xml version="1.0" encoding="UTF-8"?>
<svg width="370px" height="489px" viewBox="0 0 370 489" version="1.1" xmlns="http://www.w3.org/2000/svg" xmlns:xlink="http://www.w3.org/1999/xlink">
    <!-- Generator: Sketch 41 (35326) - http://www.bohemiancoding.com/sketch -->
    <title>like-3</title>
    <desc>Created with Sketch.</desc>
    <defs></defs>
    <g id="Page-1" stroke="none" stroke-width="1" fill="none" fill-rule="evenodd">
        <g id="like-3">
            <g id="Layer_1">
                <g id="Group">
                    <path d="M83.2,474.030612 L13,474.030612 C10.9,474.030612 9.1,472.234286 9.1,470.138571 L9.1,286.514082 C9.1,284.418367 10.9,282.622041 13,282.622041 L83.2,282.622041 C85.3,282.622041 87.1,284.418367 87.1,286.514082 L87.1,470.138571 C87.1,472.234286 85.4,474.030612 83.2,474.030612 Z" id="XMLID_595_" fill="#3C92CA"></path>
                    <path d="M187.1,9.08142857 L187.1,88.1197959 C187.1,93.1095918 191.2,97.2012245 196.2,97.2012245 C201.2,97.2012245 205.3,93.1095918 205.3,88.1197959 L205.3,9.08142857 C205.3,4.09163265 201.2,0 196.2,0 C191.1,0 187.1,4.09163265 187.1,9.08142857 Z" id="Shape" fill="#000000"></path>
                    <path d="M360.7,177.636735 L281.5,177.636735 C276.5,177.636735 272.4,181.728367 272.4,186.718163 C272.4,191.707959 276.5,195.799592 281.5,195.799592 L360.7,195.799592 C365.7,195.799592 369.8,191.707959 369.8,186.718163 C369.8,181.728367 365.7,177.636735 360.7,177.636735 Z" id="Shape" fill="#000000"></path>
                    <path d="M22.5,186.718163 C22.5,191.707959 26.6,195.799592 31.6,195.799592 L110.8,195.799592 C115.8,195.799592 119.9,191.707959 119.9,186.718163 C119.9,181.728367 115.8,177.636735 110.8,177.636735 L31.6,177.636735 C26.6,177.636735 22.5,181.728367 22.5,186.718163 Z" id="Shape" fill="#000000"></path>
                    <path d="M71.7,60.7757143 C73.4,59.0791837 74.4,56.7838776 74.4,54.3887755 C74.4,51.9936735 73.4,49.6983673 71.7,48.0018367 C70,46.3053061 67.7,45.3073469 65.3,45.3073469 C62.9,45.3073469 60.6,46.3053061 58.9,48.0018367 C57.2,49.6983673 56.2,51.9936735 56.2,54.3887755 C56.2,56.7838776 57.2,59.0791837 58.9,60.7757143 C60.6,62.4722449 62.9,63.4702041 65.3,63.4702041 C67.7,63.4702041 70,62.4722449 71.7,60.7757143 Z" id="Shape" fill="#000000"></path>
                    <path d="M96.2,85.2257143 C92.7,88.7185714 92.7,94.5067347 96.2,97.9995918 C98,99.7959184 100.3,100.694082 102.6,100.694082 C104.9,100.694082 107.3,99.7959184 109,97.9995918 C112.5,94.5067347 112.5,88.7185714 109,85.2257143 C105.5,81.7328571 99.7,81.7328571 96.2,85.2257143 Z" id="Shape" fill="#000000"></path>
                    <path d="M90.4,79.437551 C93.9,75.9446939 93.9,70.1565306 90.4,66.6636735 C86.9,63.1708163 81.1,63.1708163 77.6,66.6636735 C74.1,70.1565306 74.1,75.9446939 77.6,79.437551 C79.4,81.2338776 81.7,82.0322449 84,82.0322449 C86.3,82.1320408 88.6,81.2338776 90.4,79.437551 Z" id="Shape" fill="#000000"></path>
                    <path d="M114.9,103.887551 C113.2,105.584082 112.3,107.879388 112.3,110.27449 C112.3,112.669592 113.3,114.964898 115,116.661429 C116.7,118.357959 119,119.355918 121.4,119.355918 C123.8,119.355918 126.1,118.357959 127.8,116.661429 C129.5,114.964898 130.5,112.669592 130.5,110.27449 C130.5,107.879388 129.5,105.584082 127.8,103.887551 C126.1,102.19102 123.8,101.193061 121.4,101.193061 C118.9,101.193061 116.5,102.19102 114.9,103.887551 Z" id="Shape" fill="#000000"></path>
                    <path d="M312.1,53.79 C310.4,55.4865306 309.4,57.7818367 309.4,60.1769388 C309.4,62.5720408 310.4,64.8673469 312.1,66.5638776 C313.8,68.2604082 316.1,69.2583673 318.5,69.2583673 C320.9,69.2583673 323.2,68.2604082 324.9,66.5638776 C326.6,64.8673469 327.5,62.5720408 327.5,60.1769388 C327.5,57.7818367 326.5,55.4865306 324.9,53.79 C323.2,52.0934694 320.9,51.1953061 318.5,51.1953061 C316.2,51.0955102 313.8,52.0934694 312.1,53.79 Z" id="Shape" fill="#000000"></path>
                    <path d="M281.2,106.382449 C283.5,106.382449 285.8,105.484286 287.6,103.787755 C291.1,100.294898 291.1,94.5067347 287.6,91.0138776 C284.1,87.5210204 278.3,87.5210204 274.8,91.0138776 C271.3,94.5067347 271.3,100.294898 274.8,103.787755 C276.6,105.584082 278.9,106.382449 281.2,106.382449 Z" id="Shape" fill="#000000"></path>
                    <path d="M293.5,72.3520408 C290,75.844898 290,81.6330612 293.5,85.1259184 C295.3,86.9222449 297.6,87.8204082 299.9,87.8204082 C302.2,87.8204082 304.5,86.9222449 306.3,85.1259184 C309.8,81.6330612 309.8,75.844898 306.3,72.3520408 C302.8,68.8591837 297,68.8591837 293.5,72.3520408 Z" id="Shape" fill="#000000"></path>
                    <path d="M253.5,116.062653 C253.5,118.457755 254.5,120.753061 256.2,122.449592 C257.9,124.146122 260.2,125.144082 262.6,125.144082 C265,125.144082 267.3,124.146122 269,122.449592 C270.7,120.753061 271.7,118.457755 271.7,116.062653 C271.7,113.667551 270.7,111.372245 269,109.675714 C267.3,107.979184 265,107.08102 262.6,107.08102 C260.2,107.08102 257.9,108.07898 256.2,109.675714 C254.5,111.272449 253.5,113.667551 253.5,116.062653 Z" id="Shape" fill="#000000"></path>
                    <path d="M368.2,303.579184 C368.2,275.436735 345.3,252.583469 317.1,252.583469 L237.7,252.583469 L237.7,195.400408 C237.7,171.349592 230.7,153.985102 216.7,143.805918 C194.7,127.63898 164.4,136.92 163.2,137.319184 C159.4,138.516735 156.9,142.009592 156.9,145.901633 L156.9,209.970612 C156.9,260.467347 98.2,277.732041 95.7,278.430612 C94.5,278.73 93.5,279.328776 92.6,280.027347 C89.5,276.135306 84.7,273.640408 79.4,273.640408 L16.9,273.640408 C7.6,273.640408 7.10542736e-15,281.224898 7.10542736e-15,290.505918 L7.10542736e-15,466.246531 C7.10542736e-15,475.527551 7.6,483.112041 16.9,483.112041 L79.2,483.112041 C85.4,483.112041 90.9,479.71898 93.8,474.629388 C103,483.411429 115.4,488.800408 129.1,488.800408 L286.1,488.800408 C320.8,488.800408 342.9,470.637551 346.8,439.002245 L367.9,304.976327 C368.1,304.577143 368.2,304.078163 368.2,303.579184 Z M78.1,464.949184 L18.2,464.949184 L18.2,291.703469 L78.1,291.703469 L78.1,464.949184 L78.1,464.949184 Z M329,436.407551 L329,436.706939 C326.2,459.260816 311.8,470.737347 286.2,470.737347 L129.2,470.737347 C111,470.737347 96.2,455.967551 96.2,437.804694 L96.2,295.894898 C97.6,296.194286 99.1,296.194286 100.5,295.795102 C103.5,294.996735 174.9,274.239184 174.9,209.970612 L174.9,153.186735 C182.7,151.989184 196.2,151.290612 205.9,158.376122 C214.9,164.962653 219.5,177.437143 219.5,195.400408 L219.5,261.664898 C219.5,266.654694 223.6,270.746327 228.6,270.746327 L317.1,270.746327 C335.1,270.746327 349.7,285.116939 350.1,302.980408 L329,436.407551 Z" id="Shape" fill="#000000"></path>
                </g>
            </g>
        </g>
    </g>
</svg>