<?xml version="1.0" encoding="UTF-8"?>
<svg width="450px" height="450px" viewBox="0 0 450 450" version="1.1" xmlns="http://www.w3.org/2000/svg" xmlns:xlink="http://www.w3.org/1999/xlink">
    <!-- Generator: Sketch 41 (35326) - http://www.bohemiancoding.com/sketch -->
    <title>Group</title>
    <desc>Created with Sketch.</desc>
    <defs></defs>
    <g id="Page-1" stroke="none" stroke-width="1" fill="none" fill-rule="evenodd">
        <g id="avatar" transform="translate(0.000000, -559.000000)">
            <g id="Page-1">
                <g id="user">
                    <g id="Capa_1">
                        <g id="Group" transform="translate(0.000000, 559.000000)">
                            <rect id="Rectangle" fill="#C4C4C4" x="0" y="0" width="450" height="450"></rect>
                            <path d="M225,275 C200.694323,275 180.034807,266.493141 163.020833,249.479167 C146.006859,232.465193 137.5,211.805677 137.5,187.5 C137.5,163.194323 146.006859,142.534807 163.020833,125.520833 C180.034807,108.506859 200.694323,100 225,100 C249.305677,100 269.965193,108.506859 286.979167,125.520833 C303.993141,142.534807 312.5,163.194323 312.5,187.5 C312.5,211.805677 303.993141,232.465193 286.979167,249.479167 C269.965193,266.493141 249.305677,275 225,275 Z M225,318.75 C261.458516,318.75 299.739383,326.801135 339.84375,342.903646 C379.948117,359.006157 400,380.121397 400,406.25 L400,450 L50,450 L50,406.25 C50,380.121397 70.0518828,359.006157 110.15625,342.903646 C150.260617,326.801135 188.541484,318.75 225,318.75 Z" id="" fill="#313131"></path>
                        </g>
                    </g>
                </g>
            </g>
        </g>
    </g>
</svg>